<?xml version="1.0" standalone="no"?>
<!DOCTYPE svg PUBLIC "-//W3C//DTD SVG 1.1//EN" "http://www.w3.org/Graphics/SVG/1.1/DTD/svg11.dtd" >
<svg xmlns="http://www.w3.org/2000/svg" xmlns:xlink="http://www.w3.org/1999/xlink" version="1.1">
<metadata></metadata>
<defs>
<font id="apfel_grotezkfett" horiz-adv-x="600" >
<font-face units-per-em="1000" ascent="800" descent="-200" />
<missing-glyph horiz-adv-x="200" />
<glyph unicode="A&#x2f;O" horiz-adv-x="672" d="M336 -12q-150 0 -235.5 111t-70.5 285h452q-13 64 -52 101t-96 37q-46 0 -81 -25t-47 -69l-154 60q27 76 105.5 125t178.5 49q137 0 222.5 -95t85.5 -243t-85.5 -242t-222.5 -94zM196 272q8 -64 47 -102t97 -38q57 0 95 37.5t49 102.5h-288z" />
<glyph unicode="a&#x2f;o" horiz-adv-x="540" d="M268 -12q-117 0 -184.5 84t-55.5 216h342q-10 44 -37.5 69t-66.5 25q-32 0 -57 -16t-33 -42l-134 48q18 61 80 100.5t142 39.5q109 0 179.5 -74t70.5 -190q0 -114 -68.5 -187t-177.5 -73zM176 208q5 -39 31 -63.5t65 -24.5q38 0 64 23.5t34 64.5h-194z" />
<glyph unicode="E&#x2f;I" horiz-adv-x="560" d="M288 -12q-110 0 -181.5 58.5t-74.5 149.5l168 24q0 -46 24.5 -73t65.5 -27q39 0 62.5 23.5t23.5 62.5q0 40 -25 64t-67 24h-34v84h34q39 0 62.5 22.5t23.5 59.5q0 35 -21 56.5t-55 21.5q-38 0 -61.5 -24.5t-24.5 -65.5l-156 28q9 81 77.5 133.5t166.5 52.5 q96 0 158 -48.5t62 -123.5q0 -55 -33.5 -94.5t-92.5 -53.5q66 -15 105 -58.5t39 -103.5q0 -84 -70 -138t-176 -54z" />
<glyph unicode="e&#x2f;i" horiz-adv-x="492" d="M260 -12q-97 0 -164 49.5t-76 122.5l156 28q1 -34 23 -55t57 -21q30 0 48 14.5t18 37.5q0 24 -19.5 38t-54.5 14h-28v78h32q27 0 44.5 13t17.5 35t-17.5 36t-44.5 14q-33 0 -52.5 -20.5t-19.5 -55.5l-148 32q7 72 69 118t151 46q86 0 142 -40.5t56 -103.5 q0 -38 -23 -67.5t-61 -43.5q45 -11 72.5 -44.5t27.5 -78.5q0 -67 -58 -106.5t-148 -39.5z" />
<glyph unicode="tt" horiz-adv-x="680" d="M352 4q-50 -18 -98.5 -16t-87 18t-62.5 54t-24 92v224h-68v124h28q22 0 35 14.5t13 37.5v88h132v-140h136q22 0 35 14.5t13 37.5v88h132v-140h120v-124h-120v-196q0 -43 33 -58t75 2l24 -120q-50 -18 -98.5 -16t-87 18t-62.5 54t-24 92v224h-176v-196q0 -43 33 -58t75 2z " />
<glyph unicode="ttt" horiz-adv-x="984" d="M352 4q-50 -18 -98.5 -16t-87 18t-62.5 54t-24 92v224h-68v124h28q22 0 35 14.5t13 37.5v88h132v-140h136q22 0 35 14.5t13 37.5v88h132v-140h124q22 0 35 14.5t13 37.5v88h132v-140h120v-124h-120v-196q0 -43 33 -58t75 2l24 -120q-50 -18 -98.5 -16t-87 18t-62.5 54 t-24 92v224h-164v-196q0 -43 33 -58t75 2l24 -120q-50 -18 -98.5 -16t-87 18t-62.5 54t-24 92v224h-176v-196q0 -43 33 -58t75 2z" />
<glyph horiz-adv-x="0" />
<glyph horiz-adv-x="333" />
<glyph unicode=" "  horiz-adv-x="200" />
<glyph unicode="&#x09;" horiz-adv-x="200" />
<glyph unicode="&#xa0;" horiz-adv-x="200" />
<glyph unicode="!" horiz-adv-x="236" d="M66 224l-20 456h148l-20 -456h-108zM32 80q0 38 24.5 63t61.5 25t61.5 -25t24.5 -63t-24.5 -63t-61.5 -25t-61.5 25t-24.5 63z" />
<glyph unicode="&#x22;" horiz-adv-x="428" d="M34 468q16 -6 41 -1.5t37 21.5q-36 0 -59 23.5t-23 60.5t23.5 61.5t59.5 24.5q42 0 67.5 -33.5t25.5 -86.5q0 -80 -54 -118.5t-122 -24.5zM230 395l4 73q16 -6 41 -1.5t37 21.5q-36 0 -59 23.5t-23 60.5t23.5 61.5t59.5 24.5q42 0 67.5 -33.5t25.5 -86.5 q0 -80 -54 -118.5t-122 -24.5z" />
<glyph unicode="#" horiz-adv-x="612" d="M109 -32v144h-73v118h73v134h-73v116h73v138h144v-138h106v138h144v-138h73v-116h-73v-134h73v-118h-73v-144h-144v144h-106v-144h-144zM253 230h106v134h-106v-134z" />
<glyph unicode="$" horiz-adv-x="596" d="M250 -108v100q-100 14 -163.5 69t-66.5 132l172 36q5 -67 58 -94v163q-46 17 -74 30t-61.5 35.5t-50 52.5t-16.5 68q0 71 55 119t147 57v90h96v-92q88 -13 145.5 -60t64.5 -114l-166 -40q-3 47 -44 73v-145q31 -10 46 -15t43.5 -16.5t43.5 -21t36 -24.5t31 -31t18 -37.5 t8 -46.5q0 -78 -62 -130t-164 -60v-98h-96zM200 470q0 -35 50 -62v121q-50 -15 -50 -59zM346 123q66 11 66 61q0 42 -66 76v-137z" />
<glyph unicode="%" horiz-adv-x="784" d="M178 334q-68 0 -112 45t-44 115t44 115t112 45t112 -45t44 -115t-44 -115t-112 -45zM104 40l478 630l74 -60l-476 -630zM124 495q0 -25 15.5 -41.5t38.5 -16.5t38.5 16.5t15.5 41.5t-15.5 41.5t-38.5 16.5t-38.5 -16.5t-15.5 -41.5zM438 156q0 70 44 115t112 45t112 -45 t44 -115t-44 -115t-112 -45t-112 45t-44 115zM540 157q0 -25 15.5 -41.5t38.5 -16.5t38.5 16.5t15.5 41.5t-15.5 41.5t-38.5 16.5t-38.5 -16.5t-15.5 -41.5z" />
<glyph unicode="&#x26;" horiz-adv-x="648" d="M292 -12q-110 0 -181 55.5t-71 140.5q0 54 33 96.5t91 63.5q-92 48 -92 136q0 79 63 130.5t161 51.5q50 0 96 -18l-40 -118q-24 10 -52 10q-38 0 -63 -21.5t-25 -54.5t22.5 -54.5t57.5 -21.5h56q23 0 38.5 17.5t15.5 44.5v34l142 24v-120h80v-76h-80v-124 q0 -85 -71 -140.5t-181 -55.5zM192 218q0 -39 29 -64.5t73 -25.5t73 26t29 66v88h-104q-43 0 -71.5 -25.5t-28.5 -64.5z" />
<glyph unicode="'" horiz-adv-x="228" d="M34 468q16 -6 41 -1.5t37 21.5q-36 0 -59 23.5t-23 60.5t23.5 61.5t59.5 24.5q42 0 67.5 -33.5t25.5 -86.5q0 -80 -54 -118.5t-122 -24.5z" />
<glyph unicode="(" horiz-adv-x="324" d="M158 -220q-118 209 -118 466q0 256 116 462l136 -60q-120 -185 -120 -404q0 -217 122 -404z" />
<glyph unicode=")" horiz-adv-x="324" d="M30 -160q122 187 122 404q0 219 -120 404l136 60q116 -206 116 -462q0 -257 -118 -466z" />
<glyph unicode="*" horiz-adv-x="372" d="M128 368l24 98l-72 -70l-56 100l97 28l-97 28l56 100l72 -70l-24 98h116l-24 -98l72 70l56 -100l-97 -28l97 -28l-56 -100l-72 70l24 -98h-116z" />
<glyph unicode="+" d="M231 90v160h-151v140h151v156h138v-156h151v-140h-151v-160h-138z" />
<glyph unicode="," horiz-adv-x="248" d="M36 -22q16 -6 41 -1.5t37 21.5q-36 0 -59 23.5t-23 60.5t23.5 61.5t59.5 24.5q42 0 67.5 -33.5t25.5 -86.5q0 -80 -54 -118.5t-122 -24.5z" />
<glyph unicode="-" horiz-adv-x="404" d="M20 200v112h364v-112h-364z" />
<glyph unicode="." horiz-adv-x="244" d="M118 -8q-37 0 -61.5 25t-24.5 63t24.5 63t61.5 25t61.5 -25t24.5 -63t-24.5 -63t-61.5 -25z" />
<glyph unicode="/" horiz-adv-x="308" d="M128 -212l-140 32l182 872l138 -28z" />
<glyph unicode="0" horiz-adv-x="628" d="M314 -12q-123 0 -202.5 95t-79.5 242t79.5 242t202.5 95t202.5 -95t79.5 -242t-79.5 -242t-202.5 -95zM188 327q0 -88 34.5 -141.5t91.5 -53.5t91.5 53.5t34.5 141.5t-34.5 141.5t-91.5 53.5t-91.5 -53.5t-34.5 -141.5z" />
<glyph unicode="1" horiz-adv-x="336" d="M138 0v380h-124v136h40q40 0 64 24t24 64v46h144v-650h-148z" />
<glyph unicode="2" horiz-adv-x="512" d="M24 32q0 101 49 168t159 122q96 48 96 122q0 36 -20 59t-52 23q-34 0 -57 -26t-23 -64l-152 12q3 94 69 154t167 60q96 0 158 -54.5t62 -139.5q0 -124 -152 -200q-109 -55 -136 -124h284v-144h-452v32z" />
<glyph unicode="3" horiz-adv-x="560" d="M280 -12q-109 0 -178.5 62t-69.5 158l154 24q-3 -45 23.5 -74.5t70.5 -29.5q42 0 69 29t27 73q0 52 -36 81t-84 17l-48 64l164 118h-308v140h440v-154l-140 -101q73 -8 118.5 -60.5t45.5 -130.5q0 -95 -69.5 -155.5t-178.5 -60.5z" />
<glyph unicode="4" horiz-adv-x="552" d="M20 272q114 114 114 336v42h156v-22q0 -262 -150 -368h186v224l142 32v-256h76v-132h-76v-128h-142v128h-306v144z" />
<glyph unicode="5" horiz-adv-x="568" d="M292 -12q-112 0 -184 64t-72 164l160 16q-3 -46 22.5 -75t67.5 -29t69 31.5t27 80.5t-27 80.5t-69 31.5q-30 0 -54 -14.5t-32 -37.5l-132 32l28 318h408v-138h-316l-6 -115q54 39 134 39q98 0 161 -62t63 -158q0 -100 -69.5 -164t-178.5 -64z" />
<glyph unicode="6" horiz-adv-x="576" d="M308 -12q-122 0 -197 89.5t-75 234.5q0 154 80.5 252t207.5 98q84 0 143.5 -45.5t68.5 -116.5l-140 -32q-9 32 -35.5 50t-60.5 18q-53 0 -88.5 -50t-39.5 -124q51 62 156 62q95 0 155.5 -60.5t60.5 -155.5q0 -97 -66 -158.5t-170 -61.5zM200 236q0 -47 27 -77.5t69 -30.5 t69 30.5t27 77.5t-27 77.5t-69 30.5t-69 -30.5t-27 -77.5z" />
<glyph unicode="7" horiz-adv-x="484" d="M100 0q0 163 65.5 289t206.5 223h-360v138h468v-146q-208 -184 -208 -492v-12h-172z" />
<glyph unicode="8" horiz-adv-x="584" d="M292 -12q-110 0 -181 55.5t-71 140.5q0 54 33 96.5t91 63.5q-96 50 -96 136q0 77 64 129.5t160 52.5t160 -52.5t64 -129.5q0 -86 -96 -136q58 -21 91 -63.5t33 -96.5q0 -85 -71 -140.5t-181 -55.5zM192 212q0 -42 27 -67t73 -25t73 25t27 67t-27 67t-73 25t-73 -25 t-27 -67zM212 462q0 -34 21.5 -54t58.5 -20t58.5 20t21.5 54t-21.5 54t-58.5 20t-58.5 -20t-21.5 -54z" />
<glyph unicode="9" horiz-adv-x="560" d="M248 -12q-85 0 -146 49.5t-70 126.5l148 32q3 -30 28 -49t58 -19q51 0 86.5 44t40.5 114q-55 -50 -141 -50q-95 0 -155.5 59.5t-60.5 152.5q0 94 64.5 154t163.5 60q116 0 188 -90.5t72 -235.5q0 -151 -77 -249.5t-199 -98.5zM184 428q0 -47 26 -77.5t66 -30.5t66 30.5 t26 77.5t-26 77.5t-66 30.5t-66 -30.5t-26 -77.5z" />
<glyph unicode=":" horiz-adv-x="252" d="M126 304q-37 0 -61.5 25t-24.5 63t24.5 63t61.5 25t61.5 -25t24.5 -63t-24.5 -63t-61.5 -25zM40 80q0 38 24.5 63t61.5 25t61.5 -25t24.5 -63t-24.5 -63t-61.5 -25t-61.5 25t-24.5 63z" />
<glyph unicode=";" horiz-adv-x="256" d="M126 304q-37 0 -61.5 25t-24.5 63t24.5 63t61.5 25t61.5 -25t24.5 -63t-24.5 -63t-61.5 -25zM40 -95l4 73q16 -6 41 -1.5t37 21.5q-36 0 -59 23.5t-23 60.5t23.5 61.5t59.5 24.5q42 0 67.5 -33.5t25.5 -86.5q0 -80 -54 -118.5t-122 -24.5z" />
<glyph unicode="&#x3c;" d="M476 114l-396 136v136l394 146l32 -144l-286 -64l288 -64z" />
<glyph unicode="=" d="M92 352v136h416v-136h-416zM92 152v138h416v-138h-416z" />
<glyph unicode="&#x3e;" d="M124 114l-32 146l288 64l-286 64l32 144l394 -146v-136z" />
<glyph unicode="?" horiz-adv-x="484" d="M168 222q0 36 15 66t36 50t42 39t36 44t15 55q0 36 -18.5 58t-49.5 22q-33 0 -54.5 -25.5t-21.5 -64.5l-156 16q6 93 72 151.5t168 58.5q98 0 157 -53.5t59 -142.5q0 -47 -18 -82t-44.5 -56.5t-54 -40t-50.5 -44t-29 -57.5h-104v6zM140 80q0 38 24.5 63t61.5 25t61.5 -25 t24.5 -63t-24.5 -63t-61.5 -25t-61.5 25t-24.5 63z" />
<glyph unicode="@" horiz-adv-x="760" d="M384 -56q-156 0 -256 102t-100 259t97.5 259t250.5 102q155 0 255.5 -97.5t100.5 -252.5q0 -96 -46.5 -158t-117.5 -62q-78 0 -108 61q-43 -57 -112 -57q-71 0 -117.5 55.5t-46.5 140.5q0 87 46.5 143.5t117.5 56.5q66 0 109 -52l17 44h74v-280q0 -12 7.5 -20t18.5 -8 q25 0 41.5 37t16.5 95q0 115 -71 189.5t-181 74.5q-108 0 -178 -76.5t-70 -193.5q0 -116 70 -192t178 -76q89 0 148 46l52 -84q-81 -56 -196 -56zM312 300q0 -32 17 -53t43 -21t43.5 21t17.5 53q0 31 -17.5 52t-43.5 21t-43 -20.5t-17 -52.5z" />
<glyph unicode="A" horiz-adv-x="648" d="M4 0l230 650h180l230 -650h-160l-48 148h-224l-46 -148h-162zM245 252h157l-80 248z" />
<glyph unicode="B" d="M50 0v650h334q71 0 116.5 -45.5t45.5 -116.5q0 -53 -30 -93t-80 -55q63 -12 100.5 -56.5t37.5 -107.5q0 -77 -49 -126.5t-125 -49.5h-350zM198 132h150q32 0 53 21t21 53t-20.5 53t-51.5 21h-152v-148zM198 384h132q30 0 49 19t19 49t-18.5 49t-47.5 19h-134v-136z" />
<glyph unicode="C" horiz-adv-x="662" d="M344 -12q-139 0 -227.5 94.5t-88.5 242.5t89 242.5t227 94.5q115 0 194 -68t88 -166l-144 -36q-9 60 -45.5 95t-90.5 35q-70 0 -114 -55.5t-44 -141.5t44 -139.5t114 -53.5q57 0 96.5 35.5t45.5 92.5l146 -64q-21 -93 -101.5 -150.5t-188.5 -57.5z" />
<glyph unicode="D" horiz-adv-x="650" d="M50 0v650h248q142 0 233 -91.5t91 -233.5q0 -141 -88.5 -233t-223.5 -92h-260zM198 136h104q71 0 117.5 53.5t46.5 136.5t-48.5 136.5t-123.5 53.5h-96v-380z" />
<glyph unicode="E" horiz-adv-x="554" d="M50 0v650h466v-134h-318v-132h260v-104h-260v-144h328v-136h-476z" />
<glyph unicode="F" horiz-adv-x="512" d="M50 0v650h450v-136h-302v-156h258v-108h-258v-250h-148z" />
<glyph unicode="G" horiz-adv-x="700" d="M328 -12q-131 0 -215.5 95t-84.5 241q0 149 90.5 243.5t229.5 94.5q105 0 183.5 -57.5t96.5 -148.5l-146 -52q-9 53 -47 86.5t-91 33.5q-70 0 -115 -55t-45 -141t47 -143t119 -57q57 0 97 36t45 92h-214v104h354l32 -360h-92l-30 127q-18 -63 -76.5 -101t-137.5 -38z" />
<glyph unicode="H" horiz-adv-x="652" d="M454 0v272h-256v-272h-148v650h148v-258h256v258h148v-650h-148z" />
<glyph unicode="I" horiz-adv-x="248" d="M50 0v650h148v-650h-148z" />
<glyph unicode="J" horiz-adv-x="576" d="M288 -12q-109 0 -178.5 68.5t-69.5 175.5v124h148v-124q0 -44 27 -73t69 -29q44 0 72 30t28 76v414h148v-414q0 -109 -68.5 -178.5t-175.5 -69.5z" />
<glyph unicode="K" horiz-adv-x="618" d="M434 0l-157 272l-79 -94v-178h-148v650h148v-278l200 278h196l-229 -273l249 -377h-180z" />
<glyph unicode="L" horiz-adv-x="504" d="M50 0v650h148v-508h300v-142h-448z" />
<glyph unicode="M" horiz-adv-x="788" d="M50 0v650h202l146 -514l144 514h196v-650h-148v504l-141 -504h-106l-145 504v-504h-148z" />
<glyph unicode="N" horiz-adv-x="648" d="M50 0v650h168l232 -440v440h148v-650h-164l-236 436v-436h-148z" />
<glyph unicode="O" horiz-adv-x="704" d="M352 -12q-142 0 -233 94.5t-91 242.5t91 242.5t233 94.5t233 -94.5t91 -242.5t-91 -242.5t-233 -94.5zM184 327q0 -85 47 -140t121 -55t121 55t47 140t-47 140t-121 55t-121 -55t-47 -140z" />
<glyph unicode="P" horiz-adv-x="588" d="M50 0v650h310q94 0 154 -60.5t60 -155.5q0 -96 -62 -157t-160 -61h-154v-216h-148zM198 332h138q36 0 59 26t23 66t-23 66t-59 26h-138v-184z" />
<glyph unicode="Q" horiz-adv-x="704" d="M356 -12q-144 0 -236 94t-92 241q0 149 91.5 244t234.5 95q142 0 232 -95.5t90 -245.5q0 -143 -83 -235l71 -90l-92 -72l-66 97q-69 -33 -150 -33zM180 323q0 -84 49.5 -137.5t126.5 -53.5q33 0 61 11l-59 77l-74 100l84 68l130 -176q26 46 26 109q0 89 -47.5 145 t-122.5 56q-77 0 -125.5 -55.5t-48.5 -143.5z" />
<glyph unicode="R" horiz-adv-x="620" d="M50 0v650h328q89 0 146.5 -58.5t57.5 -149.5q0 -62 -30.5 -110.5t-84.5 -73.5l127 -258h-176l-86 236h-134v-236h-148zM198 340h142q38 0 62 24.5t24 63.5t-23 63.5t-59 24.5h-146v-176z" />
<glyph unicode="S" horiz-adv-x="596" d="M308 -12q-121 0 -203 58t-85 147l172 36q3 -49 36 -79t88 -30q40 0 68 16.5t28 47.5q0 34 -37.5 59t-91 43.5t-107 40.5t-91 62t-37.5 95q0 78 66.5 128t173.5 50q110 0 184.5 -50t83.5 -128l-166 -40q-3 40 -32.5 65t-73.5 25q-37 0 -60.5 -18t-23.5 -46q0 -27 27.5 -48 t69 -33.5t89.5 -30t89.5 -37t69 -56t27.5 -85.5q0 -85 -74 -138.5t-190 -53.5z" />
<glyph unicode="T" horiz-adv-x="564" d="M208 0v510h-206v140h560v-140h-206v-510h-148z" />
<glyph unicode="U" horiz-adv-x="628" d="M314 -12q-119 0 -194.5 77.5t-75.5 198.5v386h148v-378q0 -61 34.5 -100.5t87.5 -39.5t87.5 39.5t34.5 100.5v378h148v-386q0 -121 -75.5 -198.5t-194.5 -77.5z" />
<glyph unicode="V" horiz-adv-x="616" d="M212 0l-210 650h164l146 -508l142 508h160l-210 -650h-192z" />
<glyph unicode="W" horiz-adv-x="780" d="M102 0l-68 650h156l46 -490l94 488h122l94 -488l46 490h152l-72 -650h-178l-104 500l-102 -500h-186z" />
<glyph unicode="X" horiz-adv-x="624" d="M4 0l226 326l-222 324h192l112 -202l104 202h188l-210 -318l226 -332h-194l-114 208l-116 -208h-192z" />
<glyph unicode="Y" d="M234 0v192l-234 458h178l132 -314l116 314h174l-218 -458v-192h-148z" />
<glyph unicode="Z" horiz-adv-x="568" d="M32 0v138l342 372h-334v140h490v-136l-338 -372h344v-142h-504z" />
<glyph unicode="[" horiz-adv-x="332" d="M50 -200v880h278v-116h-134v-646h136v-118h-280z" />
<glyph unicode="\" horiz-adv-x="308" d="M180 -212l-180 876l140 28l180 -872z" />
<glyph unicode="]" horiz-adv-x="332" d="M282 -200h-280v118h136v646h-134v116h278v-880z" />
<glyph unicode="^" horiz-adv-x="400" d="M12 346l124 304h128l124 -304l-140 -26l-48 204l-48 -204z" />
<glyph unicode="_" horiz-adv-x="500" d="M0 -164v136h500v-136h-500z" />
<glyph unicode="`" d="M240 552l-100 158l180 6l48 -158z" />
<glyph unicode="a" horiz-adv-x="512" d="M190 -12q-71 0 -117.5 42t-46.5 106q0 48 34 86.5t86 49.5l164 34q18 3 18 18q0 26 -19.5 43t-50.5 17q-30 0 -51.5 -18t-24.5 -46l-136 48q17 63 75 103.5t131 40.5q94 0 155 -53t61 -135v-224l2 -100h-110l-22 58q-52 -70 -148 -70zM174 164q0 -21 15 -33.5t41 -12.5 q41 0 69.5 30.5t28.5 79.5v9q-13 -5 -34 -9l-76 -16q-44 -9 -44 -48z" />
<glyph unicode="b" horiz-adv-x="578" d="M342 -12q-98 0 -158 81l-26 -69h-108v680h140v-240q59 72 150 72q93 0 152.5 -73t59.5 -187q0 -115 -59 -189.5t-151 -74.5zM190 251q0 -55 31 -91t79 -36t79 36t31 91t-31 91t-79 36t-79 -36t-31 -91z" />
<glyph unicode="c" horiz-adv-x="532" d="M276 -12q-110 0 -180 73t-70 187q0 116 70 190t180 74q89 0 152 -50.5t72 -129.5l-132 -38q-9 40 -34 63t-60 23q-45 0 -73.5 -36.5t-28.5 -93.5q0 -56 29.5 -92t74.5 -36q37 0 64.5 25.5t31.5 66.5l136 -42q-15 -86 -78.5 -135t-153.5 -49z" />
<glyph unicode="d" horiz-adv-x="580" d="M246 -12q-97 0 -158.5 73t-61.5 187q0 116 61.5 190t158.5 74q85 0 144 -65v233h140v-580l2 -100h-110l-24 63q-59 -75 -152 -75zM170 251q0 -55 31 -91t79 -36t79 36t31 91t-31 91t-79 36t-79 -36t-31 -91z" />
<glyph unicode="e" horiz-adv-x="542" d="M280 -12q-112 0 -183 73.5t-71 188.5q0 114 70 188t178 74q120 0 187 -89.5t53 -206.5h-342q8 -44 37.5 -70t70.5 -26q31 0 55 15t33 41l136 -52q-21 -61 -82.5 -98.5t-141.5 -37.5zM173 296h197q-6 38 -33.5 62t-64.5 24q-36 0 -62 -23.5t-37 -62.5z" />
<glyph unicode="f" horiz-adv-x="378" d="M88 512q0 59 29.5 101.5t72.5 60.5t93.5 16t92.5 -26l-36 -124q-36 22 -74 10t-38 -50v-38h118v-124h-118v-338h-140v338h-76v124h76v50z" />
<glyph unicode="g" horiz-adv-x="572" d="M276 -212q-93 0 -160 48t-80 126l148 38q6 -39 34 -61.5t68 -22.5q46 0 74 29t28 75v75q-59 -67 -152 -67t-152.5 68t-59.5 174t59 174t151 68q100 0 161 -77l25 65h104v-460q0 -111 -69.5 -181.5t-178.5 -70.5zM172 246q0 -57 30.5 -93.5t77.5 -36.5t77.5 36.5 t30.5 93.5t-30.5 93.5t-77.5 36.5t-77.5 -36.5t-30.5 -93.5z" />
<glyph unicode="h" horiz-adv-x="560" d="M50 0v680h140v-239q45 71 142 71q80 0 132 -57.5t52 -146.5v-308h-140v280q0 42 -25 69t-65 27q-42 0 -69 -29t-27 -75v-272h-140z" />
<glyph unicode="i" horiz-adv-x="236" d="M48 500h140v-500h-140v500zM36 632q0 37 23 60.5t59 23.5t59 -23.5t23 -60.5t-23 -60.5t-59 -23.5t-59 23.5t-23 60.5z" />
<glyph unicode="j" horiz-adv-x="248" d="M-12 -96q32 6 52 29.5t20 54.5v512h140v-556q0 -66 -42.5 -112.5t-109.5 -55.5zM48 632q0 37 23 60.5t59 23.5t59 -23.5t23 -60.5t-23 -60.5t-59 -23.5t-59 23.5t-23 60.5z" />
<glyph unicode="k" horiz-adv-x="542" d="M370 0l-121 207l-59 -62v-145h-140v680h140v-357l156 177h180l-185 -195l201 -305h-172z" />
<glyph unicode="l" horiz-adv-x="240" d="M50 0v680h140v-680h-140z" />
<glyph unicode="m" horiz-adv-x="820" d="M48 0v500h108l26 -70q19 37 56.5 59.5t81.5 22.5q46 0 84 -22.5t57 -60.5q20 38 60.5 60.5t86.5 22.5q74 0 121 -54t47 -138v-320h-140v292q0 37 -21 60.5t-53 23.5q-34 0 -56 -27t-22 -69v-280h-138v288q0 38 -21.5 63t-54.5 25q-36 0 -59 -28t-23 -72v-276h-140z" />
<glyph unicode="n" horiz-adv-x="558" d="M48 0v500h106l25 -78q20 40 62 65t93 25q79 0 129.5 -57.5t50.5 -146.5v-308h-140v280q0 42 -25 69t-65 27q-42 0 -69 -29t-27 -75v-272h-140z" />
<glyph unicode="o" horiz-adv-x="560" d="M280 -12q-112 0 -183 73.5t-71 188.5t71 188.5t183 73.5t183 -73.5t71 -188.5t-71 -188.5t-183 -73.5zM170 251q0 -57 31 -93t79 -36t79 36t31 93t-31 93t-79 36t-79 -36t-31 -93z" />
<glyph unicode="p" horiz-adv-x="576" d="M340 -12q-94 0 -152 74v-262h-140v700h108l26 -68q59 80 156 80q93 0 152.5 -73t59.5 -187q0 -115 -59 -189.5t-151 -74.5zM188 251q0 -55 31 -91t79 -36t79 36t31 91t-31 91t-79 36t-79 -36t-31 -91z" />
<glyph unicode="q" horiz-adv-x="582" d="M248 -12q-95 0 -158.5 74.5t-63.5 185.5q0 113 63.5 188.5t158.5 75.5q96 0 153 -77l25 65h108v-700h-140v256q-57 -68 -146 -68zM170 251q0 -55 31 -91t79 -36t79 36t31 91t-31 91t-79 36t-79 -36t-31 -91z" />
<glyph unicode="r" horiz-adv-x="364" d="M48 0v500h108l24 -63q19 48 71.5 67t104.5 -4l-18 -156q-57 29 -103.5 6.5t-46.5 -86.5v-264h-140z" />
<glyph unicode="s" horiz-adv-x="488" d="M252 -12q-96 0 -161.5 45t-70.5 115l164 34q2 -35 23.5 -55.5t56.5 -20.5q26 0 41 12.5t15 33.5q0 25 -28.5 42t-69 29.5t-81 28t-69 46t-28.5 74.5q0 63 55 101.5t143 38.5q92 0 151.5 -40.5t62.5 -103.5l-156 -32q0 28 -18 45t-48 17q-23 0 -36.5 -10.5t-13.5 -27.5 q0 -24 29.5 -40t71 -27.5t83 -26.5t71 -46t29.5 -76q0 -68 -60.5 -112t-155.5 -44z" />
<glyph unicode="t" horiz-adv-x="364" d="M352 4q-50 -18 -98.5 -16t-87 18t-62.5 54t-24 92v224h-68v124h28q22 0 35 14.5t13 37.5v88h132v-140h120v-124h-120v-196q0 -43 33 -58t75 2z" />
<glyph unicode="u" horiz-adv-x="550" d="M224 -12q-79 0 -129.5 56t-50.5 144v312h140v-280q0 -41 25 -67.5t63 -26.5q39 0 64.5 29t25.5 73v272h140v-400l2 -100h-110l-28 70q-18 -37 -56.5 -59.5t-85.5 -22.5z" />
<glyph unicode="v" horiz-adv-x="524" d="M179 0l-179 500h156l111 -376l105 376h152l-173 -500h-172z" />
<glyph unicode="w" horiz-adv-x="664" d="M96 0l-76 500h148l48 -368l60 366h112l62 -366l52 368h142l-82 -500h-160l-70 368l-68 -368h-168z" />
<glyph unicode="x" horiz-adv-x="528" d="M0 0l184 254l-180 246h182l78 -140l74 140h178l-172 -246l184 -254h-184l-82 148l-78 -148h-184z" />
<glyph unicode="y" horiz-adv-x="508" d="M78 -84q33 0 62 18t42 46l16 36l-198 484h156l106 -332l92 332h154l-210 -572q-24 -64 -64 -101t-90 -39z" />
<glyph unicode="z" horiz-adv-x="476" d="M28 0v136l272 226h-260v138h400v-132l-268 -228h276v-140h-420z" />
<glyph unicode="{" horiz-adv-x="334" d="M224 -200q-58 0 -95 42.5t-37 107.5v146q0 34 -19.5 57t-48.5 23h-16v136h16q29 0 48.5 23t19.5 57v136q0 66 37 109t93 43h108v-116h-38q-28 0 -46 -21.5t-18 -54.5v-128q0 -46 -25 -77t-63 -37q37 -5 62.5 -36t25.5 -78v-138q0 -33 18 -54.5t46 -21.5h40v-118h-108z " />
<glyph unicode="|" horiz-adv-x="244" d="M50 -200v880h144v-880h-144z" />
<glyph unicode="}" horiz-adv-x="334" d="M110 -200h-108v118h40q28 0 46 21.5t18 54.5v138q0 47 25.5 78t62.5 36q-38 6 -63 37t-25 77v128q0 33 -18 54.5t-46 21.5h-38v116h108q56 0 93 -43t37 -109v-136q0 -34 19.5 -57t48.5 -23h16v-136h-16q-29 0 -48.5 -23t-19.5 -57v-146q0 -65 -37 -107.5t-95 -42.5z" />
<glyph unicode="~" d="M398 216q-29 0 -55 16t-47 31.5t-37 15.5q-17 0 -28 -14t-11 -35v-6h-140v36q0 71 34.5 117.5t87.5 46.5q29 0 55 -16t47 -31.5t37 -15.5q17 0 28 14t11 35v6h140v-36q0 -71 -34.5 -117.5t-87.5 -46.5z" />
<glyph unicode="&#xa1;" horiz-adv-x="236" d="M44 -200l20 476h108l20 -476h-148zM32 420q0 38 24.5 63t61.5 25t61.5 -25t24.5 -63t-24.5 -63t-61.5 -25t-61.5 25t-24.5 63z" />
<glyph unicode="&#xa2;" horiz-adv-x="532" d="M138 -126l28 137q-65 30 -102.5 93t-37.5 144q0 115 68.5 188.5t175.5 75.5l30 144l96 -18l-29 -142q55 -20 90.5 -63.5t42.5 -100.5l-132 -38q-7 36 -30 59l-47 -230q32 5 54.5 29.5t26.5 61.5l136 -42q-15 -86 -78.5 -135t-153.5 -49h-13l-27 -132zM172 250 q0 -51 26 -87l44 211q-32 -12 -51 -45t-19 -79z" />
<glyph unicode="&#xa3;" horiz-adv-x="536" d="M44 144q42 8 67 37.5t27 70.5h-106v92h74q-1 2 -7 11.5t-8 12.5t-7 12t-7 13.5t-6 13t-5.5 15.5t-3.5 16t-3 18.5t-1 19.5q0 82 60.5 134t155.5 52q98 0 164 -59t72 -151l-152 -16q0 41 -22.5 67.5t-57.5 26.5q-34 0 -55 -25t-21 -65q0 -11 1.5 -21t5.5 -22l5.5 -16.5 t8 -19.5t7.5 -17h220l-36 -92h-166q-6 -75 -70 -116h334v-136h-468v144z" />
<glyph unicode="&#xa4;" d="M170 104l-84 82l69 66q-13 29 -13 67q0 35 13 68l-67 67l82 78l63 -66q29 13 65 13t67 -14l65 67l82 -78l-70 -69q12 -30 12 -66q0 -35 -12 -64l72 -69l-84 -82l-65 69q-31 -14 -67 -14t-65 13zM244 320q0 -25 15.5 -41.5t38.5 -16.5t38.5 16.5t15.5 41.5t-15.5 41.5 t-38.5 16.5t-38.5 -16.5t-15.5 -41.5z" />
<glyph unicode="&#xa5;" horiz-adv-x="612" d="M96 180v86h106l-196 384h178l132 -314l116 314h174l-183 -384h101v-86h-136v-24h138v-86h-138v-70h-148v70h-146v86h146v24h-144z" />
<glyph unicode="&#xa6;" horiz-adv-x="244" d="M50 -200v380h144v-380h-144zM50 316v364h144v-364h-144z" />
<glyph unicode="&#xa7;" horiz-adv-x="524" d="M272 -212q-105 0 -177.5 55t-74.5 138l150 34q2 -46 30 -73.5t76 -27.5q35 0 59.5 15t24.5 45q0 31 -32 53.5t-78 38.5t-92.5 35t-78.5 56.5t-32 90.5q0 77 67 128q-64 45 -64 120q0 73 55 119.5t147 46.5t159.5 -47.5t72.5 -118.5l-140 -34q-2 36 -27 58t-61 22 q-32 0 -53 -16t-21 -41q0 -30 32 -51t77.5 -36.5t91 -34.5t77.5 -56.5t32 -90.5q0 -76 -63 -122q71 -48 71 -126q0 -79 -63.5 -129.5t-164.5 -50.5zM178 244q0 -31 29.5 -50.5t88.5 -40.5q29 5 46.5 23.5t17.5 43.5q0 23 -18.5 41.5t-39 28t-61.5 25.5q-28 -5 -45.5 -24.5 t-17.5 -46.5z" />
<glyph unicode="&#xa8;" d="M398 552q-34 0 -56 22t-22 56t22 56t56 22t56 -22t22 -56t-22 -56t-56 -22zM124 630q0 34 22 56t56 22t56 -22t22 -56t-22 -56t-56 -22t-56 22t-22 56z" />
<glyph unicode="&#xa9;" horiz-adv-x="760" d="M380 -56q-153 0 -252.5 102t-99.5 259t99.5 259t252.5 102t252.5 -102t99.5 -259t-99.5 -259t-252.5 -102zM132 306q0 -116 69.5 -190t178.5 -74t178.5 74t69.5 190t-69.5 190t-178.5 74t-178.5 -74t-69.5 -190zM183 304q0 93 56 152.5t144 59.5q69 0 120.5 -38.5 t67.5 -103.5l-118 -34q-5 23 -24.5 38.5t-43.5 15.5q-31 0 -51.5 -24t-20.5 -62q0 -40 21 -66t53 -26q26 0 45.5 17t22.5 43l122 -34q-14 -69 -67 -109.5t-125 -40.5q-89 0 -145.5 59.5t-56.5 152.5z" />
<glyph unicode="&#xaa;" horiz-adv-x="328" d="M120 334q-43 0 -69.5 24.5t-26.5 61.5q0 33 20.5 57.5t51.5 30.5l97 20q11 3 11 12q0 14 -8.5 23t-21.5 9t-22.5 -10t-11.5 -26l-104 30q11 38 48.5 63t83.5 25q58 0 95 -34.5t37 -87.5v-190h-68l-22 40q-29 -48 -90 -48zM128 441q0 -25 30 -25q21 0 33.5 15t12.5 41v6 l-56 -12q-20 -5 -20 -25z" />
<glyph unicode="&#xab;" horiz-adv-x="572" d="M208 20l-188 231l188 233l96 -92l-126 -142l126 -138zM244 251l188 233l96 -92l-126 -142l126 -138l-96 -92z" />
<glyph unicode="&#xac;" d="M80 259v138h428v-294h-140v156h-288z" />
<glyph unicode="&#xad;" horiz-adv-x="404" d="M20 200v112h364v-112h-364z" />
<glyph unicode="&#xae;" horiz-adv-x="760" d="M380 -56q-153 0 -252.5 102t-99.5 259t99.5 259t252.5 102t252.5 -102t99.5 -259t-99.5 -259t-252.5 -102zM132 306q0 -116 70 -192t178 -76t178 76t70 192t-70 192t-178 76t-178 -76t-70 -192zM236 121v370h186q51 0 83.5 -34t32.5 -87q0 -70 -56 -103l58 -146h-110 l-36 130h-58v-130h-100zM336 333h72q10 0 17 8.5t7 22.5t-7 22.5t-17 8.5h-72v-62z" />
<glyph unicode="&#xaf;" d="M150 568v112h300v-112h-300z" />
<glyph unicode="&#xb0;" horiz-adv-x="356" d="M178 334q-68 0 -112 45t-44 115t44 115t112 45t112 -45t44 -115t-44 -115t-112 -45zM124 495q0 -25 15.5 -41.5t38.5 -16.5t38.5 16.5t15.5 41.5t-15.5 41.5t-38.5 16.5t-38.5 -16.5t-15.5 -41.5z" />
<glyph unicode="&#xb1;" d="M92 74v140h416v-140h-416zM94 328v138h137v108h138v-108h137v-138h-137v-82h-138v82h-137z" />
<glyph unicode="&#xb2;" horiz-adv-x="280" d="M24 366q0 30 14.5 55t35.5 41t42 30t35.5 29t14.5 31q0 12 -7.5 20t-18.5 8q-13 0 -21.5 -10t-8.5 -26l-90 4q3 50 38.5 82t87.5 32q49 0 81.5 -26t32.5 -68q0 -29 -17.5 -50t-38.5 -31.5t-42 -25t-26 -29.5h122v-86h-234v20z" />
<glyph unicode="&#xb3;" horiz-adv-x="288" d="M146 334q-56 0 -92 31t-36 79l84 16q0 -19 11.5 -30.5t30.5 -11.5q17 0 27.5 10.5t10.5 27.5q0 19 -12.5 29t-33.5 9l-18 30l64 46h-144v80h212v-86l-52 -36q31 -6 50.5 -30t19.5 -58q0 -46 -34.5 -76t-87.5 -30z" />
<glyph unicode="&#xb4;" d="M232 558l50 152h178l-102 -156z" />
<glyph unicode="&#xb5;" horiz-adv-x="554" d="M48 -200v700h140v-276q0 -43 23.5 -70.5t60.5 -27.5q41 0 67.5 32.5t26.5 81.5v260h140v-400l2 -100h-110l-23 69q-11 -38 -41 -59.5t-70 -21.5q-47 0 -76 29v-217h-140z" />
<glyph unicode="&#xb6;" horiz-adv-x="568" d="M238 -200v432q-98 0 -161 58.5t-63 149.5t60 150.5t152 59.5h104v-850h-92zM378 -200v850h140v-850h-140z" />
<glyph unicode="&#xb7;" horiz-adv-x="376" d="M188 188q-37 0 -61.5 25t-24.5 63t24.5 63t61.5 25t61.5 -25t24.5 -63t-24.5 -63t-61.5 -25z" />
<glyph unicode="&#xb8;" d="M230 -148q74 -11 74 20q0 21 -28 22l-28 2l20 132h66l-14 -66q43 -3 71.5 -33t28.5 -73q0 -59 -53.5 -83t-142.5 -9z" />
<glyph unicode="&#xb9;" horiz-adv-x="200" d="M72 338v174h-64v84h30q16 0 27 11.5t11 28.5v14h88v-312h-92z" />
<glyph unicode="&#xba;" horiz-adv-x="356" d="M178 334q-68 0 -112 45t-44 115t44 115t112 45t112 -45t44 -115t-44 -115t-112 -45zM124 495q0 -25 15.5 -41.5t38.5 -16.5t38.5 16.5t15.5 41.5t-15.5 41.5t-38.5 16.5t-38.5 -16.5t-15.5 -41.5z" />
<glyph unicode="&#xbb;" horiz-adv-x="572" d="M364 20l-96 92l126 138l-126 142l96 92l188 -233zM44 112l126 138l-126 142l96 92l188 -233l-188 -231z" />
<glyph unicode="&#xbc;" horiz-adv-x="672" d="M88 338v174h-64v84h30q16 0 27 11.5t11 28.5v14h88v-312h-92zM32 40l478 630l74 -60l-476 -630zM378 52v92q45 45 45 156v12h91v-8q0 -66 -12.5 -104t-41.5 -64h66v90l86 12v-102h32v-84h-32v-52h-86v52h-148z" />
<glyph unicode="&#xbd;" horiz-adv-x="668" d="M108 -20l-76 60l478 630l74 -60zM24 512v84h30q16 0 27 11.5t11 28.5v14h88v-312h-92v174h-64zM400 202q3 50 38.5 82t87.5 32q49 0 81.5 -26t32.5 -68q0 -29 -17.5 -50t-38.5 -31.5t-42 -25t-26 -29.5h122v-86h-234v20q0 30 14.5 55t35.5 41t42 30t35.5 29t14.5 31 q0 12 -7.5 20t-18.5 8q-13 0 -21.5 -10t-8.5 -26z" />
<glyph unicode="&#xbe;" horiz-adv-x="720" d="M156 334q-56 0 -92 31t-36 79l84 16q0 -19 11.5 -30.5t30.5 -11.5q17 0 27.5 10.5t10.5 27.5q0 19 -12.5 29t-33.5 9l-18 30l64 46h-144v80h212v-86l-52 -36q31 -6 50.5 -30t19.5 -58q0 -46 -34.5 -76t-87.5 -30zM78 40l478 630l74 -60l-476 -630zM426 52v92 q45 45 45 156v12h91v-8q0 -66 -12.5 -104t-41.5 -64h66v90l86 12v-102h32v-84h-32v-52h-86v52h-148z" />
<glyph unicode="&#xbf;" horiz-adv-x="484" d="M236 -212q-96 0 -158 55t-62 141q0 47 18 82.5t44.5 58.5t54 44t51 50t31.5 65h107q-1 -44 -17 -79t-38 -57t-43.5 -41.5t-36.5 -44.5t-15 -54q0 -35 19.5 -55.5t52.5 -20.5q34 0 54 25t20 67l158 -16q-7 -96 -74 -158t-166 -62zM172 420q0 38 24.5 63t61.5 25t61.5 -25 t24.5 -63t-24.5 -63t-61.5 -25t-61.5 25t-24.5 63z" />
<glyph unicode="&#xc0;" horiz-adv-x="648" d="M4 0l230 650h180l230 -650h-160l-48 148h-224l-46 -148h-162zM164 844l180 6l48 -158l-128 -6zM245 252h157l-80 248z" />
<glyph unicode="&#xc1;" horiz-adv-x="648" d="M4 0l230 650h180l230 -650h-160l-48 148h-224l-46 -148h-162zM245 252h157l-80 248zM256 692l50 152h178l-102 -156z" />
<glyph unicode="&#xc2;" horiz-adv-x="648" d="M4 0l230 650h180l230 -650h-160l-48 148h-224l-46 -148h-162zM140 690l112 152h144l112 -152l-142 -4l-42 88l-40 -88zM245 252h157l-80 248z" />
<glyph unicode="&#xc3;" horiz-adv-x="648" d="M4 0l230 650h180l230 -650h-160l-48 148h-224l-46 -148h-162zM153 698l1 20q3 58 29.5 92t66.5 34q26 0 56.5 -23t45.5 -23q16 0 26 12t10 30l107 -10l-1 -20q-3 -58 -29.5 -92t-66.5 -34q-26 0 -56.5 23t-45.5 23q-16 0 -26 -12t-10 -30zM245 252h157l-80 248z" />
<glyph unicode="&#xc4;" horiz-adv-x="648" d="M4 0l230 650h180l230 -650h-160l-48 148h-224l-46 -148h-162zM148 764q0 34 22 56t56 22t56 -22t22 -56t-22 -56t-56 -22t-56 22t-22 56zM245 252h157l-80 248zM344 764q0 34 22 56t56 22t56 -22t22 -56t-22 -56t-56 -22t-56 22t-22 56z" />
<glyph unicode="&#xc5;" horiz-adv-x="648" d="M4 0l230 650h180l230 -650h-160l-48 148h-224l-46 -148h-162zM208 793q0 50 33 82.5t83 32.5t83 -32.5t33 -82.5t-33 -82.5t-83 -32.5t-83 32.5t-33 82.5zM245 252h157l-80 248zM290 793q0 -16 9.5 -26t24.5 -10t24.5 10t9.5 26t-9.5 26.5t-24.5 10.5t-24.5 -10.5 t-9.5 -26.5z" />
<glyph unicode="&#xc6;" horiz-adv-x="932" d="M2 0l290 650h604v-132h-308v-135h256v-102h-256v-145h316v-136h-464v152h-211l-63 -152h-164zM272 256h168v262h-59z" />
<glyph unicode="&#xc7;" horiz-adv-x="662" d="M268 -148q74 -11 74 20q0 21 -28 22l-28 2l14 95q-121 15 -196.5 107t-75.5 227q0 148 89 242.5t227 94.5q115 0 194 -68t88 -166l-144 -36q-9 60 -45.5 95t-90.5 35q-70 0 -114 -55.5t-44 -141.5t44 -139.5t114 -53.5q57 0 96.5 35.5t45.5 92.5l146 -64 q-20 -88 -94.5 -145t-175.5 -62l-6 -27q43 -3 71.5 -33t28.5 -73q0 -59 -53.5 -83t-142.5 -9z" />
<glyph unicode="&#xc8;" horiz-adv-x="554" d="M50 0v650h466v-134h-318v-132h260v-104h-260v-144h328v-136h-476zM128 844l180 6l48 -158l-128 -6z" />
<glyph unicode="&#xc9;" horiz-adv-x="554" d="M50 0v650h466v-134h-318v-132h260v-104h-260v-144h328v-136h-476zM220 692l50 152h178l-102 -156z" />
<glyph unicode="&#xca;" horiz-adv-x="554" d="M50 0v650h466v-134h-318v-132h260v-104h-260v-144h328v-136h-476zM104 690l112 152h144l112 -152l-142 -4l-42 88l-40 -88z" />
<glyph unicode="&#xcb;" horiz-adv-x="554" d="M50 0v650h466v-134h-318v-132h260v-104h-260v-144h328v-136h-476zM112 764q0 34 22 56t56 22t56 -22t22 -56t-22 -56t-56 -22t-56 22t-22 56zM308 764q0 34 22 56t56 22t56 -22t22 -56t-22 -56t-56 -22t-56 22t-22 56z" />
<glyph unicode="&#xcc;" horiz-adv-x="248" d="M50 0v650h148v-650h-148zM-36 844l180 6l48 -158l-128 -6z" />
<glyph unicode="&#xcd;" horiz-adv-x="248" d="M50 0v650h148v-650h-148zM56 692l50 152h178l-102 -156z" />
<glyph unicode="&#xce;" horiz-adv-x="248" d="M50 0v650h148v-650h-148zM-60 690l112 152h144l112 -152l-142 -4l-42 88l-40 -88z" />
<glyph unicode="&#xcf;" horiz-adv-x="260" d="M222 692q-34 0 -56 22t-22 56t22 56t56 22t56 -22t22 -56t-22 -56t-56 -22zM-40 770q0 34 22 56t56 22t56 -22t22 -56t-22 -56t-56 -22t-56 22t-22 56zM56 0v650h148v-650h-148z" />
<glyph unicode="&#xd0;" horiz-adv-x="660" d="M4 276v104h56v270h248q142 0 233 -91.5t91 -233.5q0 -141 -88.5 -233t-223.5 -92h-260v276h-56zM208 136h104q71 0 117.5 53.5t46.5 136.5t-48.5 136.5t-123.5 53.5h-96v-136h150v-104h-150v-140z" />
<glyph unicode="&#xd1;" horiz-adv-x="648" d="M50 0v650h168l232 -440v440h148v-650h-164l-236 436v-436h-148zM151 698l1 20q3 58 29.5 92t66.5 34q26 0 56.5 -23t45.5 -23q16 0 26 12t10 30l107 -10l-1 -20q-3 -58 -29.5 -92t-66.5 -34q-26 0 -56.5 23t-45.5 23q-16 0 -26 -12t-10 -30z" />
<glyph unicode="&#xd2;" horiz-adv-x="704" d="M352 -12q-142 0 -233 94.5t-91 242.5t91 242.5t233 94.5t233 -94.5t91 -242.5t-91 -242.5t-233 -94.5zM184 327q0 -85 47 -140t121 -55t121 55t47 140t-47 140t-121 55t-121 -55t-47 -140zM192 844l180 6l48 -158l-128 -6z" />
<glyph unicode="&#xd3;" horiz-adv-x="704" d="M352 -12q-142 0 -233 94.5t-91 242.5t91 242.5t233 94.5t233 -94.5t91 -242.5t-91 -242.5t-233 -94.5zM184 327q0 -85 47 -140t121 -55t121 55t47 140t-47 140t-121 55t-121 -55t-47 -140zM284 692l50 152h178l-102 -156z" />
<glyph unicode="&#xd4;" horiz-adv-x="704" d="M352 -12q-142 0 -233 94.5t-91 242.5t91 242.5t233 94.5t233 -94.5t91 -242.5t-91 -242.5t-233 -94.5zM168 690l112 152h144l112 -152l-142 -4l-42 88l-40 -88zM184 327q0 -85 47 -140t121 -55t121 55t47 140t-47 140t-121 55t-121 -55t-47 -140z" />
<glyph unicode="&#xd5;" horiz-adv-x="704" d="M352 -12q-142 0 -233 94.5t-91 242.5t91 242.5t233 94.5t233 -94.5t91 -242.5t-91 -242.5t-233 -94.5zM181 698l1 20q3 58 29.5 92t66.5 34q26 0 56.5 -23t45.5 -23q16 0 26 12t10 30l107 -10l-1 -20q-3 -58 -29.5 -92t-66.5 -34q-26 0 -56.5 23t-45.5 23q-16 0 -26 -12 t-10 -30zM184 327q0 -85 47 -140t121 -55t121 55t47 140t-47 140t-121 55t-121 -55t-47 -140z" />
<glyph unicode="&#xd6;" horiz-adv-x="704" d="M352 -12q-142 0 -233 94.5t-91 242.5t91 242.5t233 94.5t233 -94.5t91 -242.5t-91 -242.5t-233 -94.5zM176 764q0 34 22 56t56 22t56 -22t22 -56t-22 -56t-56 -22t-56 22t-22 56zM184 327q0 -85 47 -140t121 -55t121 55t47 140t-47 140t-121 55t-121 -55t-47 -140z M372 764q0 34 22 56t56 22t56 -22t22 -56t-22 -56t-56 -22t-56 22t-22 56z" />
<glyph unicode="&#xd7;" d="M188 112l-96 96l113 112l-111 112l94 96l112 -112l112 112l94 -96l-111 -112l113 -112l-98 -96l-110 112z" />
<glyph unicode="&#xd8;" horiz-adv-x="704" d="M136 -32l-84 68l51 64q-75 91 -75 225q0 148 91 242.5t233 94.5q93 0 166 -42l52 64l82 -68l-52 -65q76 -92 76 -226q0 -148 -91 -242.5t-233 -94.5q-93 0 -166 42zM184 327q0 -56 21 -100l221 277q-33 18 -74 18q-74 0 -121 -55t-47 -140zM280 149q32 -17 72 -17 q74 0 121 55t47 140q0 55 -20 98z" />
<glyph unicode="&#xd9;" horiz-adv-x="628" d="M314 -12q-119 0 -194.5 77.5t-75.5 198.5v386h148v-378q0 -61 34.5 -100.5t87.5 -39.5t87.5 39.5t34.5 100.5v378h148v-386q0 -121 -75.5 -198.5t-194.5 -77.5zM156 844l180 6l48 -158l-128 -6z" />
<glyph unicode="&#xda;" horiz-adv-x="628" d="M314 -12q-119 0 -194.5 77.5t-75.5 198.5v386h148v-378q0 -61 34.5 -100.5t87.5 -39.5t87.5 39.5t34.5 100.5v378h148v-386q0 -121 -75.5 -198.5t-194.5 -77.5zM248 692l50 152h178l-102 -156z" />
<glyph unicode="&#xdb;" horiz-adv-x="628" d="M314 -12q-119 0 -194.5 77.5t-75.5 198.5v386h148v-378q0 -61 34.5 -100.5t87.5 -39.5t87.5 39.5t34.5 100.5v378h148v-386q0 -121 -75.5 -198.5t-194.5 -77.5zM132 690l112 152h144l112 -152l-142 -4l-42 88l-40 -88z" />
<glyph unicode="&#xdc;" horiz-adv-x="628" d="M314 -12q-119 0 -194.5 77.5t-75.5 198.5v386h148v-378q0 -61 34.5 -100.5t87.5 -39.5t87.5 39.5t34.5 100.5v378h148v-386q0 -121 -75.5 -198.5t-194.5 -77.5zM140 764q0 34 22 56t56 22t56 -22t22 -56t-22 -56t-56 -22t-56 22t-22 56zM336 764q0 34 22 56t56 22t56 -22 t22 -56t-22 -56t-56 -22t-56 22t-22 56z" />
<glyph unicode="&#xdd;" d="M234 0v192l-234 458h178l132 -314l116 314h174l-218 -458v-192h-148zM244 692l50 152h178l-102 -156z" />
<glyph unicode="&#xde;" horiz-adv-x="596" d="M50 0v650h148v-105h160q93 0 153.5 -60t60.5 -153t-62.5 -153t-159.5 -60h-152v-119h-148zM198 255h136q36 0 59 22t23 57t-23 57t-59 22h-136v-158z" />
<glyph unicode="&#xdf;" horiz-adv-x="576" d="M50 456q0 105 67.5 170.5t178.5 65.5q98 0 160 -49t62 -127q0 -55 -30.5 -96.5t-77.5 -57.5q59 -12 97.5 -62t38.5 -116q0 -73 -46 -122t-116.5 -65.5t-147.5 -2.5l6 137q60 -13 106 10t46 75q0 40 -29 66t-73 26h-18v96h16q35 0 57.5 22t22.5 56t-23 56t-59 22 q-43 0 -70.5 -29t-27.5 -75v-656h-140v656z" />
<glyph unicode="&#xe0;" horiz-adv-x="512" d="M190 -12q-71 0 -117.5 42t-46.5 106q0 48 34 86.5t86 49.5l164 34q18 3 18 18q0 26 -19.5 43t-50.5 17q-30 0 -51.5 -18t-24.5 -46l-136 48q17 63 75 103.5t131 40.5q94 0 155 -53t61 -135v-224l2 -100h-110l-22 58q-52 -70 -148 -70zM94 710l180 6l48 -158l-128 -6z M174 164q0 -21 15 -33.5t41 -12.5q41 0 69.5 30.5t28.5 79.5v9q-13 -5 -34 -9l-76 -16q-44 -9 -44 -48z" />
<glyph unicode="&#xe1;" horiz-adv-x="512" d="M190 -12q-71 0 -117.5 42t-46.5 106q0 48 34 86.5t86 49.5l164 34q18 3 18 18q0 26 -19.5 43t-50.5 17q-30 0 -51.5 -18t-24.5 -46l-136 48q17 63 75 103.5t131 40.5q94 0 155 -53t61 -135v-224l2 -100h-110l-22 58q-52 -70 -148 -70zM174 164q0 -21 15 -33.5t41 -12.5 q41 0 69.5 30.5t28.5 79.5v9q-13 -5 -34 -9l-76 -16q-44 -9 -44 -48zM186 558l50 152h178l-102 -156z" />
<glyph unicode="&#xe2;" horiz-adv-x="512" d="M190 -12q-71 0 -117.5 42t-46.5 106q0 48 34 86.5t86 49.5l164 34q18 3 18 18q0 26 -19.5 43t-50.5 17q-30 0 -51.5 -18t-24.5 -46l-136 48q17 63 75 103.5t131 40.5q94 0 155 -53t61 -135v-224l2 -100h-110l-22 58q-52 -70 -148 -70zM70 556l112 152h144l112 -152 l-142 -4l-42 88l-40 -88zM174 164q0 -21 15 -33.5t41 -12.5q41 0 69.5 30.5t28.5 79.5v9q-13 -5 -34 -9l-76 -16q-44 -9 -44 -48z" />
<glyph unicode="&#xe3;" horiz-adv-x="512" d="M190 -12q-71 0 -117.5 42t-46.5 106q0 48 34 86.5t86 49.5l164 34q18 3 18 18q0 26 -19.5 43t-50.5 17q-30 0 -51.5 -18t-24.5 -46l-136 48q17 63 75 103.5t131 40.5q94 0 155 -53t61 -135v-224l2 -100h-110l-22 58q-52 -70 -148 -70zM83 564l1 20q3 58 29.5 92t66.5 34 q26 0 56.5 -23t45.5 -23q16 0 26 12t10 30l107 -10l-1 -20q-3 -58 -29.5 -92t-66.5 -34q-26 0 -56.5 23t-45.5 23q-16 0 -26 -12t-10 -30zM174 164q0 -21 15 -33.5t41 -12.5q41 0 69.5 30.5t28.5 79.5v9q-13 -5 -34 -9l-76 -16q-44 -9 -44 -48z" />
<glyph unicode="&#xe4;" horiz-adv-x="512" d="M190 -12q-71 0 -117.5 42t-46.5 106q0 48 34 86.5t86 49.5l164 34q18 3 18 18q0 26 -19.5 43t-50.5 17q-30 0 -51.5 -18t-24.5 -46l-136 48q17 63 75 103.5t131 40.5q94 0 155 -53t61 -135v-224l2 -100h-110l-22 58q-52 -70 -148 -70zM78 630q0 34 22 56t56 22t56 -22 t22 -56t-22 -56t-56 -22t-56 22t-22 56zM174 164q0 -21 15 -33.5t41 -12.5q41 0 69.5 30.5t28.5 79.5v9q-13 -5 -34 -9l-76 -16q-44 -9 -44 -48zM274 630q0 34 22 56t56 22t56 -22t22 -56t-22 -56t-56 -22t-56 22t-22 56z" />
<glyph unicode="&#xe5;" horiz-adv-x="512" d="M190 -12q-71 0 -117.5 42t-46.5 106q0 48 34 86.5t86 49.5l164 34q18 3 18 18q0 26 -19.5 43t-50.5 17q-30 0 -51.5 -18t-24.5 -46l-136 48q17 63 75 103.5t131 40.5q94 0 155 -53t61 -135v-224l2 -100h-110l-22 58q-52 -70 -148 -70zM138 659q0 50 33 82.5t83 32.5 t83 -32.5t33 -82.5t-33 -82.5t-83 -32.5t-83 32.5t-33 82.5zM174 164q0 -21 15 -33.5t41 -12.5q41 0 69.5 30.5t28.5 79.5v9q-13 -5 -34 -9l-76 -16q-44 -9 -44 -48zM220 659q0 -16 9.5 -26t24.5 -10t24.5 10t9.5 26t-9.5 26.5t-24.5 10.5t-24.5 -10.5t-9.5 -26.5z" />
<glyph unicode="&#xe6;" horiz-adv-x="782" d="M540 -14q-49 0 -94 21t-72 57q-28 -35 -75.5 -55.5t-104.5 -20.5q-73 0 -120.5 40.5t-47.5 103.5q0 55 38.5 95.5t97.5 48.5l118 16q24 4 24 24v8q0 27 -18 43.5t-48 16.5t-49.5 -18t-22.5 -46l-136 48q17 63 73.5 103.5t128.5 40.5q100 0 160 -60q58 58 144 58 q105 0 168.5 -84t49.5 -206h-306q7 -48 32 -76t62 -28q28 0 48 16t26 42l136 -44q-24 -63 -84 -103.5t-128 -40.5zM162 164q0 -20 17 -33t43 -13q36 0 59 23t23 59v24l-94 -12q-21 -3 -34.5 -16.5t-13.5 -31.5zM450 292h164q-4 41 -26.5 64.5t-53.5 23.5t-53.5 -24 t-30.5 -64z" />
<glyph unicode="&#xe7;" horiz-adv-x="532" d="M198 -148q74 -11 74 20q0 21 -28 22l-28 2l14 96q-91 15 -147.5 85t-56.5 171q0 116 70 190t180 74q89 0 152 -50.5t72 -129.5l-132 -38q-9 40 -34 63t-60 23q-45 0 -73.5 -36.5t-28.5 -93.5q0 -56 29.5 -92t74.5 -36q37 0 64.5 25.5t31.5 66.5l136 -42 q-14 -81 -72.5 -129.5t-141.5 -53.5l-6 -27q43 -3 71.5 -33t28.5 -73q0 -59 -53.5 -83t-142.5 -9z" />
<glyph unicode="&#xe8;" horiz-adv-x="542" d="M280 -12q-112 0 -183 73.5t-71 188.5q0 114 70 188t178 74q120 0 187 -89.5t53 -206.5h-342q8 -44 37.5 -70t70.5 -26q31 0 55 15t33 41l136 -52q-21 -61 -82.5 -98.5t-141.5 -37.5zM114 710l180 6l48 -158l-128 -6zM173 296h197q-6 38 -33.5 62t-64.5 24 q-36 0 -62 -23.5t-37 -62.5z" />
<glyph unicode="&#xe9;" horiz-adv-x="542" d="M280 -12q-112 0 -183 73.5t-71 188.5q0 114 70 188t178 74q120 0 187 -89.5t53 -206.5h-342q8 -44 37.5 -70t70.5 -26q31 0 55 15t33 41l136 -52q-21 -61 -82.5 -98.5t-141.5 -37.5zM173 296h197q-6 38 -33.5 62t-64.5 24q-36 0 -62 -23.5t-37 -62.5zM206 558l50 152h178 l-102 -156z" />
<glyph unicode="&#xea;" horiz-adv-x="542" d="M280 -12q-112 0 -183 73.5t-71 188.5q0 114 70 188t178 74q120 0 187 -89.5t53 -206.5h-342q8 -44 37.5 -70t70.5 -26q31 0 55 15t33 41l136 -52q-21 -61 -82.5 -98.5t-141.5 -37.5zM90 556l112 152h144l112 -152l-142 -4l-42 88l-40 -88zM173 296h197q-6 38 -33.5 62 t-64.5 24q-36 0 -62 -23.5t-37 -62.5z" />
<glyph unicode="&#xeb;" horiz-adv-x="542" d="M280 -12q-112 0 -183 73.5t-71 188.5q0 114 70 188t178 74q120 0 187 -89.5t53 -206.5h-342q8 -44 37.5 -70t70.5 -26q31 0 55 15t33 41l136 -52q-21 -61 -82.5 -98.5t-141.5 -37.5zM98 630q0 34 22 56t56 22t56 -22t22 -56t-22 -56t-56 -22t-56 22t-22 56zM173 296h197 q-6 38 -33.5 62t-64.5 24q-36 0 -62 -23.5t-37 -62.5zM294 630q0 34 22 56t56 22t56 -22t22 -56t-22 -56t-56 -22t-56 22t-22 56z" />
<glyph unicode="&#xec;" horiz-adv-x="236" d="M48 500h140v-500h-140v500zM-42 710l180 6l48 -158l-128 -6z" />
<glyph unicode="&#xed;" horiz-adv-x="236" d="M48 500h140v-500h-140v500zM50 558l50 152h178l-102 -156z" />
<glyph unicode="&#xee;" horiz-adv-x="236" d="M48 500h140v-500h-140v500zM-66 556l112 152h144l112 -152l-142 -4l-42 88l-40 -88z" />
<glyph unicode="&#xef;" horiz-adv-x="244" d="M216 550q-35 0 -57.5 23.5t-22.5 58.5t22.5 58.5t57.5 23.5t57.5 -23.5t22.5 -58.5t-22.5 -58.5t-57.5 -23.5zM-52 632q0 35 22.5 58.5t57.5 23.5t57.5 -23.5t22.5 -58.5t-22.5 -58.5t-57.5 -23.5t-57.5 23.5t-22.5 58.5zM48 0v500h140v-500h-140z" />
<glyph unicode="&#xf0;" horiz-adv-x="536" d="M256 -12q-102 0 -168 65t-66 167q0 96 62 158t156 62q68 0 113 -36q-21 59 -74 104l-67 -56l-60 72l43 36q-26 12 -47 20l64 120q52 -22 91 -50l93 78l60 -72l-80 -67q132 -135 132 -317q0 -131 -68.5 -207.5t-183.5 -76.5zM172 244q0 -51 26.5 -83.5t67.5 -32.5 t67.5 32.5t26.5 83.5t-26.5 83.5t-67.5 32.5t-67.5 -32.5t-26.5 -83.5z" />
<glyph unicode="&#xf1;" horiz-adv-x="558" d="M48 0v500h106l25 -78q20 40 62 65t93 25q79 0 129.5 -57.5t50.5 -146.5v-308h-140v280q0 42 -25 69t-65 27q-42 0 -69 -29t-27 -75v-272h-140zM111 564l1 20q3 58 29.5 92t66.5 34q26 0 56.5 -23t45.5 -23q16 0 26 12t10 30l107 -10l-1 -20q-3 -58 -29.5 -92t-66.5 -34 q-26 0 -56.5 23t-45.5 23q-16 0 -26 -12t-10 -30z" />
<glyph unicode="&#xf2;" horiz-adv-x="560" d="M280 -12q-112 0 -183 73.5t-71 188.5t71 188.5t183 73.5t183 -73.5t71 -188.5t-71 -188.5t-183 -73.5zM120 710l180 6l48 -158l-128 -6zM170 251q0 -57 31 -93t79 -36t79 36t31 93t-31 93t-79 36t-79 -36t-31 -93z" />
<glyph unicode="&#xf3;" horiz-adv-x="560" d="M280 -12q-112 0 -183 73.5t-71 188.5t71 188.5t183 73.5t183 -73.5t71 -188.5t-71 -188.5t-183 -73.5zM170 251q0 -57 31 -93t79 -36t79 36t31 93t-31 93t-79 36t-79 -36t-31 -93zM212 558l50 152h178l-102 -156z" />
<glyph unicode="&#xf4;" horiz-adv-x="560" d="M280 -12q-112 0 -183 73.5t-71 188.5t71 188.5t183 73.5t183 -73.5t71 -188.5t-71 -188.5t-183 -73.5zM96 556l112 152h144l112 -152l-142 -4l-42 88l-40 -88zM170 251q0 -57 31 -93t79 -36t79 36t31 93t-31 93t-79 36t-79 -36t-31 -93z" />
<glyph unicode="&#xf5;" horiz-adv-x="560" d="M280 -12q-112 0 -183 73.5t-71 188.5t71 188.5t183 73.5t183 -73.5t71 -188.5t-71 -188.5t-183 -73.5zM109 564l1 20q3 58 29.5 92t66.5 34q26 0 56.5 -23t45.5 -23q16 0 26 12t10 30l107 -10l-1 -20q-3 -58 -29.5 -92t-66.5 -34q-26 0 -56.5 23t-45.5 23q-16 0 -26 -12 t-10 -30zM170 251q0 -57 31 -93t79 -36t79 36t31 93t-31 93t-79 36t-79 -36t-31 -93z" />
<glyph unicode="&#xf6;" horiz-adv-x="560" d="M280 -12q-112 0 -183 73.5t-71 188.5t71 188.5t183 73.5t183 -73.5t71 -188.5t-71 -188.5t-183 -73.5zM104 630q0 34 22 56t56 22t56 -22t22 -56t-22 -56t-56 -22t-56 22t-22 56zM170 251q0 -57 31 -93t79 -36t79 36t31 93t-31 93t-79 36t-79 -36t-31 -93zM300 630 q0 34 22 56t56 22t56 -22t22 -56t-22 -56t-56 -22t-56 22t-22 56z" />
<glyph unicode="&#xf7;" d="M80 264v112h440v-112h-440zM214 140q0 38 24.5 63t61.5 25t61.5 -25t24.5 -63t-24.5 -63t-61.5 -25t-61.5 25t-24.5 63zM214 500q0 38 24.5 63t61.5 25t61.5 -25t24.5 -63t-24.5 -63t-61.5 -25t-61.5 25t-24.5 63z" />
<glyph unicode="&#xf8;" horiz-adv-x="564" d="M106 -36l-76 64l48 59q-50 67 -50 163q0 115 71 188.5t183 73.5q69 0 122 -29l50 61l78 -64l-50 -61q54 -70 54 -169q0 -115 -71 -188.5t-183 -73.5q-70 0 -129 32zM172 251q0 -23 6 -43l137 167q-17 5 -33 5q-48 0 -79 -36t-31 -93zM243 129q21 -7 39 -7q48 0 79 36 t31 93q0 26 -8 50z" />
<glyph unicode="&#xf9;" horiz-adv-x="550" d="M224 -12q-79 0 -129.5 56t-50.5 144v312h140v-280q0 -41 25 -67.5t63 -26.5q39 0 64.5 29t25.5 73v272h140v-400l2 -100h-110l-28 70q-18 -37 -56.5 -59.5t-85.5 -22.5zM116 710l180 6l48 -158l-128 -6z" />
<glyph unicode="&#xfa;" horiz-adv-x="550" d="M224 -12q-79 0 -129.5 56t-50.5 144v312h140v-280q0 -41 25 -67.5t63 -26.5q39 0 64.5 29t25.5 73v272h140v-400l2 -100h-110l-28 70q-18 -37 -56.5 -59.5t-85.5 -22.5zM208 558l50 152h178l-102 -156z" />
<glyph unicode="&#xfb;" horiz-adv-x="550" d="M224 -12q-79 0 -129.5 56t-50.5 144v312h140v-280q0 -41 25 -67.5t63 -26.5q39 0 64.5 29t25.5 73v272h140v-400l2 -100h-110l-28 70q-18 -37 -56.5 -59.5t-85.5 -22.5zM92 556l112 152h144l112 -152l-142 -4l-42 88l-40 -88z" />
<glyph unicode="&#xfc;" horiz-adv-x="550" d="M224 -12q-79 0 -129.5 56t-50.5 144v312h140v-280q0 -41 25 -67.5t63 -26.5q39 0 64.5 29t25.5 73v272h140v-400l2 -100h-110l-28 70q-18 -37 -56.5 -59.5t-85.5 -22.5zM100 630q0 34 22 56t56 22t56 -22t22 -56t-22 -56t-56 -22t-56 22t-22 56zM296 630q0 34 22 56 t56 22t56 -22t22 -56t-22 -56t-56 -22t-56 22t-22 56z" />
<glyph unicode="&#xfd;" horiz-adv-x="508" d="M78 -84q33 0 62 18t42 46l16 36l-198 484h156l106 -332l92 332h154l-210 -572q-24 -64 -64 -101t-90 -39zM188 558l50 152h178l-102 -156z" />
<glyph unicode="&#xfe;" horiz-adv-x="578" d="M342 -12q-91 0 -152 77v-265h-140v880h140v-234q57 66 144 66q94 0 156 -73t62 -185q0 -115 -59.5 -190.5t-150.5 -75.5zM190 251q0 -55 31 -91t79 -36t79 36t31 91t-31 91t-79 36t-79 -36t-31 -91z" />
<glyph unicode="&#xff;" horiz-adv-x="508" d="M78 -84q33 0 62 18t42 46l16 36l-198 484h156l106 -332l92 332h154l-210 -572q-24 -64 -64 -101t-90 -39zM80 630q0 34 22 56t56 22t56 -22t22 -56t-22 -56t-56 -22t-56 22t-22 56zM276 630q0 34 22 56t56 22t56 -22t22 -56t-22 -56t-56 -22t-56 22t-22 56z" />
<glyph unicode="&#x152;" horiz-adv-x="1004" d="M332 -12q-132 0 -218 96t-86 241t86 241t218 96q54 0 105 -18.5t75 -47.5v54h456v-132h-308v-135h256v-102h-256v-145h316v-136h-464v54q-24 -29 -75 -47.5t-105 -18.5zM184 327q0 -85 46 -140t118 -55t118 55t46 140q0 86 -45.5 140.5t-118.5 54.5t-118.5 -54.5 t-45.5 -140.5z" />
<glyph unicode="&#x153;" horiz-adv-x="828" d="M260 -12q-102 0 -168 74t-66 188t66 188t168 74q100 0 166 -72q59 70 156 70q76 0 130 -44.5t75 -110t13 -135.5h-306q7 -48 34 -76t62 -28q25 0 45.5 16t26.5 42l136 -44q-24 -63 -84 -103.5t-128 -40.5q-47 0 -90.5 19.5t-70.5 52.5q-67 -70 -165 -70zM168 251 q0 -59 25 -94t67 -35t67 35t25 94t-25 94t-67 35t-67 -35t-25 -94zM496 292h164q-4 41 -26.5 64.5t-53.5 23.5t-53.5 -23.5t-30.5 -64.5z" />
<glyph unicode="&#x178;" d="M234 0v192l-234 458h178l132 -314l116 314h174l-218 -458v-192h-148zM136 764q0 34 22 56t56 22t56 -22t22 -56t-22 -56t-56 -22t-56 22t-22 56zM332 764q0 34 22 56t56 22t56 -22t22 -56t-22 -56t-56 -22t-56 22t-22 56z" />
<glyph unicode="&#x2c6;" d="M116 556l112 152h144l112 -152l-142 -4l-42 88l-40 -88z" />
<glyph unicode="&#x2dc;" d="M374 550q-26 0 -56.5 23t-45.5 23q-16 0 -26 -12t-10 -30l-107 10l1 20q3 58 29.5 92t66.5 34q26 0 56.5 -23t45.5 -23q16 0 26 12t10 30l107 -10l-1 -20q-3 -58 -29.5 -92t-66.5 -34z" />
<glyph unicode="&#x2000;" horiz-adv-x="454" />
<glyph unicode="&#x2001;" horiz-adv-x="908" />
<glyph unicode="&#x2002;" horiz-adv-x="454" />
<glyph unicode="&#x2003;" horiz-adv-x="908" />
<glyph unicode="&#x2004;" horiz-adv-x="302" />
<glyph unicode="&#x2005;" horiz-adv-x="227" />
<glyph unicode="&#x2006;" horiz-adv-x="151" />
<glyph unicode="&#x2007;" horiz-adv-x="151" />
<glyph unicode="&#x2008;" horiz-adv-x="113" />
<glyph unicode="&#x2009;" horiz-adv-x="181" />
<glyph unicode="&#x200a;" horiz-adv-x="50" />
<glyph unicode="&#x2010;" horiz-adv-x="404" d="M20 200v112h364v-112h-364z" />
<glyph unicode="&#x2011;" horiz-adv-x="404" d="M20 200v112h364v-112h-364z" />
<glyph unicode="&#x2012;" horiz-adv-x="404" d="M20 200v112h364v-112h-364z" />
<glyph unicode="&#x2013;" horiz-adv-x="536" d="M20 200v112h496v-112h-496z" />
<glyph unicode="&#x2014;" horiz-adv-x="844" d="M12 200v112h820v-112h-820z" />
<glyph unicode="&#x2018;" horiz-adv-x="228" d="M194 586q-16 6 -41 1.5t-37 -21.5q36 0 59 -23.5t23 -60.5t-23.5 -61.5t-59.5 -24.5q-42 0 -67.5 33.5t-25.5 86.5q0 80 54 118.5t122 24.5z" />
<glyph unicode="&#x2019;" horiz-adv-x="228" d="M34 468q16 -6 41 -1.5t37 21.5q-36 0 -59 23.5t-23 60.5t23.5 61.5t59.5 24.5q42 0 67.5 -33.5t25.5 -86.5q0 -80 -54 -118.5t-122 -24.5z" />
<glyph unicode="&#x201a;" horiz-adv-x="240" d="M34 -22q16 -6 41 -1.5t37 21.5q-36 0 -59 23.5t-23 60.5t23.5 61.5t59.5 24.5q42 0 67.5 -33.5t25.5 -86.5q0 -80 -54 -118.5t-122 -24.5z" />
<glyph unicode="&#x201c;" horiz-adv-x="428" d="M194 586q-16 6 -41 1.5t-37 -21.5q36 0 59 -23.5t23 -60.5t-23.5 -61.5t-59.5 -24.5q-42 0 -67.5 33.5t-25.5 86.5q0 80 54 118.5t122 24.5zM222 516q0 80 54 118.5t122 24.5l-4 -73q-16 6 -41 1.5t-37 -21.5q36 0 59 -23.5t23 -60.5t-23.5 -61.5t-59.5 -24.5 q-42 0 -67.5 33.5t-25.5 86.5z" />
<glyph unicode="&#x201d;" horiz-adv-x="428" d="M34 468q16 -6 41 -1.5t37 21.5q-36 0 -59 23.5t-23 60.5t23.5 61.5t59.5 24.5q42 0 67.5 -33.5t25.5 -86.5q0 -80 -54 -118.5t-122 -24.5zM230 395l4 73q16 -6 41 -1.5t37 21.5q-36 0 -59 23.5t-23 60.5t23.5 61.5t59.5 24.5q42 0 67.5 -33.5t25.5 -86.5 q0 -80 -54 -118.5t-122 -24.5z" />
<glyph unicode="&#x201e;" horiz-adv-x="440" d="M234 -22q16 -6 41 -1.5t37 21.5q-36 0 -59 23.5t-23 60.5t23.5 61.5t59.5 24.5q42 0 67.5 -33.5t25.5 -86.5q0 -80 -54 -118.5t-122 -24.5zM30 -95l4 73q16 -6 41 -1.5t37 21.5q-36 0 -59 23.5t-23 60.5t23.5 61.5t59.5 24.5q42 0 67.5 -33.5t25.5 -86.5 q0 -80 -54 -118.5t-122 -24.5z" />
<glyph unicode="&#x2022;" horiz-adv-x="496" d="M248 150q-54 0 -89 36t-35 90t35 90t89 36t89 -36t35 -90t-35 -90t-89 -36z" />
<glyph unicode="&#x2026;" horiz-adv-x="692" d="M118 -8q-37 0 -61.5 25t-24.5 63t24.5 63t61.5 25t61.5 -25t24.5 -63t-24.5 -63t-61.5 -25zM256 80q0 38 24.5 63t61.5 25t61.5 -25t24.5 -63t-24.5 -63t-61.5 -25t-61.5 25t-24.5 63zM480 80q0 38 24.5 63t61.5 25t61.5 -25t24.5 -63t-24.5 -63t-61.5 -25t-61.5 25 t-24.5 63z" />
<glyph unicode="&#x202f;" horiz-adv-x="181" />
<glyph unicode="&#x2039;" horiz-adv-x="348" d="M208 20l-188 231l188 233l96 -92l-126 -142l126 -138z" />
<glyph unicode="&#x203a;" horiz-adv-x="348" d="M140 20l-96 92l126 138l-126 142l96 92l188 -233z" />
<glyph unicode="&#x205f;" horiz-adv-x="227" />
<glyph unicode="&#x2070;" horiz-adv-x="340" d="M170 332q-64 0 -105 45.5t-41 116.5t41 116.5t105 45.5t105 -45.5t41 -116.5t-41 -116.5t-105 -45.5zM116 495q0 -35 15 -58t39 -23t39 23t15 58t-15 58t-39 23t-39 -23t-15 -58z" />
<glyph unicode="&#x2074;" horiz-adv-x="292" d="M14 482q45 45 45 156v12h91v-8q0 -66 -12.5 -104t-41.5 -64h66v90l86 12v-102h32v-84h-32v-52h-86v52h-148v92z" />
<glyph unicode="&#x20ac;" horiz-adv-x="706" d="M4 337v84h79q27 110 109.5 175.5t195.5 65.5q115 0 194 -68t88 -166l-144 -36q-9 60 -45.5 95t-90.5 35q-47 0 -84 -27t-56 -74h202l-40 -84h-180v-12v-12h200l-36 -86h-145q19 -45 55 -70t84 -25q57 0 96.5 35.5t45.5 92.5l146 -64q-21 -93 -101.5 -150.5t-188.5 -57.5 q-114 0 -195.5 65t-108.5 174h-80v86h68v12v12h-68z" />
<glyph unicode="&#x2122;" horiz-adv-x="682" d="M308 338v312h122l51 -214l49 214h120v-312h-96v202l-49 -201h-50l-51 201v-202h-96zM4 558v92h272v-92h-88v-220h-96v220h-88z" />
<glyph unicode="&#x25fc;" horiz-adv-x="500" d="M0 500h500v-500h-500v500z" />
<glyph unicode="&#xfb01;" horiz-adv-x="606" d="M88 512q0 59 29.5 101.5t72.5 60.5t93.5 16t92.5 -26l-36 -124q-36 22 -74 10t-38 -50v-38h118v-124h-118v-338h-140v338h-76v124h76v50zM406 632q0 37 23 60.5t59 23.5t59 -23.5t23 -60.5t-23 -60.5t-59 -23.5t-59 23.5t-23 60.5zM418 0v500h140v-500h-140z" />
<glyph unicode="&#xfb02;" horiz-adv-x="610" d="M88 512q0 59 29.5 101.5t72.5 60.5t93.5 16t92.5 -26l-36 -124q-36 22 -74 10t-38 -50v-38h118v-124h-118v-338h-140v338h-76v124h76v50zM420 0v680h140v-680h-140z" />
<glyph horiz-adv-x="236" d="M48 500h140v-500h-140v500zM36 632q0 37 23 60.5t59 23.5t59 -23.5t23 -60.5t-23 -60.5t-59 -23.5t-59 23.5t-23 60.5z" />
</font>
</defs>
</svg>
