<?xml version="1.0" standalone="no"?>
<!DOCTYPE svg PUBLIC "-//W3C//DTD SVG 1.1//EN" "http://www.w3.org/Graphics/SVG/1.1/DTD/svg11.dtd" >
<svg xmlns="http://www.w3.org/2000/svg" xmlns:xlink="http://www.w3.org/1999/xlink" version="1.1">
<metadata></metadata>
<defs>
<font id="apfel_grotezkmittel" horiz-adv-x="600" >
<font-face units-per-em="1000" ascent="800" descent="-200" />
<missing-glyph horiz-adv-x="212" />
<glyph unicode="A&#x2f;O" horiz-adv-x="672" d="M336 -12q-145 0 -230.5 108.5t-70.5 278.5h484q-12 84 -60.5 132.5t-120.5 48.5q-60 0 -105 -33.5t-58 -89.5l-121 43q25 81 103.5 133.5t178.5 52.5q134 0 218.5 -95t84.5 -243q0 -147 -84.5 -241.5t-218.5 -94.5zM156 281q7 -84 56.5 -134t126.5 -50q75 0 123 49.5 t59 134.5h-365z" />
<glyph unicode="a&#x2f;o" horiz-adv-x="540" d="M269 -12q-114 0 -181 84.5t-57 214.5h368q-9 58 -44 91.5t-87 33.5q-41 0 -72 -21.5t-41 -57.5l-109 37q18 62 78.5 102t139.5 40q107 0 177 -74.5t70 -189.5q0 -114 -68 -187t-174 -73zM143 209q6 -54 41 -86.5t87 -32.5q51 0 85 32t43 87h-256z" />
<glyph unicode="E&#x2f;I" horiz-adv-x="539" d="M279 -12q-106 0 -173.5 60.5t-68.5 154.5l121 26q-2 -62 32 -99.5t92 -37.5q50 0 80 27.5t30 73.5q0 47 -31.5 74.5t-83.5 27.5h-42v80h42q48 0 77 26t29 70q0 41 -28 66.5t-74 25.5q-52 0 -83 -33t-30 -89l-115 20q6 88 71 144.5t160 56.5q91 0 150 -49t59 -124 q0 -56 -33.5 -95t-91.5 -55q65 -15 103.5 -58t38.5 -106q0 -83 -65 -135t-166 -52z" />
<glyph unicode="e&#x2f;i" horiz-adv-x="473" d="M244 -12q-91 0 -152.5 46.5t-69.5 117.5l119 24q2 -41 31.5 -66t73.5 -25q39 0 64 18t25 48t-26.5 48t-72.5 18h-32v76h32q38 0 61.5 17t23.5 45t-23.5 45.5t-61.5 17.5q-40 0 -64.5 -22t-26.5 -59l-111 25q7 66 64 108t140 42q82 0 134 -39t52 -101q0 -42 -24.5 -72 t-65.5 -41q50 -11 80 -45t30 -81q0 -65 -56.5 -105t-143.5 -40z" />
<glyph unicode="tt" horiz-adv-x="621" d="M311 -1q-86 -26 -156 6t-70 121v277h-75v97h29q23 0 37 16t14 42v75h100v-133h138q23 0 37 16t14 42v75h100v-133h115v-97h-115v-253q0 -42 34.5 -56.5t74.5 2.5l12 -97q-86 -26 -156 6t-70 121v277h-184v-253q0 -42 34 -56.5t75 2.5z" />
<glyph unicode="ttt" horiz-adv-x="904" d="M311 -1q-86 -26 -156 6t-70 121v277h-75v97h29q23 0 37 16t14 42v75h100v-133h138q23 0 37 16t14 42v75h100v-133h132q23 0 37 16t14 42v75h100v-133h115v-97h-115v-253q0 -42 34 -56.5t75 2.5l12 -97q-86 -26 -156 6t-70 121v277h-178v-253q0 -42 34.5 -56.5t74.5 2.5 l12 -97q-86 -26 -156 6t-70 121v277h-184v-253q0 -42 34 -56.5t75 2.5z" />
<glyph horiz-adv-x="0" />
<glyph horiz-adv-x="333" />
<glyph unicode=" "  horiz-adv-x="212" />
<glyph unicode="&#x09;" horiz-adv-x="212" />
<glyph unicode="&#xa0;" horiz-adv-x="212" />
<glyph unicode="!" horiz-adv-x="215" d="M66 205l-13 475h111l-13 -475h-85zM34 67q0 33 20.5 54t52.5 21t52.5 -21t20.5 -54q0 -32 -20.5 -53.5t-52.5 -21.5q-31 0 -52 21.5t-21 53.5z" />
<glyph unicode="&#x22;" horiz-adv-x="377" d="M31 479q25 -6 47 2.5t28 31.5q-35 -2 -57 18.5t-22 53.5q0 32 19.5 52.5t50.5 20.5q35 0 57.5 -29t22.5 -75q0 -66 -43.5 -104t-106.5 -27zM206 423l4 56q25 -6 47 2.5t28 31.5q-35 -2 -57 18.5t-22 53.5q0 32 19.5 52.5t50.5 20.5q35 0 57.5 -29t22.5 -75 q0 -66 -43.5 -104t-106.5 -27z" />
<glyph unicode="#" horiz-adv-x="593" d="M125 -32v158h-87v94h87v155h-87v91h87v152h105v-152h133v152h106v-152h86v-91h-86v-155h86v-94h-86v-158h-106v158h-133v-158h-105zM230 220h133v155h-133v-155z" />
<glyph unicode="$" horiz-adv-x="582" d="M254 -108v99q-96 13 -158.5 70t-66.5 138l126 29q2 -47 28.5 -81.5t70.5 -47.5v208q-36 13 -58.5 22.5t-52 26t-46 34t-28.5 43t-12 56.5q0 71 54.5 117.5t142.5 54.5v89h86v-92q79 -13 131 -59.5t59 -112.5l-122 -31q-8 65 -68 94v-176q38 -13 62 -22.5t55.5 -27 t49.5 -36.5t31 -47t13 -62q0 -76 -58 -127.5t-153 -60.5v-98h-86zM174 485q0 -47 80 -81v156q-35 -6 -57.5 -26.5t-22.5 -48.5zM340 94q40 7 65.5 29.5t25.5 55.5q0 32 -23.5 54.5t-67.5 40.5v-180z" />
<glyph unicode="%" horiz-adv-x="782" d="M179 334q-68 0 -112 45t-44 115t44 115t112 45t112 -45t44 -115t-44 -115t-112 -45zM107 495q0 -34 20 -56t52 -22t52.5 22t20.5 56t-20.5 56t-52.5 22t-52 -22t-20 -56zM113 35l476 630l60 -49l-474 -631zM439 156q0 70 44 115t112 45t112 -45t44 -115t-44 -115 t-112 -45t-112 45t-44 115zM523 157q0 -34 20 -56t52 -22t52.5 22t20.5 56t-20.5 56t-52.5 22t-52 -22t-20 -56z" />
<glyph unicode="&#x26;" horiz-adv-x="627" d="M282 -12q-102 0 -169.5 54.5t-67.5 139.5q0 55 32.5 98.5t91.5 65.5q-96 48 -96 142q0 75 59 124.5t150 49.5q64 0 107 -23l-31 -95q-32 20 -75 20q-45 0 -74.5 -25t-29.5 -64t28.5 -64.5t71.5 -25.5h76q23 0 38.5 17.5t15.5 44.5v52l104 10v-124h91v-78h-91v-125 q0 -84 -65 -139t-166 -55zM158 201q0 -47 34.5 -77t87.5 -30q54 0 89 30.5t35 76.5v106h-125q-53 0 -87 -30.5t-34 -75.5z" />
<glyph unicode="'" horiz-adv-x="198" d="M31 479q25 -6 47 2.5t28 31.5q-35 -2 -57 18.5t-22 53.5q0 32 19.5 52.5t50.5 20.5q35 0 57.5 -29t22.5 -75q0 -66 -43.5 -104t-106.5 -27z" />
<glyph unicode="(" horiz-adv-x="291" d="M152 -215q-107 216 -107 458q0 244 105 451l100 -34q-97 -186 -97 -419q0 -234 100 -422z" />
<glyph unicode=")" horiz-adv-x="291" d="M38 -181q100 188 100 422q0 233 -97 419l100 34q105 -207 105 -451q0 -242 -107 -458z" />
<glyph unicode="*" horiz-adv-x="363" d="M135 368l21 112l-86 -74l-46 80l108 38l-108 38l46 80l86 -74l-21 112h93l-21 -112l86 74l46 -80l-108 -38l108 -38l-46 -80l-86 74l21 -112h-93z" />
<glyph unicode="+" d="M247 92v174h-167v108h167v170h106v-170h167v-108h-167v-174h-106z" />
<glyph unicode="," horiz-adv-x="222" d="M36 -37q25 -6 47 2.5t28 31.5q-35 -2 -57 18.5t-22 53.5q0 32 19.5 52.5t50.5 20.5q35 0 57.5 -29t22.5 -75q0 -66 -43.5 -104t-106.5 -27z" />
<glyph unicode="-" horiz-adv-x="399" d="M22 211v92h355v-92h-355z" />
<glyph unicode="." horiz-adv-x="218" d="M105 -8q-31 0 -52 21.5t-21 53.5q0 33 20.5 54t52.5 21t52.5 -21t20.5 -54q0 -32 -20.5 -53.5t-52.5 -21.5z" />
<glyph unicode="/" horiz-adv-x="271" d="M95 -207l-105 20l175 874l103 -18z" />
<glyph unicode="0" horiz-adv-x="630" d="M315 -12q-122 0 -200 94.5t-78 242.5t78 242.5t200 94.5t200.5 -94.5t78.5 -242.5t-78.5 -242.5t-200.5 -94.5zM153 326q0 -102 45 -165.5t117 -63.5t117 63.5t45 165.5q0 103 -45 166.5t-117 63.5t-117 -63.5t-45 -166.5z" />
<glyph unicode="1" horiz-adv-x="308" d="M139 0v412h-128v102h42q40 0 65 25.5t25 66.5v44h107v-650h-111z" />
<glyph unicode="2" horiz-adv-x="503" d="M31 25q0 101 48.5 165t152.5 112q60 28 93 62t33 85q0 47 -28 78t-72 31q-51 0 -82 -40t-23 -96l-116 -2q-6 108 56 175t165 67q93 0 152.5 -56t59.5 -143q0 -134 -162 -212q-137 -67 -153 -141h314v-110h-438v25z" />
<glyph unicode="3" horiz-adv-x="544" d="M271 -12q-104 0 -171.5 63t-67.5 161l116 25q-4 -61 31 -101.5t93 -40.5q52 0 86 34t34 87q0 63 -46.5 97t-108.5 15l-52 62l185 155h-306v105h421v-112l-159 -131q80 -9 130.5 -65t50.5 -138q0 -95 -66.5 -155.5t-169.5 -60.5z" />
<glyph unicode="4" horiz-adv-x="540" d="M18 253q64 53 99 139t35 193v65h114v-43q0 -247 -147 -363h213v263l108 23v-286h95v-102h-95v-142h-108v142h-314v111z" />
<glyph unicode="5" horiz-adv-x="554" d="M283 -12q-106 0 -175.5 64t-69.5 163l118 22q-4 -61 31 -101.5t92 -40.5q55 0 90 37.5t35 95.5q0 59 -34.5 96t-89.5 37q-35 0 -64.5 -15.5t-43.5 -40.5l-106 27l35 318h389v-104h-309l-17 -146q52 41 135 41q97 0 159.5 -63.5t62.5 -161.5q0 -100 -67 -164t-171 -64z " />
<glyph unicode="6" horiz-adv-x="569" d="M300 -12q-115 0 -187 91.5t-72 237.5q0 151 78 248t198 97q78 0 135.5 -44.5t71.5 -116.5l-114 -29q-8 42 -38 66.5t-70 24.5q-64 0 -108 -60t-48 -149q23 38 68.5 60t100.5 22q95 0 156 -62t61 -159q0 -99 -65.5 -163t-166.5 -64zM170 226q0 -56 36 -93.5t89 -37.5 t88 37t35 94q0 58 -34.5 94.5t-88.5 36.5t-89.5 -37.5t-35.5 -93.5z" />
<glyph unicode="7" horiz-adv-x="463" d="M112 0q0 344 255 545h-355v105h447v-111q-222 -201 -222 -532v-7h-125z" />
<glyph unicode="8" horiz-adv-x="563" d="M282 -12q-104 0 -170.5 54t-66.5 139q0 57 33 101t90 64q-98 43 -98 139q0 76 60.5 126.5t151.5 50.5t151 -50.5t60 -126.5q0 -95 -97 -139q56 -20 89 -64t33 -101q0 -85 -66.5 -139t-169.5 -54zM158 198q0 -48 34 -77.5t90 -29.5q55 0 89 29.5t34 77.5t-34 78t-89 30 t-89.5 -30t-34.5 -78zM178 475q0 -40 29 -64.5t75 -24.5t74.5 24.5t28.5 64.5t-28.5 64.5t-74.5 24.5t-75 -24.5t-29 -64.5z" />
<glyph unicode="9" horiz-adv-x="550" d="M243 -12q-83 0 -141.5 49t-67.5 127l118 27q2 -44 30.5 -70.5t70.5 -26.5q64 0 107 57t47 151q-50 -73 -154 -73q-92 0 -153.5 61t-61.5 155t63.5 155.5t160.5 61.5q113 0 180 -88.5t67 -237.5q0 -156 -73.5 -252t-192.5 -96zM150 437q0 -55 33 -90.5t84 -35.5t83.5 35.5 t32.5 90.5q0 56 -32.5 91.5t-83.5 35.5t-84 -36t-33 -91z" />
<glyph unicode=":" horiz-adv-x="226" d="M113 309q-31 0 -52 21.5t-21 53.5q0 33 20.5 54t52.5 21t52.5 -21t20.5 -54q0 -32 -20.5 -53.5t-52.5 -21.5zM40 67q0 33 20.5 54t52.5 21t52.5 -21t20.5 -54q0 -32 -20.5 -53.5t-52.5 -21.5q-31 0 -52 21.5t-21 53.5z" />
<glyph unicode=";" horiz-adv-x="230" d="M113 309q-31 0 -52 21.5t-21 53.5q0 33 20.5 54t52.5 21t52.5 -21t20.5 -54q0 -32 -20.5 -53.5t-52.5 -21.5zM40 -93l4 56q25 -6 47 2.5t28 31.5q-35 -2 -57 18.5t-22 53.5q0 32 19.5 52.5t50.5 20.5q35 0 57.5 -29t22.5 -75q0 -66 -43.5 -104t-106.5 -27z" />
<glyph unicode="&#x3c;" d="M490 113l-410 148v110l408 156l18 -111l-307 -97l309 -92z" />
<glyph unicode="=" d="M92 361v105h416v-105h-416zM92 174v107h416v-107h-416z" />
<glyph unicode="&#x3e;" d="M110 113l-18 114l309 92l-307 97l18 111l408 -156v-110z" />
<glyph unicode="?" horiz-adv-x="461" d="M166 209q0 40 16.5 72t40.5 54t48 42.5t40.5 48.5t16.5 62q0 46 -25.5 73t-67.5 27q-52 0 -79 -40t-19 -97l-119 2q-4 107 57.5 173t164.5 66q92 0 148 -53.5t56 -140.5q0 -48 -18.5 -84.5t-45.5 -59.5t-55 -43.5t-50 -48t-26 -60.5h-83v7zM140 67q0 33 20.5 54t52.5 21 t52.5 -21t20.5 -54q0 -32 -20.5 -53.5t-52.5 -21.5q-31 0 -52 21.5t-21 53.5z" />
<glyph unicode="@" horiz-adv-x="769" d="M387 -56q-153 0 -253.5 101.5t-100.5 259.5q0 157 99 259t253 102t253 -99t99 -248q0 -95 -48 -157t-117 -62q-34 0 -59 16t-34 45q-43 -58 -115 -58q-74 0 -123.5 55.5t-49.5 141.5t50 142t123 56q68 0 111 -52l8 42h71v-278q0 -32 27 -32q28 0 47 37.5t19 95.5 q0 116 -73 194t-188 78q-113 0 -187 -78.5t-74 -198.5q0 -121 74.5 -198.5t184.5 -77.5q93 0 150 44l50 -77q-76 -53 -197 -53zM292 301q0 -44 25 -72t64 -28q40 0 65 28.5t25 72.5t-25 72t-65 28q-39 0 -64 -28.5t-25 -72.5z" />
<glyph unicode="A" horiz-adv-x="625" d="M4 0l245 650h127l245 -650h-123l-59 164h-254l-57 -164h-124zM216 254h191l-97 269z" />
<glyph unicode="B" horiz-adv-x="595" d="M58 0v650h305q78 0 128 -46t50 -118q0 -52 -29.5 -92t-80.5 -55q62 -14 98.5 -58t36.5 -105q0 -77 -51 -126.5t-131 -49.5h-326zM169 103h184q43 0 71 26t28 66t-27.5 66t-70.5 26h-185v-184zM169 377h167q41 0 67.5 24.5t26.5 61.5t-26 61.5t-67 24.5h-168v-172z" />
<glyph unicode="C" horiz-adv-x="663" d="M348 -12q-138 0 -226.5 95t-88.5 242t87.5 242t223.5 95q109 0 188 -64.5t93 -162.5l-111 -34q-11 69 -58 112t-111 43q-84 0 -138.5 -65t-54.5 -166q0 -100 55 -164t141 -64q69 0 116.5 43.5t55.5 114.5l113 -43q-20 -100 -98 -162t-187 -62z" />
<glyph unicode="D" horiz-adv-x="656" d="M58 0v650h246q138 0 228.5 -90.5t90.5 -233.5q0 -140 -86 -233t-219 -93h-260zM169 105h141q86 0 141.5 62t55.5 158q0 97 -58.5 160t-148.5 63h-131v-443z" />
<glyph unicode="E" horiz-adv-x="551" d="M58 0v650h453v-102h-342v-171h290v-90h-290v-182h351v-105h-462z" />
<glyph unicode="F" horiz-adv-x="521" d="M58 0v650h444v-103h-333v-190h294v-92h-294v-265h-111z" />
<glyph unicode="G" horiz-adv-x="698" d="M335 -12q-131 0 -216.5 95.5t-85.5 241.5q0 147 88.5 242t225.5 95q106 0 186 -59.5t97 -151.5l-116 -40q-9 64 -56.5 105t-113.5 41q-85 0 -140 -65t-55 -165q0 -101 56.5 -166.5t143.5 -65.5q76 0 127.5 48.5t54.5 122.5v2h-260v89h361l25 -357h-71l-23 147 q-18 -72 -80 -115.5t-148 -43.5z" />
<glyph unicode="H" horiz-adv-x="657" d="M488 0v284h-319v-284h-111v650h111v-270h319v270h111v-650h-111z" />
<glyph unicode="I" horiz-adv-x="227" d="M58 0v650h111v-650h-111z" />
<glyph unicode="J" horiz-adv-x="571" d="M283 -12q-104 0 -171 67.5t-67 171.5v122h112v-119q0 -59 35 -96.5t90 -37.5q56 0 92 38t36 97v419h110v-419q0 -106 -66.5 -174.5t-170.5 -68.5z" />
<glyph unicode="K" horiz-adv-x="610" d="M467 0l-195 289l-103 -121v-168h-111v650h111v-333l263 333h147l-237 -279l262 -371h-137z" />
<glyph unicode="L" horiz-adv-x="506" d="M58 0v650h111v-543h330v-107h-441z" />
<glyph unicode="M" horiz-adv-x="786" d="M58 0v650h158l181 -526l178 526h153v-650h-111v518l-176 -517h-92l-180 517v-518h-111z" />
<glyph unicode="N" horiz-adv-x="655" d="M58 0v650h131l297 -491v491h111v-650h-124l-304 487v-487h-111z" />
<glyph unicode="O" horiz-adv-x="704" d="M352 -12q-139 0 -229 95t-90 242t90 242t229 95t229 -95t90 -242t-90 -242t-229 -95zM149 326q0 -100 57.5 -164.5t145.5 -64.5t145.5 64.5t57.5 164.5t-57 165t-146 65t-146 -65t-57 -165z" />
<glyph unicode="P" horiz-adv-x="572" d="M58 0v650h289q91 0 149 -58.5t58 -150.5t-60 -151.5t-152 -59.5h-173v-230h-111zM169 325h166q45 0 74 31t29 80t-29 80.5t-74 31.5h-166v-223z" />
<glyph unicode="Q" horiz-adv-x="704" d="M356 -12q-142 0 -232.5 94t-90.5 241q0 149 90 244t231 95q139 0 228 -95.5t89 -245.5q0 -146 -83 -237l67 -86l-78 -60l-62 89q-70 -39 -159 -39zM147 323q0 -99 58.5 -162.5t150.5 -63.5q52 0 92 21l-83 109l-76 101l73 61l77 -103l78 -108q40 58 40 143q0 103 -57 169 t-146 66q-91 0 -149 -65t-58 -168z" />
<glyph unicode="R" horiz-adv-x="611" d="M58 0v650h311q86 0 142 -56.5t56 -143.5q0 -66 -34 -115.5t-92 -70.5l140 -264h-131l-117 251h-164v-251h-111zM169 339h179q45 0 74 29t29 75t-28 75.5t-71 29.5h-183v-209z" />
<glyph unicode="S" horiz-adv-x="582" d="M303 -12q-115 0 -192 59.5t-82 151.5l126 29q3 -60 45 -98.5t108 -38.5q52 0 87.5 24.5t35.5 63.5t-38.5 66.5t-93.5 46t-110 40t-93.5 61t-38.5 96.5q0 77 64 125t164 48t168 -49t77 -127l-122 -31q-5 46 -41 76.5t-88 30.5q-44 0 -74.5 -21.5t-30.5 -55.5 q0 -35 39 -59.5t94 -42t110.5 -39.5t94.5 -64t39 -102q0 -84 -69 -137t-179 -53z" />
<glyph unicode="T" horiz-adv-x="559" d="M224 0v545h-222v105h555v-105h-222v-545h-111z" />
<glyph unicode="U" horiz-adv-x="633" d="M316 -12q-116 0 -190.5 77.5t-74.5 197.5v387h111v-383q0 -74 43.5 -122t110.5 -48q68 0 111.5 48t43.5 122v383h111v-387q0 -120 -75 -197.5t-191 -77.5z" />
<glyph unicode="V" horiz-adv-x="593" d="M230 0l-227 650h122l175 -531l170 531h120l-224 -650h-136z" />
<glyph unicode="W" horiz-adv-x="768" d="M118 0l-80 650h116l60 -520l121 518h104l118 -518l60 520h113l-84 -650h-140l-121 512l-121 -512h-146z" />
<glyph unicode="X" horiz-adv-x="608" d="M6 0l232 330l-226 320h141l151 -228l142 228h139l-218 -318l234 -332h-141l-157 238l-154 -238h-143z" />
<glyph unicode="Y" horiz-adv-x="577" d="M242 0v194l-241 456h132l165 -337l149 337h129l-224 -456v-194h-110z" />
<glyph unicode="Z" horiz-adv-x="580" d="M37 0v107l376 438h-368v105h493v-104l-372 -439h377v-107h-506z" />
<glyph unicode="[" horiz-adv-x="316" d="M58 -200v880h254v-95h-145v-688h147v-97h-256z" />
<glyph unicode="\" horiz-adv-x="271" d="M174 -207l-172 876l105 18l173 -874z" />
<glyph unicode="]" horiz-adv-x="316" d="M258 -200h-256v97h147v688h-145v95h254v-880z" />
<glyph unicode="^" horiz-adv-x="379" d="M17 343l122 307h102l121 -307l-107 -11l-65 221l-66 -221z" />
<glyph unicode="_" horiz-adv-x="488" d="M0 -134v106h488v-106h-488z" />
<glyph unicode="`" d="M249 561l-100 139l145 2l55 -138z" />
<glyph unicode="a" horiz-adv-x="498" d="M194 -12q-73 0 -118.5 40.5t-45.5 105.5q0 50 36 88.5t95 49.5l158 31q11 1 18 8.5t7 17.5q0 38 -25 63t-64 25q-41 0 -69 -26.5t-31 -68.5l-108 26q12 72 69 118t134 46q87 0 143 -52.5t56 -133.5v-226l2 -100h-83l-18 68q-51 -80 -156 -80zM143 148q0 -27 20.5 -43.5 t56.5 -16.5q53 0 88.5 35t35.5 91v23q-4 -1 -15 -3.5t-17 -3.5l-109 -20q-28 -5 -44 -22t-16 -40z" />
<glyph unicode="b" horiz-adv-x="585" d="M332 -12q-110 0 -172 89l-17 -77h-85v680h105v-251q64 83 169 83q98 0 161 -73t63 -187q0 -115 -63 -189.5t-161 -74.5zM162 250q0 -69 40 -114t103 -45q62 0 102 45t40 114q0 71 -40 116t-102 45q-63 0 -103 -45t-40 -116z" />
<glyph unicode="c" horiz-adv-x="532" d="M276 -12q-108 0 -177 73.5t-69 187.5q0 116 68.5 189.5t175.5 73.5q87 0 150 -50t74 -128l-104 -32q-8 49 -41.5 79.5t-79.5 30.5q-58 0 -95 -45.5t-37 -115.5t38 -115t97 -45q49 0 83 31.5t39 83.5l108 -34q-13 -83 -77.5 -133.5t-152.5 -50.5z" />
<glyph unicode="d" horiz-adv-x="587" d="M258 -12q-100 0 -164 73.5t-64 188.5t63.5 188.5t163.5 73.5q103 0 167 -81v249h105v-580l2 -100h-86l-16 75q-64 -87 -171 -87zM139 250q0 -69 40.5 -114t102.5 -45t102.5 45t40.5 114q0 70 -40.5 115.5t-102.5 45.5t-102.5 -45.5t-40.5 -115.5z" />
<glyph unicode="e" horiz-adv-x="541" d="M280 -12q-110 0 -180 73.5t-70 188.5t68.5 188.5t174.5 73.5q116 0 182 -86t55 -209h-368q10 -57 47.5 -92t91.5 -35q43 0 74.5 22t40.5 57l107 -38q-20 -64 -81 -103.5t-142 -39.5zM143 295h257q-7 52 -42.5 84.5t-84.5 32.5t-84 -32t-46 -85z" />
<glyph unicode="f" horiz-adv-x="342" d="M90 533q0 52 25 89.5t62.5 53.5t81.5 14.5t80 -22.5l-29 -98q-36 25 -75.5 12.5t-39.5 -54.5v-56h120v-97h-120v-375h-105v375h-76v97h76v61z" />
<glyph unicode="g" horiz-adv-x="584" d="M283 -212q-92 0 -158.5 49t-79.5 126l113 30q8 -47 44 -75.5t88 -28.5q58 0 95.5 37t37.5 94v79v3q-62 -81 -169 -81q-98 0 -161.5 69t-63.5 176q0 108 63 177t162 69q110 0 174 -86l14 74h84v-467q0 -107 -68 -176t-175 -69zM139 256q0 -68 40 -111t102 -43t102 43 t40 111t-40 111t-102 43t-102 -43t-40 -111z" />
<glyph unicode="h" horiz-adv-x="557" d="M58 0v680h105v-252q21 39 62.5 61.5t92.5 22.5q83 0 136.5 -58.5t53.5 -147.5v-306h-105v289q0 53 -32 86.5t-81 33.5q-55 0 -91 -38.5t-36 -98.5v-272h-105z" />
<glyph unicode="i" horiz-adv-x="220" d="M57 500h105v-500h-105v500zM40 630q0 32 19.5 52t50.5 20t50.5 -20t19.5 -52t-19.5 -52.5t-50.5 -20.5t-50.5 20.5t-19.5 52.5z" />
<glyph unicode="j" horiz-adv-x="229" d="M-3 -115q31 4 50.5 26t19.5 51v538h105v-565q0 -60 -37.5 -102.5t-96.5 -51.5zM50 630q0 32 19.5 52t50.5 20t50.5 -20t19.5 -52t-19.5 -52.5t-50.5 -20.5t-50.5 20.5t-19.5 52.5z" />
<glyph unicode="k" horiz-adv-x="519" d="M388 0l-149 220l-76 -81v-139h-105v680h105v-404l198 224h138l-190 -205l209 -295h-130z" />
<glyph unicode="l" horiz-adv-x="221" d="M58 0v680h105v-680h-105z" />
<glyph unicode="m" horiz-adv-x="841" d="M57 0v500h83l18 -81q17 42 57 67.5t90 25.5q51 0 92.5 -26.5t61.5 -69.5q19 43 61.5 69.5t94.5 26.5q77 0 127 -56.5t50 -144.5v-311h-105v297q0 48 -27.5 79.5t-70.5 31.5q-48 0 -79 -36t-31 -92v-280h-103v295q0 49 -28 81t-72 32q-50 0 -82 -37t-32 -95v-276h-105z " />
<glyph unicode="n" horiz-adv-x="556" d="M57 0v500h84l16 -82q20 42 64 68t98 26q82 0 135 -58t53 -148v-306h-105v289q0 53 -31.5 86.5t-81.5 33.5q-55 0 -91 -38.5t-36 -98.5v-272h-105z" />
<glyph unicode="o" horiz-adv-x="562" d="M281 -12q-110 0 -180.5 73.5t-70.5 188.5t70.5 188.5t180.5 73.5t181 -73.5t71 -188.5t-71 -188.5t-181 -73.5zM139 250q0 -70 40 -114.5t102 -44.5t102.5 44.5t40.5 114.5q0 71 -40.5 116.5t-102.5 45.5t-102 -45.5t-40 -116.5z" />
<glyph unicode="p" horiz-adv-x="584" d="M331 -12q-106 0 -169 84v-272h-105v700h85l16 -76q64 88 173 88q98 0 161 -73t63 -187q0 -115 -63 -189.5t-161 -74.5zM161 250q0 -69 40.5 -114t102.5 -45t102.5 45t40.5 114q0 70 -40.5 115.5t-102.5 45.5t-102.5 -45.5t-40.5 -115.5z" />
<glyph unicode="q" horiz-adv-x="590" d="M259 -12q-99 0 -164 74.5t-65 187.5q0 114 64.5 188t162.5 74q110 0 174 -90l17 78h85v-700h-105v273q-64 -85 -169 -85zM139 250q0 -69 40.5 -114t102.5 -45t102.5 45t40.5 114q0 70 -40.5 115.5t-102.5 45.5t-102.5 -45.5t-40.5 -115.5z" />
<glyph unicode="r" horiz-adv-x="350" d="M57 0v500h85l15 -73q18 52 71 73.5t112 1.5l-10 -119q-41 17 -78.5 15t-63.5 -32t-26 -79v-287h-105z" />
<glyph unicode="s" horiz-adv-x="469" d="M245 -12q-92 0 -154.5 45t-68.5 115l120 28q2 -41 33 -67.5t77 -26.5q35 0 58.5 17t23.5 44q0 28 -29.5 47t-72 31.5t-85 27.5t-72 46t-29.5 77q0 62 52 101t134 39q83 0 139 -39t62 -100l-114 -26q-1 33 -26 53.5t-64 20.5q-33 0 -53.5 -15t-20.5 -39q0 -27 30 -45 t73 -30.5t86 -27.5t73 -46.5t30 -78.5q0 -66 -57 -108.5t-145 -42.5z" />
<glyph unicode="t" horiz-adv-x="331" d="M311 -1q-86 -26 -156 6t-70 121v277h-75v97h29q23 0 37 16t14 42v75h100v-133h115v-97h-115v-253q0 -42 34 -56.5t75 2.5z" />
<glyph unicode="u" horiz-adv-x="549" d="M237 -12q-83 0 -135.5 55t-52.5 143v314h105v-294q0 -49 32 -81t81 -32q52 0 86 35.5t34 90.5v281h105v-400l2 -100h-87l-18 76q-17 -40 -58 -64t-94 -24z" />
<glyph unicode="v" horiz-adv-x="497" d="M188 0l-187 500h120l131 -395l128 395h116l-182 -500h-126z" />
<glyph unicode="w" horiz-adv-x="643" d="M101 0l-79 500h111l52 -384l89 383h98l86 -383l57 384h106l-86 -500h-122l-91 382l-93 -382h-128z" />
<glyph unicode="x" horiz-adv-x="502" d="M1 0l188 255l-181 245h134l109 -161l103 161h133l-174 -245l188 -255h-134l-117 173l-111 -173h-138z" />
<glyph unicode="y" horiz-adv-x="487" d="M76 -110q72 5 99 69l23 57l-197 484h120l129 -362l118 362h118l-216 -572q-23 -62 -63 -99t-91 -41z" />
<glyph unicode="z" horiz-adv-x="474" d="M30 0v105l292 293h-282v102h398v-100l-288 -295h293v-105h-413z" />
<glyph unicode="{" horiz-adv-x="311" d="M229 -200q-58 0 -95 42.5t-37 107.5v162q0 34 -19.5 57t-48.5 23h-21v104h21q29 0 48.5 23t19.5 57v152q0 66 37 109t93 43h80v-94h-43q-28 0 -46 -21.5t-18 -54.5v-151q0 -44 -25 -75.5t-63 -37.5q38 -4 63 -35.5t25 -77.5v-161q0 -33 18 -54.5t46 -21.5h45v-96h-80z " />
<glyph unicode="|" horiz-adv-x="224" d="M58 -200v880h108v-880h-108z" />
<glyph unicode="}" horiz-adv-x="311" d="M82 -200h-80v96h45q28 0 46 21.5t18 54.5v161q0 46 25 77.5t63 35.5q-38 6 -63 37.5t-25 75.5v151q0 33 -18 54.5t-46 21.5h-43v94h80q56 0 93 -43t37 -109v-152q0 -34 19.5 -57t48.5 -23h21v-104h-21q-29 0 -48.5 -23t-19.5 -57v-162q0 -65 -37 -107.5t-95 -42.5z" />
<glyph unicode="~" d="M397 230q-43 0 -92.5 36t-72.5 36q-22 0 -35.5 -15.5t-13.5 -39.5v-10h-103v27q0 64 34.5 105t88.5 41q43 0 92.5 -36t72.5 -36q22 0 35.5 15.5t13.5 39.5v10h103v-27q0 -64 -34.5 -105t-88.5 -41z" />
<glyph unicode="&#xa1;" horiz-adv-x="215" d="M52 -200l13 495h85l13 -495h-111zM34 433q0 33 20.5 54t52.5 21t52.5 -21t20.5 -54q0 -32 -20.5 -53.5t-52.5 -21.5q-31 0 -52 21.5t-21 53.5z" />
<glyph unicode="&#xa2;" horiz-adv-x="532" d="M133 -125l33 137q-63 31 -99.5 93.5t-36.5 143.5q0 116 68.5 189.5t175.5 73.5h12l35 143l82 -18l-34 -143q52 -21 86.5 -63t42.5 -97l-104 -32q-9 57 -50 87l-72 -298h4q49 0 83 31.5t39 83.5l108 -34q-13 -83 -77.5 -133.5t-152.5 -50.5q-19 0 -28 1l-32 -132zM141 251 q0 -84 51 -129l70 290q-54 -4 -87.5 -49t-33.5 -112z" />
<glyph unicode="&#xa3;" horiz-adv-x="524" d="M39 113q50 12 80 47t30 80q0 8 -1 12h-118v85h79q-17 24 -25.5 38t-18 41.5t-9.5 57.5q0 83 58.5 135.5t149.5 52.5q93 0 155.5 -56t68.5 -145l-115 -20q0 52 -29.5 85.5t-75.5 33.5q-45 0 -73.5 -29t-28.5 -75q0 -18 5.5 -36t10 -27t18 -30t16.5 -26h221l-36 -85h-158 v-4q0 -93 -80 -143h335v-105h-459v113z" />
<glyph unicode="&#xa4;" d="M164 111l-70 68l66 64q-17 34 -17 76t17 76l-65 64l69 66l61 -63q32 17 74 17q43 0 76 -18l61 64l69 -66l-66 -65q16 -35 16 -75t-16 -75l67 -65l-70 -68l-62 65q-34 -17 -75 -17q-40 0 -74 17zM227 320q0 -34 20 -56t52 -22t52.5 22t20.5 56t-20.5 56t-52.5 22t-52 -22 t-20 -56z" />
<glyph unicode="&#xa5;" horiz-adv-x="589" d="M83 179v81h130l-206 390h132l165 -337l149 337h129l-192 -390h121v-81h-153v-33h155v-80h-155v-66h-110v66h-167v80h167v33h-165z" />
<glyph unicode="&#xa6;" horiz-adv-x="224" d="M58 -200v368h108v-368h-108zM58 328v352h108v-352h-108z" />
<glyph unicode="&#xa7;" horiz-adv-x="524" d="M272 -212q-102 0 -170.5 55t-72.5 140l112 26q2 -56 39 -90.5t96 -34.5q47 0 79 22.5t32 59.5q0 35 -34 60t-82.5 42t-97.5 36.5t-83 56t-34 89.5q0 83 83 128q-81 47 -81 125q0 71 55 115t141 44q87 0 148 -44.5t68 -114.5l-105 -28q-4 42 -33.5 68.5t-75.5 26.5 q-40 0 -68 -19t-28 -50q0 -32 33.5 -54.5t82 -39t96.5 -36t81.5 -57t33.5 -91.5q0 -81 -80 -126q86 -49 86 -134q0 -77 -61.5 -126t-159.5 -49zM156 249q0 -20 10.5 -35.5t34 -28.5t42.5 -20.5t55 -20.5q39 4 64 26.5t25 55.5q0 20 -10 36t-33 29t-41 20.5t-53 20.5 q-42 -4 -68 -26.5t-26 -56.5z" />
<glyph unicode="&#xa8;" d="M391 559q-30 0 -48.5 19.5t-18.5 49.5t18.5 49t48.5 19t49 -19t19 -49t-19 -49.5t-49 -19.5zM142 628q0 30 18.5 49t48.5 19t49 -19t19 -49t-19 -49.5t-49 -19.5t-48.5 19.5t-18.5 49.5z" />
<glyph unicode="&#xa9;" horiz-adv-x="769" d="M385 -56q-153 0 -252.5 102t-99.5 259t99.5 259t252.5 102t252.5 -102t99.5 -259t-99.5 -259t-252.5 -102zM125 306q0 -120 73.5 -197t186.5 -77t186 77t73 197t-73 197.5t-186 77.5t-186.5 -77.5t-73.5 -197.5zM190 305q0 92 55.5 151.5t141.5 59.5q70 0 121.5 -40.5 t63.5 -104.5l-95 -30q-5 35 -30 57.5t-59 22.5q-41 0 -69 -32t-28 -83q0 -52 28 -84.5t70 -32.5q36 0 61.5 24t28.5 61l100 -29q-13 -68 -65 -110.5t-124 -42.5q-87 0 -143.5 60t-56.5 153z" />
<glyph unicode="&#xaa;" horiz-adv-x="321" d="M125 334q-45 0 -72 24.5t-27 63.5q0 33 20 56.5t52 29.5l100 19q17 3 17 15q0 21 -13 33.5t-34 12.5t-35.5 -14.5t-15.5 -36.5l-81 17q8 44 44.5 72t85.5 28q55 0 90 -32.5t35 -82.5v-198h-60l-12 45q-30 -52 -94 -52zM107 435q0 -15 11 -24t30 -9q28 0 47.5 20t19.5 51 v8l-80 -15q-28 -6 -28 -31z" />
<glyph unicode="&#xab;" horiz-adv-x="530" d="M208 34l-179 216l177 220l72 -69l-129 -150l132 -148zM225 250l177 220l72 -69l-129 -150l132 -148l-73 -69z" />
<glyph unicode="&#xac;" d="M80 271v105h423v-261h-107v156h-316z" />
<glyph unicode="&#xad;" horiz-adv-x="399" d="M22 211v92h355v-92h-355z" />
<glyph unicode="&#xae;" horiz-adv-x="769" d="M385 -56q-153 0 -252.5 102t-99.5 259t99.5 259t252.5 102t252.5 -102t99.5 -259t-99.5 -259t-252.5 -102zM125 306q0 -120 73.5 -198t186.5 -78t186 78t73 198t-73 198t-186 78t-186.5 -78t-73.5 -198zM243 120v372h171q54 0 88.5 -33.5t34.5 -86.5q0 -73 -60 -104 l65 -148h-96l-48 133h-67v-133h-88zM331 330h79q16 0 26 11t10 28t-10.5 27.5t-26.5 10.5h-78v-77z" />
<glyph unicode="&#xaf;" d="M165 573v86h270v-86h-270z" />
<glyph unicode="&#xb0;" horiz-adv-x="358" d="M179 334q-68 0 -112 45t-44 115t44 115t112 45t112 -45t44 -115t-44 -115t-112 -45zM107 495q0 -34 20 -56t52 -22t52.5 22t20.5 56t-20.5 56t-52.5 22t-52 -22t-20 -56z" />
<glyph unicode="&#xb1;" d="M92 92v105h416v-105h-416zM94 330v103h153v119h106v-119h153v-103h-153v-97h-106v97h-153z" />
<glyph unicode="&#xb2;" horiz-adv-x="263" d="M22 358q0 35 15 61.5t36.5 42t43 29t36.5 29t15 34.5q0 17 -10 28t-26 11q-20 0 -30.5 -15t-8.5 -39h-72q-2 54 30 87t85 33q46 0 76.5 -27.5t30.5 -69.5q0 -31 -19 -54t-42.5 -34t-46 -27.5t-27.5 -34.5h133v-71h-219v17z" />
<glyph unicode="&#xb3;" horiz-adv-x="276" d="M139 333q-53 0 -86.5 30.5t-33.5 78.5l70 13q-1 -23 13 -38t37 -15q20 0 32.5 13t12.5 34q0 26 -18.5 38.5t-41.5 6.5l-26 35l69 55h-130v66h205v-67l-64 -48q34 -6 56 -33t22 -64q0 -46 -32.5 -75.5t-84.5 -29.5z" />
<glyph unicode="&#xb4;" d="M251 564l54 136h143l-99 -138z" />
<glyph unicode="&#xb5;" horiz-adv-x="558" d="M57 -200v700h105v-289q0 -52 31 -85t80 -33q53 0 87.5 39t34.5 99v269h105v-400l2 -100h-85l-15 75q-13 -40 -48.5 -63.5t-82.5 -23.5q-68 0 -109 47v-235h-105z" />
<glyph unicode="&#xb6;" horiz-adv-x="554" d="M246 -200v437h-18q-92 0 -151 59t-59 150q0 89 58 146.5t147 57.5h108v-850h-85zM391 -200v850h105v-850h-105z" />
<glyph unicode="&#xb7;" horiz-adv-x="376" d="M188 201q-31 0 -52 21.5t-21 53.5q0 33 20.5 54t52.5 21t52.5 -21t20.5 -54q0 -32 -20.5 -53.5t-52.5 -21.5z" />
<glyph unicode="&#xb8;" d="M231 -141q39 -8 63 -2.5t24 22.5q0 23 -35 26l-35 3l28 120h58l-20 -69q39 -5 64.5 -29.5t25.5 -60.5q0 -51 -50 -72.5t-126 -9.5z" />
<glyph unicode="&#xb9;" horiz-adv-x="184" d="M71 338v182h-63v68h24q19 0 31 12.5t12 32.5v17h70v-312h-74z" />
<glyph unicode="&#xba;" horiz-adv-x="358" d="M179 334q-68 0 -112 45t-44 115t44 115t112 45t112 -45t44 -115t-44 -115t-112 -45zM107 495q0 -34 20 -56t52 -22t52.5 22t20.5 56t-20.5 56t-52.5 22t-52 -22t-20 -56z" />
<glyph unicode="&#xbb;" horiz-adv-x="530" d="M322 34l-73 69l132 148l-129 150l72 69l177 -220zM53 103l132 148l-129 150l72 69l177 -220l-179 -216z" />
<glyph unicode="&#xbc;" horiz-adv-x="649" d="M82 338v182h-63v68h24q19 0 31 12.5t12 32.5v17h70v-312h-74zM33 35l476 630l60 -49l-474 -631zM376 60v74q53 41 53 159v19h75v-13q0 -120 -61 -171h78v103l71 12v-115h34v-68h-34v-60h-71v60h-145z" />
<glyph unicode="&#xbd;" horiz-adv-x="651" d="M95 -15l-62 50l476 630l60 -49zM19 520v68h24q19 0 31 12.5t12 32.5v17h70v-312h-74v182h-63zM406 198q-2 54 30 87t85 33q46 0 76.5 -27.5t30.5 -69.5q0 -31 -19 -54t-42.5 -34t-46 -27.5t-27.5 -34.5h133v-71h-219v17q0 35 15 61.5t36.5 42t43 29t36.5 29t15 34.5 q0 17 -10 28t-26 11q-20 0 -30.5 -15t-8.5 -39h-72z" />
<glyph unicode="&#xbe;" horiz-adv-x="697" d="M143 333q-53 0 -86.5 30.5t-33.5 78.5l70 13q-1 -23 13 -38t37 -15q20 0 32.5 13t12.5 34q0 26 -18.5 38.5t-41.5 6.5l-26 35l69 55h-130v66h205v-67l-64 -48q34 -6 56 -33t22 -64q0 -46 -32.5 -75.5t-84.5 -29.5zM80 35l476 630l60 -49l-474 -631zM424 60v74 q53 41 53 159v19h75v-13q0 -120 -61 -171h78v103l71 12v-115h34v-68h-34v-60h-71v60h-145z" />
<glyph unicode="&#xbf;" horiz-adv-x="461" d="M227 -212q-91 0 -150.5 56t-59.5 142q0 47 18 84t44.5 61t53.5 46.5t49 53t27 67.5h84q-2 -46 -19 -82.5t-40 -60.5t-45.5 -45.5t-38.5 -49.5t-16 -61q0 -45 27 -73.5t70 -28.5q50 0 77 39.5t19 96.5l120 -2q4 -107 -58 -175t-162 -68zM169 433q0 33 20.5 54t52.5 21 t52.5 -21t20.5 -54q0 -32 -20.5 -53.5t-52.5 -21.5q-31 0 -52 21.5t-21 53.5z" />
<glyph unicode="&#xc0;" horiz-adv-x="625" d="M4 0l245 650h127l245 -650h-123l-59 164h-254l-57 -164h-124zM161 832l145 2l55 -138l-100 -3zM216 254h191l-97 269z" />
<glyph unicode="&#xc1;" horiz-adv-x="625" d="M4 0l245 650h127l245 -650h-123l-59 164h-254l-57 -164h-124zM216 254h191l-97 269zM263 696l54 136h143l-99 -138z" />
<glyph unicode="&#xc2;" horiz-adv-x="625" d="M4 0l245 650h127l245 -650h-123l-59 164h-254l-57 -164h-124zM154 693l100 135h116l100 -135l-104 -2l-55 76l-51 -76zM216 254h191l-97 269z" />
<glyph unicode="&#xc3;" horiz-adv-x="625" d="M4 0l245 650h127l245 -650h-123l-59 164h-254l-57 -164h-124zM163 698v16q2 48 26 79.5t62 31.5q27 0 57 -24t45 -24t24.5 11t9.5 28v2l74 -4v-15q-2 -49 -26 -80t-62 -31q-27 0 -57 23.5t-45 23.5t-24 -10.5t-9 -27.5v-3zM216 254h191l-97 269z" />
<glyph unicode="&#xc4;" horiz-adv-x="625" d="M4 0l245 650h127l245 -650h-123l-59 164h-254l-57 -164h-124zM154 760q0 30 18.5 49t48.5 19t49 -19t19 -49t-19 -49.5t-49 -19.5t-48.5 19.5t-18.5 49.5zM216 254h191l-97 269zM336 760q0 30 18.5 49t48.5 19t49 -19t19 -49t-19 -49.5t-49 -19.5t-48.5 19.5t-18.5 49.5z " />
<glyph unicode="&#xc5;" horiz-adv-x="625" d="M4 0l245 650h127l245 -650h-123l-59 164h-254l-57 -164h-124zM214 782q0 44 27.5 72t70.5 28t71 -28.5t28 -71.5t-28 -71t-71 -28t-70.5 28t-27.5 71zM216 254h191l-97 269zM277 782q0 -16 9.5 -26t25.5 -10t25.5 10t9.5 26q0 17 -9.5 27.5t-25.5 10.5t-25.5 -10.5 t-9.5 -27.5z" />
<glyph unicode="&#xc6;" horiz-adv-x="906" d="M2 0l284 650h580v-102h-332v-172h287v-88h-287v-183h342v-105h-452v166h-229l-69 -166h-124zM232 256h192v292h-71z" />
<glyph unicode="&#xc7;" horiz-adv-x="663" d="M275 -141q39 -8 63 -2.5t24 22.5q0 23 -35 26l-35 3l19 82q-123 13 -200.5 105.5t-77.5 229.5q0 147 87.5 242t223.5 95q109 0 188 -64.5t93 -162.5l-111 -34q-11 69 -58 112t-111 43q-84 0 -138.5 -65t-54.5 -166q0 -100 55 -164t141 -64q69 0 116.5 43.5t55.5 114.5 l113 -43q-19 -96 -91.5 -157t-174.5 -67l-9 -29q39 -5 64.5 -29.5t25.5 -60.5q0 -51 -50 -72.5t-126 -9.5z" />
<glyph unicode="&#xc8;" horiz-adv-x="551" d="M58 0v650h453v-102h-342v-171h290v-90h-290v-182h351v-105h-462zM137 832l145 2l55 -138l-100 -3z" />
<glyph unicode="&#xc9;" horiz-adv-x="551" d="M58 0v650h453v-102h-342v-171h290v-90h-290v-182h351v-105h-462zM239 696l54 136h143l-99 -138z" />
<glyph unicode="&#xca;" horiz-adv-x="551" d="M58 0v650h453v-102h-342v-171h290v-90h-290v-182h351v-105h-462zM130 693l100 135h116l100 -135l-104 -2l-55 76l-51 -76z" />
<glyph unicode="&#xcb;" horiz-adv-x="551" d="M58 0v650h453v-102h-342v-171h290v-90h-290v-182h351v-105h-462zM130 760q0 30 18.5 49t48.5 19t49 -19t19 -49t-19 -49.5t-49 -19.5t-48.5 19.5t-18.5 49.5zM312 760q0 30 18.5 49t48.5 19t49 -19t19 -49t-19 -49.5t-49 -19.5t-48.5 19.5t-18.5 49.5z" />
<glyph unicode="&#xcc;" horiz-adv-x="227" d="M58 0v650h111v-650h-111zM-37 832l145 2l55 -138l-100 -3z" />
<glyph unicode="&#xcd;" horiz-adv-x="227" d="M58 0v650h111v-650h-111zM65 696l54 136h143l-99 -138z" />
<glyph unicode="&#xce;" horiz-adv-x="227" d="M58 0v650h111v-650h-111zM-44 693l100 135h116l100 -135l-104 -2l-55 76l-51 -76z" />
<glyph unicode="&#xcf;" horiz-adv-x="237" d="M111 693q-29 0 -48 19.5t-19 49.5t19 49.5t48 19.5h8h7q29 0 48 -19.5t19 -49.5t-19 -49.5t-48 -19.5h-7h-8zM61 0v650h111v-650h-111z" />
<glyph unicode="&#xd0;" horiz-adv-x="662" d="M6 285v86h59v279h246q138 0 228.5 -90.5t90.5 -233.5q0 -140 -86 -233t-219 -93h-260v285h-59zM176 105h141q86 0 141.5 62t55.5 158q0 97 -58.5 160t-148.5 63h-131v-177h202v-86h-202v-180z" />
<glyph unicode="&#xd1;" horiz-adv-x="655" d="M58 0v650h131l297 -491v491h111v-650h-124l-304 487v-487h-111zM179 698v16q2 48 26 79.5t62 31.5q27 0 57 -24t45 -24t24.5 11t9.5 28v2l74 -4v-15q-2 -49 -26 -80t-62 -31q-27 0 -57 23.5t-45 23.5t-24 -10.5t-9 -27.5v-3z" />
<glyph unicode="&#xd2;" horiz-adv-x="704" d="M352 -12q-139 0 -229 95t-90 242t90 242t229 95t229 -95t90 -242t-90 -242t-229 -95zM149 326q0 -100 57.5 -164.5t145.5 -64.5t145.5 64.5t57.5 164.5t-57 165t-146 65t-146 -65t-57 -165zM201 832l145 2l55 -138l-100 -3z" />
<glyph unicode="&#xd3;" horiz-adv-x="704" d="M352 -12q-139 0 -229 95t-90 242t90 242t229 95t229 -95t90 -242t-90 -242t-229 -95zM149 326q0 -100 57.5 -164.5t145.5 -64.5t145.5 64.5t57.5 164.5t-57 165t-146 65t-146 -65t-57 -165zM303 696l54 136h143l-99 -138z" />
<glyph unicode="&#xd4;" horiz-adv-x="704" d="M352 -12q-139 0 -229 95t-90 242t90 242t229 95t229 -95t90 -242t-90 -242t-229 -95zM149 326q0 -100 57.5 -164.5t145.5 -64.5t145.5 64.5t57.5 164.5t-57 165t-146 65t-146 -65t-57 -165zM194 693l100 135h116l100 -135l-104 -2l-55 76l-51 -76z" />
<glyph unicode="&#xd5;" horiz-adv-x="704" d="M352 -12q-139 0 -229 95t-90 242t90 242t229 95t229 -95t90 -242t-90 -242t-229 -95zM149 326q0 -100 57.5 -164.5t145.5 -64.5t145.5 64.5t57.5 164.5t-57 165t-146 65t-146 -65t-57 -165zM203 698v16q2 48 26 79.5t62 31.5q27 0 57 -24t45 -24t24.5 11t9.5 28v2l74 -4 v-15q-2 -49 -26 -80t-62 -31q-27 0 -57 23.5t-45 23.5t-24 -10.5t-9 -27.5v-3z" />
<glyph unicode="&#xd6;" horiz-adv-x="704" d="M352 -12q-139 0 -229 95t-90 242t90 242t229 95t229 -95t90 -242t-90 -242t-229 -95zM149 326q0 -100 57.5 -164.5t145.5 -64.5t145.5 64.5t57.5 164.5t-57 165t-146 65t-146 -65t-57 -165zM194 760q0 30 18.5 49t48.5 19t49 -19t19 -49t-19 -49.5t-49 -19.5t-48.5 19.5 t-18.5 49.5zM376 760q0 30 18.5 49t48.5 19t49 -19t19 -49t-19 -49.5t-49 -19.5t-48.5 19.5t-18.5 49.5z" />
<glyph unicode="&#xd7;" d="M171 114l-74 74l131 131l-130 131l73 74l129 -131l129 131l74 -74l-131 -131l131 -131l-75 -74l-128 132z" />
<glyph unicode="&#xd8;" horiz-adv-x="704" d="M127 -22l-70 57l52 63q-76 93 -76 227q0 147 90 242t229 95q99 0 178 -52l58 71l69 -57l-61 -74q75 -91 75 -225q0 -147 -90 -242t-229 -95q-98 0 -176 50zM149 326q0 -77 36 -135l274 334q-47 31 -107 31q-89 0 -146 -65t-57 -165zM248 126q46 -29 104 -29 q88 0 145.5 64.5t57.5 164.5q0 76 -34 133z" />
<glyph unicode="&#xd9;" horiz-adv-x="633" d="M316 -12q-116 0 -190.5 77.5t-74.5 197.5v387h111v-383q0 -74 43.5 -122t110.5 -48q68 0 111.5 48t43.5 122v383h111v-387q0 -120 -75 -197.5t-191 -77.5zM167 832l145 2l55 -138l-100 -3z" />
<glyph unicode="&#xda;" horiz-adv-x="633" d="M316 -12q-116 0 -190.5 77.5t-74.5 197.5v387h111v-383q0 -74 43.5 -122t110.5 -48q68 0 111.5 48t43.5 122v383h111v-387q0 -120 -75 -197.5t-191 -77.5zM269 696l54 136h143l-99 -138z" />
<glyph unicode="&#xdb;" horiz-adv-x="633" d="M316 -12q-116 0 -190.5 77.5t-74.5 197.5v387h111v-383q0 -74 43.5 -122t110.5 -48q68 0 111.5 48t43.5 122v383h111v-387q0 -120 -75 -197.5t-191 -77.5zM160 693l100 135h116l100 -135l-104 -2l-55 76l-51 -76z" />
<glyph unicode="&#xdc;" horiz-adv-x="633" d="M316 -12q-116 0 -190.5 77.5t-74.5 197.5v387h111v-383q0 -74 43.5 -122t110.5 -48q68 0 111.5 48t43.5 122v383h111v-387q0 -120 -75 -197.5t-191 -77.5zM160 760q0 30 18.5 49t48.5 19t49 -19t19 -49t-19 -49.5t-49 -19.5t-48.5 19.5t-18.5 49.5zM342 760q0 30 18.5 49 t48.5 19t49 -19t19 -49t-19 -49.5t-49 -19.5t-48.5 19.5t-18.5 49.5z" />
<glyph unicode="&#xdd;" horiz-adv-x="577" d="M242 0v194l-241 456h132l165 -337l149 337h129l-224 -456v-194h-110zM249 696l54 136h143l-99 -138z" />
<glyph unicode="&#xde;" horiz-adv-x="580" d="M58 0v650h111v-110h177q90 0 148.5 -58.5t58.5 -148.5q0 -91 -59.5 -150t-150.5 -59h-174v-124h-111zM169 227h163q46 0 75.5 30t29.5 76t-29 76t-74 30h-165v-212z" />
<glyph unicode="&#xdf;" horiz-adv-x="550" d="M58 486q0 91 60.5 148.5t157.5 57.5q92 0 151.5 -50.5t59.5 -127.5q0 -52 -28 -92.5t-75 -59.5q59 -17 95 -64.5t36 -111.5q0 -71 -44.5 -121.5t-112.5 -68t-141 -2.5l5 105q71 -13 125 13.5t54 91.5q0 50 -34 81t-89 31h-30v85h29q44 0 72.5 27t28.5 68t-29.5 68.5 t-74.5 27.5q-49 0 -80 -31t-31 -80v-681h-105v686z" />
<glyph unicode="&#xe0;" horiz-adv-x="498" d="M194 -12q-73 0 -118.5 40.5t-45.5 105.5q0 50 36 88.5t95 49.5l158 31q11 1 18 8.5t7 17.5q0 38 -25 63t-64 25q-41 0 -69 -26.5t-31 -68.5l-108 26q12 72 69 118t134 46q87 0 143 -52.5t56 -133.5v-226l2 -100h-83l-18 68q-51 -80 -156 -80zM98 700l145 2l55 -138 l-100 -3zM143 148q0 -27 20.5 -43.5t56.5 -16.5q53 0 88.5 35t35.5 91v23q-4 -1 -15 -3.5t-17 -3.5l-109 -20q-28 -5 -44 -22t-16 -40z" />
<glyph unicode="&#xe1;" horiz-adv-x="498" d="M194 -12q-73 0 -118.5 40.5t-45.5 105.5q0 50 36 88.5t95 49.5l158 31q11 1 18 8.5t7 17.5q0 38 -25 63t-64 25q-41 0 -69 -26.5t-31 -68.5l-108 26q12 72 69 118t134 46q87 0 143 -52.5t56 -133.5v-226l2 -100h-83l-18 68q-51 -80 -156 -80zM143 148q0 -27 20.5 -43.5 t56.5 -16.5q53 0 88.5 35t35.5 91v23q-4 -1 -15 -3.5t-17 -3.5l-109 -20q-28 -5 -44 -22t-16 -40zM200 564l54 136h143l-99 -138z" />
<glyph unicode="&#xe2;" horiz-adv-x="498" d="M194 -12q-73 0 -118.5 40.5t-45.5 105.5q0 50 36 88.5t95 49.5l158 31q11 1 18 8.5t7 17.5q0 38 -25 63t-64 25q-41 0 -69 -26.5t-31 -68.5l-108 26q12 72 69 118t134 46q87 0 143 -52.5t56 -133.5v-226l2 -100h-83l-18 68q-51 -80 -156 -80zM91 561l100 135h116 l100 -135l-104 -2l-55 76l-51 -76zM143 148q0 -27 20.5 -43.5t56.5 -16.5q53 0 88.5 35t35.5 91v23q-4 -1 -15 -3.5t-17 -3.5l-109 -20q-28 -5 -44 -22t-16 -40z" />
<glyph unicode="&#xe3;" horiz-adv-x="498" d="M194 -12q-73 0 -118.5 40.5t-45.5 105.5q0 50 36 88.5t95 49.5l158 31q11 1 18 8.5t7 17.5q0 38 -25 63t-64 25q-41 0 -69 -26.5t-31 -68.5l-108 26q12 72 69 118t134 46q87 0 143 -52.5t56 -133.5v-226l2 -100h-83l-18 68q-51 -80 -156 -80zM100 566v16q2 48 26 79.5 t62 31.5q27 0 57 -24t45 -24t24.5 11t9.5 28v2l74 -4v-15q-2 -49 -26 -80t-62 -31q-27 0 -57 23.5t-45 23.5t-24 -10.5t-9 -27.5v-3zM143 148q0 -27 20.5 -43.5t56.5 -16.5q53 0 88.5 35t35.5 91v23q-4 -1 -15 -3.5t-17 -3.5l-109 -20q-28 -5 -44 -22t-16 -40z" />
<glyph unicode="&#xe4;" horiz-adv-x="498" d="M194 -12q-73 0 -118.5 40.5t-45.5 105.5q0 50 36 88.5t95 49.5l158 31q11 1 18 8.5t7 17.5q0 38 -25 63t-64 25q-41 0 -69 -26.5t-31 -68.5l-108 26q12 72 69 118t134 46q87 0 143 -52.5t56 -133.5v-226l2 -100h-83l-18 68q-51 -80 -156 -80zM91 628q0 30 18.5 49 t48.5 19t49 -19t19 -49t-19 -49.5t-49 -19.5t-48.5 19.5t-18.5 49.5zM143 148q0 -27 20.5 -43.5t56.5 -16.5q53 0 88.5 35t35.5 91v23q-4 -1 -15 -3.5t-17 -3.5l-109 -20q-28 -5 -44 -22t-16 -40zM273 628q0 30 18.5 49t48.5 19t49 -19t19 -49t-19 -49.5t-49 -19.5 t-48.5 19.5t-18.5 49.5z" />
<glyph unicode="&#xe5;" horiz-adv-x="498" d="M194 -12q-73 0 -118.5 40.5t-45.5 105.5q0 50 36 88.5t95 49.5l158 31q11 1 18 8.5t7 17.5q0 38 -25 63t-64 25q-41 0 -69 -26.5t-31 -68.5l-108 26q12 72 69 118t134 46q87 0 143 -52.5t56 -133.5v-226l2 -100h-83l-18 68q-51 -80 -156 -80zM143 148q0 -27 20.5 -43.5 t56.5 -16.5q53 0 88.5 35t35.5 91v23q-4 -1 -15 -3.5t-17 -3.5l-109 -20q-28 -5 -44 -22t-16 -40zM151 650q0 44 27.5 72t70.5 28t71 -28.5t28 -71.5t-28 -71t-71 -28t-70.5 28t-27.5 71zM214 650q0 -16 9.5 -26t25.5 -10t25.5 10t9.5 26q0 17 -9.5 27.5t-25.5 10.5 t-25.5 -10.5t-9.5 -27.5z" />
<glyph unicode="&#xe6;" horiz-adv-x="811" d="M565 -13q-55 0 -104 25.5t-77 67.5q-27 -43 -75 -67.5t-107 -24.5q-75 0 -123.5 42t-48.5 107q0 54 37.5 93t95.5 46l145 16q24 3 24 24v13q0 38 -25 61.5t-64 23.5q-41 0 -68 -26t-29 -68l-108 28q12 72 68.5 118t132.5 46q106 0 162 -70q61 69 158 69q108 0 170 -84.5 t51 -208.5h-340q7 -59 41 -94.5t83 -35.5q39 0 67 22.5t36 60.5l110 -35q-19 -65 -78.5 -107t-133.5 -42zM135 151q0 -28 23 -45.5t58 -17.5q50 0 83 29t33 74v33l-137 -14q-26 -3 -43 -19.5t-17 -39.5zM441 294h230q-7 54 -38 86t-76 32t-75.5 -31.5t-40.5 -86.5z" />
<glyph unicode="&#xe7;" horiz-adv-x="532" d="M199 -141q39 -8 63 -2.5t24 22.5q0 23 -35 26l-35 3l19 83q-92 14 -148.5 85t-56.5 173q0 116 68.5 189.5t175.5 73.5q87 0 150 -50t74 -128l-104 -32q-8 49 -41.5 79.5t-79.5 30.5q-58 0 -95 -45.5t-37 -115.5t38 -115t97 -45q49 0 83 31.5t39 83.5l108 -34 q-13 -79 -72.5 -129t-142.5 -55l-9 -29q39 -5 64.5 -29.5t25.5 -60.5q0 -51 -50 -72.5t-126 -9.5z" />
<glyph unicode="&#xe8;" horiz-adv-x="541" d="M280 -12q-110 0 -180 73.5t-70 188.5t68.5 188.5t174.5 73.5q116 0 182 -86t55 -209h-368q10 -57 47.5 -92t91.5 -35q43 0 74.5 22t40.5 57l107 -38q-20 -64 -81 -103.5t-142 -39.5zM122 700l145 2l55 -138l-100 -3zM143 295h257q-7 52 -42.5 84.5t-84.5 32.5t-84 -32 t-46 -85z" />
<glyph unicode="&#xe9;" horiz-adv-x="541" d="M280 -12q-110 0 -180 73.5t-70 188.5t68.5 188.5t174.5 73.5q116 0 182 -86t55 -209h-368q10 -57 47.5 -92t91.5 -35q43 0 74.5 22t40.5 57l107 -38q-20 -64 -81 -103.5t-142 -39.5zM143 295h257q-7 52 -42.5 84.5t-84.5 32.5t-84 -32t-46 -85zM224 564l54 136h143 l-99 -138z" />
<glyph unicode="&#xea;" horiz-adv-x="541" d="M280 -12q-110 0 -180 73.5t-70 188.5t68.5 188.5t174.5 73.5q116 0 182 -86t55 -209h-368q10 -57 47.5 -92t91.5 -35q43 0 74.5 22t40.5 57l107 -38q-20 -64 -81 -103.5t-142 -39.5zM115 561l100 135h116l100 -135l-104 -2l-55 76l-51 -76zM143 295h257q-7 52 -42.5 84.5 t-84.5 32.5t-84 -32t-46 -85z" />
<glyph unicode="&#xeb;" horiz-adv-x="541" d="M280 -12q-110 0 -180 73.5t-70 188.5t68.5 188.5t174.5 73.5q116 0 182 -86t55 -209h-368q10 -57 47.5 -92t91.5 -35q43 0 74.5 22t40.5 57l107 -38q-20 -64 -81 -103.5t-142 -39.5zM115 628q0 30 18.5 49t48.5 19t49 -19t19 -49t-19 -49.5t-49 -19.5t-48.5 19.5 t-18.5 49.5zM143 295h257q-7 52 -42.5 84.5t-84.5 32.5t-84 -32t-46 -85zM297 628q0 30 18.5 49t48.5 19t49 -19t19 -49t-19 -49.5t-49 -19.5t-48.5 19.5t-18.5 49.5z" />
<glyph unicode="&#xec;" horiz-adv-x="220" d="M57 500h105v-500h-105v500zM-41 700l145 2l55 -138l-100 -3z" />
<glyph unicode="&#xed;" horiz-adv-x="220" d="M57 500h105v-500h-105v500zM61 564l54 136h143l-99 -138z" />
<glyph unicode="&#xee;" horiz-adv-x="220" d="M57 500h105v-500h-105v500zM-48 561l100 135h116l100 -135l-104 -2l-55 76l-51 -76z" />
<glyph unicode="&#xef;" horiz-adv-x="230" d="M200 559q-30 0 -49.5 20t-19.5 51q0 30 19.5 50t49.5 20t49 -20t19 -50q0 -31 -19 -51t-49 -20zM-38 630q0 30 19 50t49 20t49.5 -20t19.5 -50q0 -31 -19.5 -51t-49.5 -20t-49 20t-19 51zM57 0v500h105v-500h-105z" />
<glyph unicode="&#xf0;" horiz-adv-x="524" d="M256 -12q-102 0 -166 65.5t-64 168.5q0 101 63 166t160 65q60 0 108 -27q-35 66 -95 110l-71 -61l-53 63l46 41q-26 10 -52 17l36 97q54 -15 100 -41l81 71l56 -62l-67 -58q76 -65 117 -156t41 -187q0 -125 -66 -198.5t-174 -73.5zM137 236q0 -62 35 -102t91 -41 q55 0 90 40.5t35 102.5t-35 102.5t-90 40.5t-90.5 -40.5t-35.5 -102.5z" />
<glyph unicode="&#xf1;" horiz-adv-x="556" d="M57 0v500h84l16 -82q20 42 64 68t98 26q82 0 135 -58t53 -148v-306h-105v289q0 53 -31.5 86.5t-81.5 33.5q-55 0 -91 -38.5t-36 -98.5v-272h-105zM134 566v16q2 48 26 79.5t62 31.5q27 0 57 -24t45 -24t24.5 11t9.5 28v2l74 -4v-15q-2 -49 -26 -80t-62 -31 q-27 0 -57 23.5t-45 23.5t-24 -10.5t-9 -27.5v-3z" />
<glyph unicode="&#xf2;" horiz-adv-x="562" d="M281 -12q-110 0 -180.5 73.5t-70.5 188.5t70.5 188.5t180.5 73.5t181 -73.5t71 -188.5t-71 -188.5t-181 -73.5zM130 700l145 2l55 -138l-100 -3zM139 250q0 -70 40 -114.5t102 -44.5t102.5 44.5t40.5 114.5q0 71 -40.5 116.5t-102.5 45.5t-102 -45.5t-40 -116.5z" />
<glyph unicode="&#xf3;" horiz-adv-x="562" d="M281 -12q-110 0 -180.5 73.5t-70.5 188.5t70.5 188.5t180.5 73.5t181 -73.5t71 -188.5t-71 -188.5t-181 -73.5zM139 250q0 -70 40 -114.5t102 -44.5t102.5 44.5t40.5 114.5q0 71 -40.5 116.5t-102.5 45.5t-102 -45.5t-40 -116.5zM232 564l54 136h143l-99 -138z" />
<glyph unicode="&#xf4;" horiz-adv-x="562" d="M281 -12q-110 0 -180.5 73.5t-70.5 188.5t70.5 188.5t180.5 73.5t181 -73.5t71 -188.5t-71 -188.5t-181 -73.5zM123 561l100 135h116l100 -135l-104 -2l-55 76l-51 -76zM139 250q0 -70 40 -114.5t102 -44.5t102.5 44.5t40.5 114.5q0 71 -40.5 116.5t-102.5 45.5 t-102 -45.5t-40 -116.5z" />
<glyph unicode="&#xf5;" horiz-adv-x="562" d="M281 -12q-110 0 -180.5 73.5t-70.5 188.5t70.5 188.5t180.5 73.5t181 -73.5t71 -188.5t-71 -188.5t-181 -73.5zM132 566v16q2 48 26 79.5t62 31.5q27 0 57 -24t45 -24t24.5 11t9.5 28v2l74 -4v-15q-2 -49 -26 -80t-62 -31q-27 0 -57 23.5t-45 23.5t-24 -10.5t-9 -27.5v-3 zM139 250q0 -70 40 -114.5t102 -44.5t102.5 44.5t40.5 114.5q0 71 -40.5 116.5t-102.5 45.5t-102 -45.5t-40 -116.5z" />
<glyph unicode="&#xf6;" horiz-adv-x="562" d="M281 -12q-110 0 -180.5 73.5t-70.5 188.5t70.5 188.5t180.5 73.5t181 -73.5t71 -188.5t-71 -188.5t-181 -73.5zM123 628q0 30 18.5 49t48.5 19t49 -19t19 -49t-19 -49.5t-49 -19.5t-48.5 19.5t-18.5 49.5zM139 250q0 -70 40 -114.5t102 -44.5t102.5 44.5t40.5 114.5 q0 71 -40.5 116.5t-102.5 45.5t-102 -45.5t-40 -116.5zM305 628q0 30 18.5 49t48.5 19t49 -19t19 -49t-19 -49.5t-49 -19.5t-48.5 19.5t-18.5 49.5z" />
<glyph unicode="&#xf7;" d="M80 272v96h440v-96h-440zM227 143q0 33 20.5 54t52.5 21t52.5 -21t20.5 -54q0 -32 -20.5 -53.5t-52.5 -21.5q-31 0 -52 21.5t-21 53.5zM227 496q0 33 20.5 54t52.5 21t52.5 -21t20.5 -54q0 -32 -20.5 -53.5t-52.5 -21.5q-31 0 -52 21.5t-21 53.5z" />
<glyph unicode="&#xf8;" horiz-adv-x="564" d="M100 -28l-64 55l47 56q-52 71 -52 167q0 115 70.5 188.5t180.5 73.5q73 0 130 -34l47 57l65 -55l-47 -57q57 -71 57 -173q0 -115 -71 -188.5t-181 -73.5q-75 0 -137 38zM140 250q0 -43 16 -78l189 226q-30 14 -63 14q-62 0 -102 -45.5t-40 -116.5zM214 108q31 -17 68 -17 q62 0 102.5 44.5t40.5 114.5q0 50 -20 87z" />
<glyph unicode="&#xf9;" horiz-adv-x="549" d="M237 -12q-83 0 -135.5 55t-52.5 143v314h105v-294q0 -49 32 -81t81 -32q52 0 86 35.5t34 90.5v281h105v-400l2 -100h-87l-18 76q-17 -40 -58 -64t-94 -24zM123 700l145 2l55 -138l-100 -3z" />
<glyph unicode="&#xfa;" horiz-adv-x="549" d="M237 -12q-83 0 -135.5 55t-52.5 143v314h105v-294q0 -49 32 -81t81 -32q52 0 86 35.5t34 90.5v281h105v-400l2 -100h-87l-18 76q-17 -40 -58 -64t-94 -24zM225 564l54 136h143l-99 -138z" />
<glyph unicode="&#xfb;" horiz-adv-x="549" d="M237 -12q-83 0 -135.5 55t-52.5 143v314h105v-294q0 -49 32 -81t81 -32q52 0 86 35.5t34 90.5v281h105v-400l2 -100h-87l-18 76q-17 -40 -58 -64t-94 -24zM116 561l100 135h116l100 -135l-104 -2l-55 76l-51 -76z" />
<glyph unicode="&#xfc;" horiz-adv-x="549" d="M237 -12q-83 0 -135.5 55t-52.5 143v314h105v-294q0 -49 32 -81t81 -32q52 0 86 35.5t34 90.5v281h105v-400l2 -100h-87l-18 76q-17 -40 -58 -64t-94 -24zM116 628q0 30 18.5 49t48.5 19t49 -19t19 -49t-19 -49.5t-49 -19.5t-48.5 19.5t-18.5 49.5zM298 628q0 30 18.5 49 t48.5 19t49 -19t19 -49t-19 -49.5t-49 -19.5t-48.5 19.5t-18.5 49.5z" />
<glyph unicode="&#xfd;" horiz-adv-x="487" d="M76 -110q72 5 99 69l23 57l-197 484h120l129 -362l118 362h118l-216 -572q-23 -62 -63 -99t-91 -41zM198 564l54 136h143l-99 -138z" />
<glyph unicode="&#xfe;" horiz-adv-x="585" d="M329 -12q-104 0 -166 88v-276h-105v880h105v-249q60 81 163 81q99 0 164.5 -73t65.5 -186q0 -115 -65.5 -190t-161.5 -75zM162 250q0 -69 40.5 -114t102.5 -45t102 45t40 114q0 70 -40 115.5t-102 45.5t-102.5 -45.5t-40.5 -115.5z" />
<glyph unicode="&#xff;" horiz-adv-x="487" d="M76 -110q72 5 99 69l23 57l-197 484h120l129 -362l118 362h118l-216 -572q-23 -62 -63 -99t-91 -41zM89 628q0 30 18.5 49t48.5 19t49 -19t19 -49t-19 -49.5t-49 -19.5t-48.5 19.5t-18.5 49.5zM271 628q0 30 18.5 49t48.5 19t49 -19t19 -49t-19 -49.5t-49 -19.5 t-48.5 19.5t-18.5 49.5z" />
<glyph unicode="&#x152;" horiz-adv-x="1036" d="M341 -12q-134 0 -221 95.5t-87 241.5t87 241.5t221 95.5q66 0 123.5 -25.5t88.5 -68.5v82h442v-102h-331v-171h286v-88h-286v-184h341v-105h-452v81q-30 -43 -87.5 -68t-124.5 -25zM149 326q0 -100 57 -164.5t145 -64.5q89 0 145.5 64.5t56.5 164.5q0 101 -56.5 165.5 t-145.5 64.5q-88 0 -145 -64.5t-57 -165.5z" />
<glyph unicode="&#x153;" horiz-adv-x="870" d="M265 -12q-103 0 -169 74t-66 188t66 188t169 74q114 0 181 -88q29 41 74 64t98 23q111 0 171.5 -86.5t49.5 -206.5h-340q7 -60 41.5 -95t83.5 -35q38 0 66 22.5t36 60.5l109 -35q-19 -65 -78.5 -107t-133.5 -42q-53 0 -100.5 24.5t-76.5 64.5q-67 -88 -181 -88zM139 250 q0 -70 35.5 -114.5t91.5 -44.5t91.5 44.5t35.5 114.5q0 71 -35.5 116.5t-91.5 45.5t-91.5 -45.5t-35.5 -116.5zM501 294h229q-7 54 -38 86t-76 32t-75.5 -32t-39.5 -86z" />
<glyph unicode="&#x178;" horiz-adv-x="577" d="M242 0v194l-241 456h132l165 -337l149 337h129l-224 -456v-194h-110zM140 760q0 30 18.5 49t48.5 19t49 -19t19 -49t-19 -49.5t-49 -19.5t-48.5 19.5t-18.5 49.5zM322 760q0 30 18.5 49t48.5 19t49 -19t19 -49t-19 -49.5t-49 -19.5t-48.5 19.5t-18.5 49.5z" />
<glyph unicode="&#x2c6;" d="M142 561l100 135h116l100 -135l-104 -2l-55 76l-51 -76z" />
<glyph unicode="&#x2dc;" d="M361 556q-27 0 -57 23.5t-45 23.5t-24 -10.5t-9 -27.5v-3l-75 4v16q2 48 26 79.5t62 31.5q27 0 57 -24t45 -24t24.5 11t9.5 28v2l74 -4v-15q-2 -49 -26 -80t-62 -31z" />
<glyph unicode="&#x2000;" horiz-adv-x="441" />
<glyph unicode="&#x2001;" horiz-adv-x="882" />
<glyph unicode="&#x2002;" horiz-adv-x="441" />
<glyph unicode="&#x2003;" horiz-adv-x="882" />
<glyph unicode="&#x2004;" horiz-adv-x="294" />
<glyph unicode="&#x2005;" horiz-adv-x="220" />
<glyph unicode="&#x2006;" horiz-adv-x="147" />
<glyph unicode="&#x2007;" horiz-adv-x="147" />
<glyph unicode="&#x2008;" horiz-adv-x="110" />
<glyph unicode="&#x2009;" horiz-adv-x="176" />
<glyph unicode="&#x200a;" horiz-adv-x="49" />
<glyph unicode="&#x2010;" horiz-adv-x="399" d="M22 211v92h355v-92h-355z" />
<glyph unicode="&#x2011;" horiz-adv-x="399" d="M22 211v92h355v-92h-355z" />
<glyph unicode="&#x2012;" horiz-adv-x="399" d="M22 211v92h355v-92h-355z" />
<glyph unicode="&#x2013;" horiz-adv-x="529" d="M22 211v92h485v-92h-485z" />
<glyph unicode="&#x2014;" horiz-adv-x="835" d="M14 211v92h806v-92h-806z" />
<glyph unicode="&#x2018;" horiz-adv-x="198" d="M167 603q-25 6 -47 -2.5t-28 -31.5q35 2 57 -18.5t22 -53.5q0 -32 -19.5 -52.5t-50.5 -20.5q-35 0 -57.5 29t-22.5 75q0 66 43.5 104t106.5 27z" />
<glyph unicode="&#x2019;" horiz-adv-x="198" d="M31 479q25 -6 47 2.5t28 31.5q-35 -2 -57 18.5t-22 53.5q0 32 19.5 52.5t50.5 20.5q35 0 57.5 -29t22.5 -75q0 -66 -43.5 -104t-106.5 -27z" />
<glyph unicode="&#x201a;" horiz-adv-x="219" d="M35 -37q25 -6 47 2.5t28 31.5q-35 -2 -57 18.5t-22 53.5q0 32 19.5 52.5t50.5 20.5q35 0 57.5 -29t22.5 -75q0 -66 -43.5 -104t-106.5 -27z" />
<glyph unicode="&#x201c;" horiz-adv-x="377" d="M167 603q-25 6 -47 -2.5t-28 -31.5q35 2 57 -18.5t22 -53.5q0 -32 -19.5 -52.5t-50.5 -20.5q-35 0 -57.5 29t-22.5 75q0 66 43.5 104t106.5 27zM200 528q0 66 43.5 104t106.5 27l-4 -56q-25 6 -47 -2.5t-28 -31.5q35 2 57 -18.5t22 -53.5q0 -32 -19.5 -52.5t-50.5 -20.5 q-35 0 -57.5 29t-22.5 75z" />
<glyph unicode="&#x201d;" horiz-adv-x="377" d="M31 476q25 -6 47 2.5t28 31.5q-35 -2 -57 18.5t-22 53.5q0 32 19.5 52.5t50.5 20.5q35 0 57.5 -29t22.5 -75q0 -66 -43.5 -104t-106.5 -27zM206 420l4 56q25 -6 47 2.5t28 31.5q-35 -2 -57 18.5t-22 53.5q0 32 19.5 52.5t50.5 20.5q35 0 57.5 -29t22.5 -75 q0 -66 -43.5 -104t-106.5 -27z" />
<glyph unicode="&#x201e;" horiz-adv-x="398" d="M214 -37q25 -6 47 2.5t28 31.5q-35 -2 -57 18.5t-22 53.5q0 32 19.5 52.5t50.5 20.5q35 0 57.5 -29t22.5 -75q0 -66 -43.5 -104t-106.5 -27zM31 -93l4 56q25 -6 47 2.5t28 31.5q-35 -2 -57 18.5t-22 53.5q0 32 19.5 52.5t50.5 20.5q35 0 57.5 -29t22.5 -75 q0 -66 -43.5 -104t-106.5 -27z" />
<glyph unicode="&#x2022;" horiz-adv-x="496" d="M248 150q-54 0 -89 36t-35 90t35 90t89 36t89 -36t35 -90t-35 -90t-89 -36z" />
<glyph unicode="&#x2026;" horiz-adv-x="638" d="M105 -8q-31 0 -52 21.5t-21 53.5q0 33 20.5 54t52.5 21t52.5 -21t20.5 -54q0 -32 -20.5 -53.5t-52.5 -21.5zM242 67q0 33 20.5 54t52.5 21t52.5 -21t20.5 -54q0 -32 -20.5 -53.5t-52.5 -21.5q-31 0 -52 21.5t-21 53.5zM452 67q0 33 20.5 54t52.5 21t52.5 -21t20.5 -54 q0 -32 -20.5 -53.5t-52.5 -21.5q-31 0 -52 21.5t-21 53.5z" />
<glyph unicode="&#x202f;" horiz-adv-x="176" />
<glyph unicode="&#x2039;" horiz-adv-x="334" d="M208 34l-179 216l177 220l72 -69l-129 -150l132 -148z" />
<glyph unicode="&#x203a;" horiz-adv-x="334" d="M126 34l-73 69l132 148l-129 150l72 69l177 -220z" />
<glyph unicode="&#x205f;" horiz-adv-x="220" />
<glyph unicode="&#x2070;" horiz-adv-x="333" d="M167 332q-63 0 -103 45.5t-40 116.5t40 116.5t103 45.5q62 0 102 -45.5t40 -116.5t-40 -116.5t-102 -45.5zM100 495q0 -41 18.5 -67t48.5 -26q29 0 47.5 26t18.5 67t-18.5 67t-47.5 26q-30 0 -48.5 -26t-18.5 -67z" />
<glyph unicode="&#x2074;" horiz-adv-x="276" d="M15 472q53 41 53 159v19h75v-13q0 -120 -61 -171h78v103l71 12v-115h34v-68h-34v-60h-71v60h-145v74z" />
<glyph unicode="&#x20ac;" horiz-adv-x="714" d="M6 345v78h90q26 108 107 173.5t192 65.5q109 0 188 -64.5t93 -162.5l-111 -34q-11 69 -58 112t-111 43q-61 0 -108 -36t-69 -97h249l-37 -78h-227q-1 -7 -1 -20t1 -20h242l-34 -80h-192q23 -59 70 -93.5t109 -34.5q69 0 116.5 43.5t55.5 114.5l113 -43q-20 -100 -98 -162 t-187 -62q-112 0 -193.5 64.5t-109.5 172.5h-90v80h78v20v20h-78z" />
<glyph unicode="&#x2122;" horiz-adv-x="679" d="M307 338v312h103l68 -216l65 216h101v-312h-77v207l-66 -206h-49l-68 206v-207h-77zM4 577v73h267v-73h-95v-239h-77v239h-95z" />
<glyph unicode="&#x25fc;" horiz-adv-x="500" d="M0 500h500v-500h-500v500z" />
<glyph unicode="&#xfb01;" horiz-adv-x="556" d="M90 533q0 52 25 89.5t62.5 53.5t81.5 14.5t80 -22.5l-29 -98q-36 25 -75.5 12.5t-39.5 -54.5v-56h120v-97h-120v-375h-105v375h-76v97h76v61zM376 630q0 32 19.5 52t50.5 20t50.5 -20t19.5 -52t-19.5 -52.5t-50.5 -20.5t-50.5 20.5t-19.5 52.5zM393 0v500h105v-500h-105z " />
<glyph unicode="&#xfb02;" horiz-adv-x="558" d="M90 533q0 52 25 89.5t62.5 53.5t81.5 14.5t80 -22.5l-29 -98q-36 25 -75.5 12.5t-39.5 -54.5v-56h120v-97h-120v-375h-105v375h-76v97h76v61zM394 0v680h105v-680h-105z" />
<glyph horiz-adv-x="220" d="M57 500h105v-500h-105v500zM40 630q0 32 19.5 52t50.5 20t50.5 -20t19.5 -52t-19.5 -52.5t-50.5 -20.5t-50.5 20.5t-19.5 52.5z" />
</font>
</defs>
</svg>
