<?xml version="1.0" standalone="no"?>
<!DOCTYPE svg PUBLIC "-//W3C//DTD SVG 1.1//EN" "http://www.w3.org/Graphics/SVG/1.1/DTD/svg11.dtd" >
<svg xmlns="http://www.w3.org/2000/svg" xmlns:xlink="http://www.w3.org/1999/xlink" version="1.1">
<metadata></metadata>
<defs>
<font id="apfel_grotezksatt" horiz-adv-x="600" >
<font-face units-per-em="1000" ascent="800" descent="-200" />
<missing-glyph horiz-adv-x="180" />
<glyph unicode="A&#x2f;O" horiz-adv-x="670" d="M332 -12q-153 0 -240 106.5t-69 272.5l403 1q-7 51 -32 79.5t-62 28.5q-30 0 -54 -19t-30 -49l-212 79q27 78 106.5 126.5t181.5 48.5q142 0 234 -95t92 -242t-89.5 -242t-228.5 -95zM244 284q1 -48 27 -78t65 -30q38 0 62 28.5t30 79.5h-184z" />
<glyph unicode="a&#x2f;o" horiz-adv-x="540" d="M268 -12q-120 0 -189.5 83t-56.5 211h313q-7 33 -26 51.5t-47 18.5q-22 0 -38.5 -11t-21.5 -29l-166 68q24 58 86.5 95t141.5 37q113 0 184.5 -74.5t71.5 -189.5t-70 -187.5t-182 -72.5zM210 214q1 -28 19 -45t43 -17q48 0 63 62h-125z" />
<glyph unicode="E&#x2f;I" horiz-adv-x="592" d="M305 -12q-120 0 -199 58.5t-82 149.5l212 40q2 -35 21.5 -55.5t50.5 -20.5q28 0 45 17t17 45q0 30 -19.5 48t-52.5 18h-22v96h24q30 0 47 15t17 41q0 25 -15.5 39.5t-41.5 14.5q-28 0 -45.5 -17t-18.5 -47l-199 46q9 79 87.5 132.5t188.5 53.5q103 0 171.5 -49.5 t68.5 -124.5q0 -52 -35.5 -92t-97.5 -52q70 -13 110.5 -56.5t40.5 -103.5q0 -85 -77 -140.5t-196 -55.5z" />
<glyph unicode="e&#x2f;i" horiz-adv-x="528" d="M280 -12q-100 0 -174.5 47t-89.5 121l188 60q4 -27 25.5 -43.5t54.5 -16.5q26 0 41 9t15 25q0 14 -14.5 23t-37.5 9h-55v66h43q25 0 39.5 9t14.5 23t-14.5 23t-39.5 9q-27 0 -45.5 -13t-22.5 -35l-176 68q22 62 88 101t152 39q94 0 154 -41.5t60 -106.5q0 -35 -21 -64 t-55 -42q44 -11 71 -43t27 -75q0 -67 -64 -109.5t-164 -42.5z" />
<glyph unicode="tt" horiz-adv-x="780" d="M408 16q-47 -24 -105.5 -28t-111 12t-88 60t-35.5 108v180h-52v152h18q19 0 30.5 12t11.5 32v96h192v-140h138q19 0 30.5 12t11.5 32v96h192v-140h122v-152h-122v-120q0 -41 32.5 -56.5t71.5 0.5l36 -156q-47 -24 -105.5 -28t-111 12t-88 60t-35.5 108v180h-172v-120 q0 -41 32.5 -56.5t71.5 0.5z" />
<glyph unicode="ttt" horiz-adv-x="1148" d="M408 16q-47 -24 -105.5 -28t-111 12t-88 60t-35.5 108v180h-52v152h18q19 0 30.5 12t11.5 32v96h192v-140h138q19 0 30.5 12t11.5 32v96h192v-140h134q19 0 30.5 12t11.5 32v96h192v-140h122v-152h-122v-120q0 -41 32.5 -56.5t71.5 0.5l36 -156q-47 -24 -105.5 -28 t-111 12t-88 60t-35.5 108v180h-168v-120q0 -41 32.5 -56.5t71.5 0.5l36 -156q-47 -24 -105.5 -28t-111 12t-88 60t-35.5 108v180h-172v-120q0 -41 32.5 -56.5t71.5 0.5z" />
<glyph horiz-adv-x="0" />
<glyph horiz-adv-x="333" />
<glyph unicode=" "  horiz-adv-x="180" />
<glyph unicode="&#x09;" horiz-adv-x="180" />
<glyph unicode="&#xa0;" horiz-adv-x="180" />
<glyph unicode="!" horiz-adv-x="264" d="M64 256l-32 424h200l-32 -424h-136zM28 92q0 45 28.5 72.5t75.5 27.5t75.5 -27.5t28.5 -72.5t-28.5 -72.5t-75.5 -27.5t-75.5 27.5t-28.5 72.5z" />
<glyph unicode="&#x22;" horiz-adv-x="516" d="M44 441q70 -13 92 25q-42 3 -69 30t-27 66q0 42 28 69t72 27q51 0 83.5 -38.5t32.5 -98.5q0 -89 -64 -135.5t-156 -31.5zM272 354l8 87q70 -13 92 25q-42 3 -69 30t-27 66q0 42 28 69t72 27q51 0 83.5 -38.5t32.5 -98.5q0 -89 -64 -135.5t-156 -31.5z" />
<glyph unicode="#" horiz-adv-x="644" d="M88 -32v127h-56v154h56v99h-56v152h56v118h200v-118h68v118h200v-118h56v-152h-56v-99h56v-154h-56v-127h-200v127h-68v-127h-200zM288 249h68v99h-68v-99z" />
<glyph unicode="$" horiz-adv-x="596" d="M4 204l216 40q3 -35 27 -55.5t61 -20.5q29 0 46.5 13t17.5 35q0 25 -25 43.5t-63 29t-82 26.5t-82 33.5t-63 51.5t-25 80q0 66 50 113.5t134 62.5v94h160v-97q83 -19 135.5 -69.5t56.5 -119.5l-208 -46q-4 31 -22.5 49.5t-45.5 18.5q-22 0 -36 -11t-14 -29 q0 -23 25.5 -40t63.5 -26t82 -24.5t82 -33.5t63.5 -53.5t25.5 -84.5q0 -73 -56.5 -124.5t-151.5 -66.5v-101h-160v104q-95 19 -152.5 74.5t-59.5 133.5z" />
<glyph unicode="%" horiz-adv-x="788" d="M176 334q-68 0 -112 45t-44 115t44 115t112 45t112 -45t44 -115t-44 -115t-112 -45zM96 48l480 630l94 -76l-478 -630zM142 494q0 -17 9.5 -27.5t24.5 -10.5t24.5 10.5t9.5 27.5t-9.5 27.5t-24.5 10.5t-24.5 -10.5t-9.5 -27.5zM436 156q0 70 44 115t112 45t112 -45 t44 -115t-44 -115t-112 -45t-112 45t-44 115zM558 156q0 -17 9.5 -27.5t24.5 -10.5t24.5 10.5t9.5 27.5t-9.5 27.5t-24.5 10.5t-24.5 -10.5t-9.5 -27.5z" />
<glyph unicode="&#x26;" horiz-adv-x="674" d="M310 -12q-123 0 -200.5 54.5t-77.5 141.5q0 57 33 99.5t93 60.5q-45 18 -69.5 55t-24.5 85q0 80 69.5 129t178.5 49q64 0 112 -18l-72 -164q-14 14 -42 14q-26 0 -42 -14.5t-16 -39.5t16 -39.5t42 -14.5h24q23 0 38.5 17.5t15.5 44.5l200 48v-112h60v-76h-60v-124 q0 -87 -77.5 -141.5t-200.5 -54.5zM244 225q0 -30 18.5 -47.5t49.5 -17.5t49.5 17.5t18.5 47.5v65h-70q-30 0 -48 -17.5t-18 -47.5z" />
<glyph unicode="'" horiz-adv-x="280" d="M44 441q70 -13 92 25q-42 3 -69 30t-27 66q0 42 28 69t72 27q51 0 83.5 -38.5t32.5 -98.5q0 -89 -64 -135.5t-156 -31.5z" />
<glyph unicode="(" horiz-adv-x="352" d="M132 -224q-53 108 -76.5 219t-23.5 251q0 144 22.5 254t73.5 212l204 -76q-108 -165 -108 -392q0 -115 26.5 -206.5t85.5 -185.5z" />
<glyph unicode=")" horiz-adv-x="352" d="M16 -148q59 94 85.5 185.5t26.5 206.5q0 227 -108 392l204 76q51 -102 73.5 -212t22.5 -254q0 -140 -23.5 -251t-76.5 -219z" />
<glyph unicode="*" horiz-adv-x="388" d="M120 368l51 110l-3 2l-72 -98l-74 128l121 12v4l-121 12l74 128l72 -98l3 2l-51 110h148l-51 -110l3 -2l72 98l74 -128l-121 -12v-4l121 -12l-74 -128l-72 98l-3 -2l51 -110h-148z" />
<glyph unicode="+" d="M208 90v136h-128v188h128v132h184v-132h128v-188h-128v-136h-184z" />
<glyph unicode="," horiz-adv-x="292" d="M40 -25q70 -13 92 25q-42 3 -69 30t-27 66q0 42 28 69t72 27q51 0 83.5 -38.5t32.5 -98.5q0 -89 -64 -135.5t-156 -31.5z" />
<glyph unicode="-" horiz-adv-x="412" d="M16 184v144h380v-144h-380z" />
<glyph unicode="." horiz-adv-x="280" d="M136 -8q-47 0 -75.5 27.5t-28.5 72.5t28.5 72.5t75.5 27.5t75.5 -27.5t28.5 -72.5t-28.5 -72.5t-75.5 -27.5z" />
<glyph unicode="/" horiz-adv-x="380" d="M188 -216l-204 52l200 860l200 -48z" />
<glyph unicode="0" horiz-adv-x="624" d="M312 -12q-126 0 -207 95t-81 242t81 242t207 95t207 -95t81 -242t-81 -242t-207 -95zM228 326q0 -65 23 -104.5t61 -39.5t61 39.5t23 104.5t-23 104.5t-61 39.5t-61 -39.5t-23 -104.5z" />
<glyph unicode="1" horiz-adv-x="390" d="M136 0v336h-116v184h34q40 0 64 23t24 61v46h206v-650h-212z" />
<glyph unicode="2" horiz-adv-x="536" d="M20 48q0 101 54 167.5t186 140.5q56 32 56 72q0 22 -12 35t-32 13q-24 0 -39 -18.5t-17 -49.5l-200 24q7 101 78 165.5t176 64.5q104 0 171 -55.5t67 -142.5q0 -94 -90 -156q-18 -13 -59.5 -36t-62 -40.5t-28.5 -39.5h230v-192h-478v48z" />
<glyph unicode="3" horiz-adv-x="588" d="M300 -12q-117 0 -194.5 64.5t-77.5 163.5l208 20q0 -28 15.5 -46t40.5 -18t40.5 19t15.5 49q0 44 -30.5 60t-57.5 -4l-52 80l140 92h-284v182h468v-204l-99 -67q56 -20 91.5 -70.5t35.5 -112.5q0 -90 -74 -149t-186 -59z" />
<glyph unicode="4" horiz-adv-x="592" d="M28 316q53 50 76.5 124.5t23.5 189.5v20h212q0 -143 -37 -229t-119 -133h144v132l192 48v-180h64v-180h-64v-108h-192v108h-300v208z" />
<glyph unicode="5" horiz-adv-x="568" d="M288 -12q-115 0 -189.5 64t-74.5 164l208 16q0 -27 14.5 -43.5t37.5 -16.5q25 0 40.5 19.5t15.5 50.5t-16.5 50.5t-41.5 19.5q-42 0 -58 -44l-166 44l32 338h420v-182h-324l-5 -96q59 48 145 48q97 0 159.5 -58.5t62.5 -149.5q0 -98 -73 -161t-187 -63z" />
<glyph unicode="6" horiz-adv-x="588" d="M316 -12q-130 0 -209 89.5t-79 238.5q0 152 83 249t213 97q96 0 161 -53t71 -137l-196 -36q-3 24 -19 38t-41 14q-34 0 -55 -27.5t-24 -74.5q50 22 111 22q102 0 167 -57t65 -147q0 -94 -70 -155t-178 -61zM248 240q0 -31 14.5 -49.5t39.5 -18.5t39.5 18.5t14.5 49.5 t-14.5 49.5t-39.5 18.5t-39.5 -18.5t-14.5 -49.5z" />
<glyph unicode="7" horiz-adv-x="508" d="M100 0q0 181 63.5 292t204.5 174h-356v184h492v-196q-86 -71 -125 -175.5t-39 -258.5v-20h-240z" />
<glyph unicode="8" horiz-adv-x="620" d="M310 -12q-123 0 -200.5 54.5t-77.5 141.5q0 57 33 99.5t93 60.5q-45 18 -69.5 54t-24.5 82q0 80 69 131t177 51t177 -51t69 -131q0 -46 -24.5 -82t-69.5 -54q60 -18 93 -60.5t33 -99.5q0 -87 -77.5 -141.5t-200.5 -54.5zM244 225q0 -30 18 -47.5t48 -17.5t48 17.5 t18 47.5t-18 47.5t-48 17.5t-48 -17.5t-18 -47.5zM252 440q0 -25 16 -39.5t42 -14.5t42 14.5t16 39.5t-16 39.5t-42 14.5t-42 -14.5t-16 -39.5z" />
<glyph unicode="9" horiz-adv-x="580" d="M268 -12q-97 0 -164 53.5t-76 136.5l196 42q3 -24 19 -38t41 -14q33 0 52.5 24.5t22.5 69.5q-43 -18 -99 -18q-100 0 -164 57.5t-64 146.5q0 94 67 154t173 60q129 0 204.5 -90t75.5 -240q0 -153 -79 -248.5t-205 -95.5zM224 416q0 -31 17 -49.5t43 -18.5t43 18.5 t17 49.5t-17 49.5t-43 18.5t-43 -18.5t-17 -49.5z" />
<glyph unicode=":" horiz-adv-x="288" d="M144 296q-47 0 -75.5 27.5t-28.5 72.5t28.5 72.5t75.5 27.5t75.5 -27.5t28.5 -72.5t-28.5 -72.5t-75.5 -27.5zM40 92q0 45 28.5 72.5t75.5 27.5t75.5 -27.5t28.5 -72.5t-28.5 -72.5t-75.5 -27.5t-75.5 27.5t-28.5 72.5z" />
<glyph unicode=";" horiz-adv-x="300" d="M144 296q-47 0 -75.5 27.5t-28.5 72.5t28.5 72.5t75.5 27.5t75.5 -27.5t28.5 -72.5t-28.5 -72.5t-75.5 -27.5zM40 -112l8 87q70 -13 92 25q-42 3 -69 30t-27 66q0 42 28 69t72 27q51 0 83.5 -38.5t32.5 -98.5q0 -89 -64 -135.5t-156 -31.5z" />
<glyph unicode="&#x3c;" d="M444 74l-364 154v180l362 164l64 -196l-250 -52l252 -52z" />
<glyph unicode="=" d="M92 140v160h416v-160h-416zM92 341v159h416v-159h-416z" />
<glyph unicode="&#x3e;" d="M156 74l-64 198l252 52l-250 52l64 196l362 -164v-180z" />
<glyph unicode="?" horiz-adv-x="512" d="M162 244q0 35 15 62.5t36 44.5t42 32t36 33.5t15 41.5q0 22 -12 35t-32 13q-24 0 -38 -18.5t-14 -49.5l-204 24q3 101 74.5 165.5t181.5 64.5q103 0 169.5 -56.5t66.5 -143.5q0 -43 -18 -77t-45.5 -55.5t-55 -39t-50 -37.5t-27.5 -43h-140v4zM138 92q0 45 28.5 72.5 t75.5 27.5t75.5 -27.5t28.5 -72.5t-28.5 -72.5t-75.5 -27.5t-75.5 27.5t-28.5 72.5z" />
<glyph unicode="@" horiz-adv-x="756" d="M384 -56q-158 0 -261 100.5t-103 257.5q0 158 99.5 261t252.5 103q158 0 261 -97t103 -249q0 -101 -49 -165.5t-125 -64.5q-74 0 -112 56q-41 -46 -102 -46q-71 0 -117.5 55.5t-46.5 140.5q0 87 46.5 143.5t117.5 56.5q51 0 90 -33l18 25h90v-262q0 -34 28 -34 q42 0 42 108q0 115 -65.5 185.5t-174.5 70.5q-108 0 -170 -67.5t-62 -184.5q0 -116 63.5 -182t172.5 -66q73 0 116 28l48 -104q-66 -36 -160 -36zM332 300q0 -26 11.5 -41.5t30.5 -14.5q19 -1 30.5 14.5t11.5 41.5t-11.5 41.5t-30.5 14.5q-19 1 -30.5 -14.5t-11.5 -41.5z " />
<glyph unicode="A" horiz-adv-x="672" d="M0 0l202 650h264l206 -650h-232l-30 132h-150l-28 -132h-232zM282 232h104l-54 236z" />
<glyph unicode="B" horiz-adv-x="612" d="M42 0v650h358q74 0 121 -45t47 -115q0 -52 -32 -92.5t-84 -55.5q65 -12 105.5 -59t40.5 -111q0 -76 -48.5 -124t-125.5 -48h-382zM254 162h68q30 0 48 17t18 45t-17.5 45t-46.5 17h-70v-124zM254 378h46q28 0 45 15t17 41q0 25 -16 40.5t-42 15.5h-50v-112z" />
<glyph unicode="C" horiz-adv-x="656" d="M342 -12q-142 0 -232 94t-90 242q0 149 90 243.5t232 94.5q110 0 191 -66.5t99 -170.5l-196 -49q-3 43 -28.5 68.5t-65.5 25.5q-49 0 -77.5 -38.5t-28.5 -103.5q0 -67 30 -106.5t80 -39.5q41 0 69 26t33 70l188 -78q-21 -95 -103 -153.5t-191 -58.5z" />
<glyph unicode="D" horiz-adv-x="652" d="M42 0v650h278q137 0 224.5 -91t87.5 -234t-87.5 -234t-224.5 -91h-278zM254 178h50q51 0 81.5 40.5t30.5 107.5t-30.5 107.5t-81.5 40.5h-50v-296z" />
<glyph unicode="E" horiz-adv-x="552" d="M42 0v650h474v-168h-262v-94h194v-112h-194v-106h274v-170h-486z" />
<glyph unicode="F" horiz-adv-x="512" d="M42 0v650h464v-184h-252v-108h204v-132h-204v-226h-212z" />
<glyph unicode="G" horiz-adv-x="700" d="M312 -12q-128 0 -210 92t-82 236q0 152 91.5 249t234.5 97q115 0 197 -66t97 -171l-196 -45q-3 44 -29.5 70t-68.5 26q-52 0 -83 -41t-31 -111t31.5 -113t82.5 -43q38 0 63.5 24.5t32.5 67.5h-152v96h338l44 -356h-128l-39 70q-74 -82 -193 -82z" />
<glyph unicode="H" horiz-adv-x="672" d="M418 0v256h-164v-256h-212v650h212v-242h164v242h212v-650h-212z" />
<glyph unicode="I" horiz-adv-x="296" d="M42 0v650h212v-650h-212z" />
<glyph unicode="J" horiz-adv-x="604" d="M296 -12q-118 0 -194 67.5t-76 172.5v140h210v-118q0 -29 17 -47.5t43 -18.5q27 0 44.5 19t17.5 49v398h212v-418q0 -107 -77 -175.5t-197 -68.5z" />
<glyph unicode="K" horiz-adv-x="672" d="M420 0l-108 242l-58 -68v-174h-212v650h212v-211l130 211h276l-220 -257l232 -393h-252z" />
<glyph unicode="L" horiz-adv-x="520" d="M42 0v650h212v-456h262v-194h-474z" />
<glyph unicode="M" horiz-adv-x="804" d="M42 0v650h270l94 -502l92 502h264v-650h-204v488l-98 -488h-114l-100 488v-488h-204z" />
<glyph unicode="N" horiz-adv-x="680" d="M42 0v650h224l168 -406v406h204v-650h-224l-168 392v-392h-204z" />
<glyph unicode="O" horiz-adv-x="692" d="M346 -12q-144 0 -235 94t-91 243t91 243t235 94t235 -94t91 -243t-91 -243t-235 -94zM242 326q0 -66 28 -105t76 -39t76 39t28 105t-28 105t-76 39t-76 -39t-28 -105z" />
<glyph unicode="P" horiz-adv-x="620" d="M42 0v650h348q98 0 160 -65t62 -167q0 -104 -65.5 -170t-168.5 -66h-120v-182h-216zM258 310h56q38 0 60 21.5t22 58.5t-22 58.5t-60 21.5h-56v-160z" />
<glyph unicode="Q" horiz-adv-x="680" d="M336 -12q-139 0 -227.5 94t-88.5 241q0 149 90 244t230 95t230 -93.5t90 -240.5q0 -144 -85 -238l85 -102l-124 -100l-92 117q-51 -17 -108 -17zM236 326q0 -66 29 -105t79 -39q46 0 73 39t27 105t-28 105t-75 39q-48 0 -76.5 -39t-28.5 -105z" />
<glyph unicode="R" horiz-adv-x="660" d="M42 0v650h382q92 0 150 -61t58 -157q0 -63 -28 -112.5t-77 -77.5l117 -242h-240l-64 212h-82v-212h-216zM258 324h70q40 0 64 21.5t24 56.5t-23 55.5t-61 20.5h-74v-154z" />
<glyph unicode="S" horiz-adv-x="596" d="M304 -12q-129 0 -213 60t-87 156l216 40q3 -35 27 -55.5t61 -20.5q29 0 46.5 13t17.5 35q0 25 -25 43.5t-63 29t-82 26.5t-82 33.5t-63 51.5t-25 80q0 80 71.5 131t184.5 51q117 0 195.5 -55.5t84.5 -142.5l-208 -46q-4 31 -22.5 49.5t-45.5 18.5q-22 0 -36 -11t-14 -29 q0 -23 25.5 -40t63.5 -26t82 -24.5t82 -33.5t63.5 -53.5t25.5 -84.5q0 -86 -78 -141t-202 -55z" />
<glyph unicode="T" horiz-adv-x="588" d="M188 0v458h-186v192h584v-192h-186v-458h-212z" />
<glyph unicode="U" horiz-adv-x="640" d="M320 -12q-131 0 -208.5 71.5t-77.5 192.5v398h212v-394q0 -38 20 -61t54 -23t54 23t20 61v394h212v-398q0 -121 -77.5 -192.5t-208.5 -71.5z" />
<glyph unicode="V" horiz-adv-x="660" d="M188 0l-188 650h234l102 -464l92 464h232l-192 -650h-280z" />
<glyph unicode="W" horiz-adv-x="792" d="M88 0l-64 650h218l34 -458l58 456h124l66 -456l26 458h214l-68 -650h-236l-64 492l-62 -492h-246z" />
<glyph unicode="X" horiz-adv-x="652" d="M400 0l-74 152l-76 -152h-250l204 326l-202 324h250l70 -158l66 158h248l-196 -320l212 -330h-252z" />
<glyph unicode="Y" horiz-adv-x="644" d="M224 0v200l-226 450h248l86 -262l70 262h244l-210 -450v-200h-212z" />
<glyph unicode="Z" horiz-adv-x="556" d="M24 0v176l292 296h-284v178h492v-174l-288 -296h296v-180h-508z" />
<glyph unicode="[" horiz-adv-x="362" d="M42 -200v880h316v-152h-112v-574h114v-154h-318z" />
<glyph unicode="\" horiz-adv-x="380" d="M192 -216l-196 864l202 48l198 -860z" />
<glyph unicode="]" horiz-adv-x="362" d="M320 -200h-318v154h114v574h-112v152h316v-880z" />
<glyph unicode="^" horiz-adv-x="424" d="M4 354l124 296h168l124 -296l-160 -52l-48 172l-48 -172z" />
<glyph unicode="_" horiz-adv-x="520" d="M0 -200v172h520v-172h-520z" />
<glyph unicode="`" d="M228 540l-132 168l248 20l56 -168z" />
<glyph unicode="a" horiz-adv-x="552" d="M186 -12q-72 0 -119 39.5t-47 100.5q0 51 34 89t94 51l152 34q16 3 16 20q0 38 -34 38q-39 0 -46 -44l-192 68q27 59 88 93.5t144 34.5q107 0 173.5 -57t66.5 -147v-208l2 -100h-170l-19 50q-51 -62 -143 -62zM232 178q0 -16 9.5 -25t26.5 -9q22 0 35 17.5t13 46.5v19 q-2 -1 -13 -3.5t-17 -3.5l-20 -4q-16 -3 -25 -13.5t-9 -24.5z" />
<glyph unicode="b" horiz-adv-x="590" d="M360 -12q-78 0 -136 56l-34 -44h-148v680h200v-209q52 41 118 41q92 0 151 -73t59 -187q0 -116 -59 -190t-151 -74zM232 251q0 -39 20 -62t54 -23t54 23t20 62t-20 62t-54 23t-54 -23t-20 -62z" />
<glyph unicode="c" horiz-adv-x="534" d="M274 -12q-111 0 -182.5 74t-71.5 188q0 115 73 188.5t187 73.5q90 0 154 -52t76 -136l-172 -48q-1 25 -17 39.5t-41 14.5q-30 0 -48 -21.5t-18 -56.5q0 -37 18 -58.5t48 -21.5q26 0 43.5 17.5t20.5 46.5l174 -64q-15 -81 -83 -132.5t-161 -51.5z" />
<glyph unicode="d" horiz-adv-x="592" d="M232 -12q-93 0 -152.5 73t-59.5 187q0 116 59.5 190t152.5 74q67 0 118 -39v207h200v-580l2 -100h-150l-34 44q-56 -56 -136 -56zM210 251q0 -37 21 -61t54 -24t54 24t21 61t-21 61t-54 24t-54 -24t-21 -61z" />
<glyph unicode="e" horiz-adv-x="544" d="M282 -12q-115 0 -188.5 73.5t-73.5 188.5t72 188.5t184 73.5q120 0 189 -84t57 -208h-314q16 -68 76 -68q50 0 62 40l168 -76q-24 -57 -88.5 -92.5t-143.5 -35.5zM207 288h129q-3 29 -20 46.5t-42 17.5t-43 -17t-24 -47z" />
<glyph unicode="f" horiz-adv-x="436" d="M80 484q0 74 38 124t94 67.5t116 16t108 -23.5l-36 -152q-42 20 -81 3.5t-39 -59.5v-24h116v-152h-116v-284h-200v284h-76v152h76v48z" />
<glyph unicode="g" horiz-adv-x="576" d="M268 -212q-100 0 -169.5 48.5t-78.5 123.5l208 40q1 -30 16.5 -47t39.5 -17q26 0 41 19.5t15 52.5v57q-47 -25 -104 -25q-97 0 -158.5 66t-61.5 170t60.5 170t155.5 66q90 0 150 -58l46 46h108v-472q0 -106 -76 -173t-192 -67zM212 238q0 -41 19 -65.5t51 -24.5t51 24.5 t19 65.5t-19 65.5t-51 24.5t-51 -24.5t-19 -65.5z" />
<glyph unicode="h" horiz-adv-x="578" d="M42 0v680h200v-222q43 54 126 54q76 0 125 -53t49 -135v-324h-200v272q0 25 -13.5 40.5t-34.5 15.5q-23 0 -37.5 -17t-14.5 -43v-268h-200z" />
<glyph unicode="i" horiz-adv-x="280" d="M40 500h200v-500h-200v500zM38 636q0 43 28 69.5t74 26.5t74 -26.5t28 -69.5t-28 -69.5t-74 -26.5t-74 26.5t-28 69.5z" />
<glyph unicode="j" horiz-adv-x="296" d="M-20 -52q35 3 55.5 26t20.5 58v468h200v-544q0 -72 -53 -125t-137 -63zM54 636q0 43 28 69.5t74 26.5t74 -26.5t28 -69.5t-28 -69.5t-74 -26.5t-74 26.5t-28 69.5z" />
<glyph unicode="k" horiz-adv-x="596" d="M368 0l-84 168l-42 -46v-122h-200v680h200v-311l96 131h248l-176 -193l188 -307h-230z" />
<glyph unicode="l" horiz-adv-x="284" d="M42 0v680h200v-680h-200z" />
<glyph unicode="m" horiz-adv-x="824" d="M40 0v500h148l39 -53q17 30 51 47.5t76 17.5q46 0 83.5 -21.5t54.5 -57.5q16 36 53.5 57.5t84.5 21.5q69 0 113.5 -47.5t44.5 -120.5v-344h-196v284q0 19 -11.5 31.5t-28.5 12.5q-19 0 -31.5 -14t-12.5 -36v-278h-188v282q0 20 -11.5 33t-28.5 13q-19 0 -31.5 -14.5 t-12.5 -37.5v-276h-196z" />
<glyph unicode="n" horiz-adv-x="576" d="M40 0v500h148l36 -54q18 30 56 48t84 18q77 0 126.5 -52.5t49.5 -135.5v-324h-200v272q0 25 -13.5 40.5t-34.5 15.5q-23 0 -37.5 -17t-14.5 -43v-268h-200z" />
<glyph unicode="o" horiz-adv-x="548" d="M274 -12q-112 0 -183 73t-71 189t71 189t183 73t183 -73t71 -189t-71 -189t-183 -73zM208 251q0 -37 18 -59t48 -22t48 22t18 59t-18 59t-48 22t-48 -22t-18 -59z" />
<glyph unicode="p" horiz-adv-x="588" d="M368 -12q-75 0 -128 55v-243h-200v700h148l42 -55q57 67 140 67q86 0 142 -73t56 -187q0 -116 -56 -190t-144 -74zM230 251q0 -39 20 -62t54 -23t54 23t20 62t-20 62t-54 23t-54 -23t-20 -62z" />
<glyph unicode="q" horiz-adv-x="588" d="M224 -12q-89 0 -146.5 73t-57.5 187q0 116 57.5 190t146.5 74q80 0 133 -58l43 58h148v-712h-200v237q-54 -49 -124 -49zM210 251q0 -37 21 -61t54 -24t54 24t21 61t-21 61t-54 24t-54 -24t-21 -61z" />
<glyph unicode="r" horiz-adv-x="400" d="M40 0v500h148l39 -50q20 43 70 56.5t99 -6.5l-32 -212q-45 23 -84.5 3.5t-39.5 -71.5v-220h-200z" />
<glyph unicode="s" horiz-adv-x="520" d="M268 -12q-106 0 -176 44t-76 116l196 44q3 -64 60 -64q20 0 32 8t12 22q0 19 -28.5 33t-69 25t-81 26.5t-69 46.5t-28.5 75q0 67 59.5 107.5t156.5 40.5q99 0 164.5 -43.5t71.5 -112.5l-180 -28q-2 24 -16 38t-36 14q-34 0 -34 -28q0 -20 28.5 -33.5t69.5 -23.5t82 -24 t69.5 -45t28.5 -78q0 -73 -64 -116.5t-172 -43.5z" />
<glyph unicode="t" horiz-adv-x="408" d="M408 16q-47 -24 -105.5 -28t-111 12t-88 60t-35.5 108v180h-52v152h18q19 0 30.5 12t11.5 32v96h192v-140h122v-152h-122v-120q0 -41 32.5 -56.5t71.5 0.5z" />
<glyph unicode="u" horiz-adv-x="568" d="M216 -12q-79 0 -129.5 52t-50.5 132v328h200v-276q0 -23 13 -37.5t33 -14.5t33 14.5t13 37.5v276h200v-400l2 -100h-150l-32 47q-16 -26 -52 -42.5t-80 -16.5z" />
<glyph unicode="v" horiz-adv-x="568" d="M166 0l-168 500h216l77 -344l67 344h212l-158 -500h-246z" />
<glyph unicode="w" horiz-adv-x="700" d="M92 0l-76 500h212l24 -368l48 366h100l60 -366l20 370h204l-76 -502h-216l-41 372l-39 -372h-220z" />
<glyph unicode="x" horiz-adv-x="572" d="M-2 0l175 252l-175 248h240l46 -104l46 104h236l-171 -248l179 -252h-242l-47 112l-45 -112h-242z" />
<glyph unicode="y" horiz-adv-x="542" d="M68 -44q37 0 64 16t36 44l4 12l-174 472h214l63 -280l55 280h214l-204 -572q-22 -61 -76 -100.5t-116 -39.5z" />
<glyph unicode="z" horiz-adv-x="480" d="M24 0v176l244 144h-232v180h412v-172l-240 -146h248v-182h-432z" />
<glyph unicode="{" horiz-adv-x="348" d="M244 -200q-76 0 -124 46t-48 118v126q0 26 -16 41t-44 15h-4v196h4q28 0 44 15t16 41v118q0 72 48 118t124 46h100v-152h-4q-37 0 -58.5 -23t-21.5 -61v-68q0 -50 -28.5 -87t-75.5 -43q47 -6 75.5 -44t28.5 -90v-82q0 -35 21.5 -55.5t58.5 -20.5h6v-154h-102z" />
<glyph unicode="|" horiz-adv-x="288" d="M42 -200v880h204v-880h-204z" />
<glyph unicode="}" horiz-adv-x="348" d="M104 -200h-102v154h6q37 0 58.5 20.5t21.5 55.5v82q0 52 28.5 90t75.5 44q-47 6 -75.5 43t-28.5 87v68q0 38 -21.5 61t-58.5 23h-4v152h100q76 0 124 -46t48 -118v-118q0 -26 16 -41t44 -15h4v-196h-4q-28 0 -44 -15t-16 -41v-126q0 -72 -48 -118t-124 -46z" />
<glyph unicode="~" d="M404 204q-29 0 -51.5 13t-39.5 25.5t-33 12.5q-17 0 -26.5 -10.5t-9.5 -28.5v-4h-164v80q0 66 31 105t85 39q29 0 51.5 -13t39.5 -26t33 -13t26 11t10 29v4h164v-80q0 -66 -31 -105t-85 -39z" />
<glyph unicode="&#xa1;" horiz-adv-x="264" d="M32 -200l32 444h136l32 -444h-200zM28 408q0 45 28.5 72.5t75.5 27.5t75.5 -27.5t28.5 -72.5t-28.5 -72.5t-75.5 -27.5t-75.5 27.5t-28.5 72.5z" />
<glyph unicode="&#xa2;" horiz-adv-x="534" d="M20 250q0 104 60.5 174.5t158.5 84.5l21 145l148 -22l-23 -142q51 -23 84 -66.5t41 -99.5l-172 -48q-1 25 -17 39.5t-41 14.5q-30 0 -48 -21.5t-18 -56.5q0 -37 18 -58.5t48 -21.5q26 0 43.5 17.5t20.5 46.5l174 -64q-13 -73 -70.5 -122.5t-138.5 -59.5l-19 -136l-150 22 l22 136q-65 30 -103.5 93.5t-38.5 144.5z" />
<glyph unicode="&#xa3;" horiz-adv-x="556" d="M52 188q56 8 80 48h-96v136h65q-41 57 -41 112q0 79 61.5 128.5t162.5 49.5q106 0 174 -55t74 -147l-208 -28q0 22 -11 35t-29 13t-29 -14.5t-11 -37.5q0 -26 16 -56h204l-40 -136h-149q-23 -44 -79 -56h340v-180h-484v188z" />
<glyph unicode="&#xa4;" d="M170 80l-106 100l83 87q-7 28 -7 52q0 27 8 54l-80 83l104 100l80 -83q21 6 44 6q28 0 49 -7l83 86l104 -100l-86 -90q6 -22 6 -49q0 -25 -6 -46l90 -93l-106 -100l-84 86q-26 -7 -50 -7t-45 6zM262 319q0 -17 9.5 -27.5t24.5 -10.5t24.5 10.5t9.5 27.5t-9.5 27.5 t-24.5 10.5t-24.5 -10.5t-9.5 -27.5z" />
<glyph unicode="&#xa5;" horiz-adv-x="656" d="M116 92v168h84l-196 390h248l86 -262l70 262h244l-182 -390h78v-168h-106v-92h-212v92h-114z" />
<glyph unicode="&#xa6;" horiz-adv-x="288" d="M42 -200v400h204v-400h-204zM42 296v384h204v-384h-204z" />
<glyph unicode="&#xa7;" horiz-adv-x="540" d="M276 -212q-117 0 -193 54.5t-79 141.5l192 32q2 -30 24 -48t56 -18q28 0 44 12.5t16 33.5q0 25 -31.5 44t-76 34t-89 34t-76 53.5t-31.5 82.5q0 80 98 127q-94 54 -94 129q0 72 62 117t162 45q104 0 174.5 -50.5t75.5 -127.5l-186 -40q-4 28 -20 44t-40 16q-20 0 -32 -10 t-12 -26q0 -24 30.5 -41.5t74 -32t87 -33t74 -53.5t30.5 -84q0 -87 -77 -121q89 -53 89 -135q0 -79 -70 -129.5t-182 -50.5zM218 240q0 -31 40 -56q33 2 52.5 15.5t19.5 36.5q0 30 -39 56q-33 -1 -53 -15t-20 -37z" />
<glyph unicode="&#xa8;" d="M408 544q-43 0 -68.5 24.5t-25.5 65.5t25.5 65.5t68.5 24.5t68.5 -24.5t25.5 -65.5t-25.5 -65.5t-68.5 -24.5zM98 634q0 41 25.5 65.5t68.5 24.5t68.5 -24.5t25.5 -65.5t-25.5 -65.5t-68.5 -24.5t-68.5 24.5t-25.5 65.5z" />
<glyph unicode="&#xa9;" horiz-adv-x="744" d="M372 -56q-154 0 -253 101.5t-99 259.5t99 259.5t253 101.5t253 -101.5t99 -259.5t-99 -259.5t-253 -101.5zM144 306q0 -112 62 -179t166 -67t166 67t62 179t-62 179t-166 67t-166 -67t-62 -179zM176 306q0 93 55 151.5t143 58.5q70 0 122 -38.5t67 -103.5l-143 -46 q-7 36 -42 36q-21 0 -33.5 -16t-12.5 -42q0 -28 13 -44t35 -16q17 0 29 11.5t13 30.5l147 -46q-13 -69 -66.5 -109.5t-126.5 -40.5q-89 0 -144.5 60.5t-55.5 153.5z" />
<glyph unicode="&#xaa;" horiz-adv-x="344" d="M120 334q-43 0 -71.5 25t-28.5 63q0 34 23 58.5t57 31.5l96 20q8 1 8 9q0 15 -20 15q-11 0 -19 -6t-9 -16l-120 42q11 36 52 57t90 21q59 0 100.5 -35t41.5 -87v-190h-88l-21 38q-29 -46 -91 -46zM148 456q0 -18 20 -18q15 0 25.5 12t10.5 30v4l-36 -8q-20 -5 -20 -20z " />
<glyph unicode="&#xab;" horiz-adv-x="604" d="M190 4l-186 247l188 249l106 -156l-106 -94l108 -90zM276 251l188 249l106 -156l-106 -94l108 -90l-110 -156z" />
<glyph unicode="&#xac;" d="M80 244v184h436v-340h-188v156h-248z" />
<glyph unicode="&#xad;" horiz-adv-x="412" d="M16 184v144h380v-144h-380z" />
<glyph unicode="&#xae;" horiz-adv-x="744" d="M372 -56q-154 0 -253 101.5t-99 259.5t99 259.5t253 101.5t253 -101.5t99 -259.5t-99 -259.5t-253 -101.5zM144 306q0 -112 62 -179t166 -67t166 67t62 179t-62 179t-166 67t-166 -67t-62 -179zM228 121v370h186q55 0 89.5 -35.5t34.5 -91.5q0 -68 -50 -105l44 -138h-128 l-18 115h-42v-115h-116zM344 317h40q14 0 22 8.5t8 22.5t-8 22.5t-22 8.5h-40v-62z" />
<glyph unicode="&#xaf;" d="M126 564v144h348v-144h-348z" />
<glyph unicode="&#xb0;" horiz-adv-x="352" d="M176 334q-68 0 -112 45t-44 115t44 115t112 45t112 -45t44 -115t-44 -115t-112 -45zM142 494q0 -17 9.5 -27.5t24.5 -10.5t24.5 10.5t9.5 27.5t-9.5 27.5t-24.5 10.5t-24.5 -10.5t-9.5 -27.5z" />
<glyph unicode="&#xb1;" d="M92 50v184h416v-184h-416zM94 341v176h114v103h184v-103h114v-176h-114v-83h-184v83h-114z" />
<glyph unicode="&#xb2;" horiz-adv-x="288" d="M24 374q0 37 21 66.5t46 43.5t46 31.5t21 34.5q0 16 -14 16q-9 0 -14.5 -9t-5.5 -21l-104 8q2 52 38 85t94 33q51 0 83.5 -26.5t32.5 -67.5q0 -35 -26 -56.5t-60 -35t-42 -22.5h126v-108h-242v28z" />
<glyph unicode="&#xb3;" horiz-adv-x="296" d="M146 334q-57 0 -93.5 32t-36.5 82l108 16q0 -24 22 -24t22 24q0 15 -10 21t-26 3l-20 32l48 30h-128v100h224v-104l-36 -18q56 -21 56 -84q0 -48 -36.5 -79t-93.5 -31z" />
<glyph unicode="&#xb4;" d="M200 560l58 168l246 -20l-134 -168z" />
<glyph unicode="&#xb5;" horiz-adv-x="572" d="M40 -200v700h200v-272q0 -25 13 -40.5t35 -15.5q41 0 44 48v280h200v-400l2 -100h-150l-30 39q-31 -51 -98 -51q-11 0 -16 1v-189h-200z" />
<glyph unicode="&#xb6;" horiz-adv-x="606" d="M232 -200v432q-98 0 -161 58.5t-63 149.5t60 150.5t152 59.5h116v-850h-104zM364 -200v850h200v-850h-200z" />
<glyph unicode="&#xb7;" horiz-adv-x="376" d="M188 176q-47 0 -75.5 27.5t-28.5 72.5t28.5 72.5t75.5 27.5t75.5 -27.5t28.5 -72.5t-28.5 -72.5t-75.5 -27.5z" />
<glyph unicode="&#xb8;" d="M210 -156q70 -10 70 22q0 22 -28 26l-20 2l16 134h82l-10 -60q55 -6 89.5 -40.5t34.5 -87.5q0 -72 -70 -102t-174 -14z" />
<glyph unicode="&#xb9;" horiz-adv-x="204" d="M56 338v166h-48v96h18q16 0 25 9.5t9 26.5v14h112v-312h-116z" />
<glyph unicode="&#xba;" horiz-adv-x="352" d="M176 334q-68 0 -112 45t-44 115t44 115t112 45t112 -45t44 -115t-44 -115t-112 -45zM142 494q0 -17 9.5 -27.5t24.5 -10.5t24.5 10.5t9.5 27.5t-9.5 27.5t-24.5 10.5t-24.5 -10.5t-9.5 -27.5z" />
<glyph unicode="&#xbb;" horiz-adv-x="604" d="M414 4l-110 156l108 90l-106 94l106 156l188 -249zM32 160l108 90l-106 94l106 156l188 -249l-186 -247z" />
<glyph unicode="&#xbc;" horiz-adv-x="724" d="M80 338v166h-48v96h18q16 0 25 9.5t9 26.5v14h112v-312h-116zM38 48l480 630l94 -76l-478 -630zM394 50v122q40 40 40 136v4h120q0 -63 -18 -100.5t-58 -57.5h74v66l108 12v-78h28v-104h-28v-50h-108v50h-158z" />
<glyph unicode="&#xbd;" horiz-adv-x="676" d="M134 -28l-96 76l480 630l94 -76zM32 504v96h18q16 0 25 9.5t9 26.5v14h112v-312h-116v166h-48zM392 198q2 52 38 85t94 33q51 0 83.5 -26.5t32.5 -67.5q0 -35 -26 -56.5t-60 -35t-42 -22.5h126v-108h-242v28q0 37 21 66.5t46 43.5t46 31.5t21 34.5q0 16 -14 16 q-9 0 -14.5 -9t-5.5 -21z" />
<glyph unicode="&#xbe;" horiz-adv-x="770" d="M166 334q-57 0 -93.5 32t-36.5 82l108 16q0 -24 22 -24t22 24q0 15 -10 21t-26 3l-20 32l48 30h-128v100h224v-104l-36 -18q56 -21 56 -84q0 -48 -36.5 -79t-93.5 -31zM86 48l480 630l94 -76l-478 -630zM440 50v122q40 40 40 136v4h120q0 -63 -18 -100.5t-58 -57.5h74v66 l108 12v-78h28v-104h-28v-50h-108v50h-158z" />
<glyph unicode="&#xbf;" horiz-adv-x="508" d="M250 -212q-104 0 -170 55.5t-66 144.5q0 46 15.5 79t39 53t48.5 37.5t48 43.5t33 59h140q-3 -41 -18 -72.5t-34 -49.5t-37 -34t-30.5 -34.5t-12.5 -41.5q0 -25 12.5 -39.5t33.5 -14.5q24 0 38 20t14 56l202 -24q-3 -104 -75 -171t-181 -67zM162 408q0 45 28.5 72.5 t75.5 27.5t75.5 -27.5t28.5 -72.5t-28.5 -72.5t-75.5 -27.5t-75.5 27.5t-28.5 72.5z" />
<glyph unicode="&#xc0;" horiz-adv-x="672" d="M0 0l202 650h264l206 -650h-232l-30 132h-150l-28 -132h-232zM130 846l248 20l56 -168l-172 -20zM282 232h104l-54 236z" />
<glyph unicode="&#xc1;" horiz-adv-x="672" d="M0 0l202 650h264l206 -650h-232l-30 132h-150l-28 -132h-232zM234 698l58 168l246 -20l-134 -168zM282 232h104l-54 236z" />
<glyph unicode="&#xc2;" horiz-adv-x="672" d="M0 0l202 650h264l206 -650h-232l-30 132h-150l-28 -132h-232zM116 686l126 168h184l126 -168l-188 -8l-28 92l-28 -92zM282 232h104l-54 236z" />
<glyph unicode="&#xc3;" horiz-adv-x="672" d="M0 0l202 650h264l206 -650h-232l-30 132h-150l-28 -132h-232zM130 710l2 36q3 60 32.5 98t73.5 38q32 0 63 -29t49 -29q16 0 26 12.5t10 33.5l152 -24l-2 -36q-3 -60 -32.5 -98t-73.5 -38q-32 0 -63 29t-49 29q-16 0 -26 -12.5t-10 -33.5zM282 232h104l-54 236z" />
<glyph unicode="&#xc4;" horiz-adv-x="672" d="M0 0l202 650h264l206 -650h-232l-30 132h-150l-28 -132h-232zM132 772q0 41 25.5 65.5t68.5 24.5t68.5 -24.5t25.5 -65.5t-25.5 -65.5t-68.5 -24.5t-68.5 24.5t-25.5 65.5zM282 232h104l-54 236zM348 772q0 41 25.5 65.5t68.5 24.5t68.5 -24.5t25.5 -65.5t-25.5 -65.5 t-68.5 -24.5t-68.5 24.5t-25.5 65.5z" />
<glyph unicode="&#xc5;" horiz-adv-x="672" d="M0 0l202 650h264l206 -650h-232l-30 132h-150l-28 -132h-232zM178 812q0 62 44 102t112 40t112 -40t44 -102t-44 -102t-112 -40t-112 40t-44 102zM282 232h104l-54 236zM298 812q0 -16 10 -26t26 -10t26 10t10 26q0 17 -9.5 27t-26.5 10t-26.5 -10t-9.5 -27z" />
<glyph unicode="&#xc6;" horiz-adv-x="938" d="M444 0v136h-152l-56 -136h-234l300 650h600v-166h-246v-97h182v-110h-182v-109h258v-168h-470zM337 248h107v236h-10z" />
<glyph unicode="&#xc7;" horiz-adv-x="656" d="M242 -156q70 -10 70 22q0 22 -28 26l-20 2l12 100q-116 22 -186 111.5t-70 218.5q0 149 90 243.5t232 94.5q110 0 191 -66.5t99 -170.5l-196 -49q-3 43 -28.5 68.5t-65.5 25.5q-49 0 -77.5 -38.5t-28.5 -103.5q0 -67 30 -106.5t80 -39.5q41 0 69 26t33 70l188 -78 q-20 -92 -98 -150t-183 -62l-3 -20q55 -6 89.5 -40.5t34.5 -87.5q0 -72 -70 -102t-174 -14z" />
<glyph unicode="&#xc8;" horiz-adv-x="552" d="M42 0v650h474v-168h-262v-94h194v-112h-194v-106h274v-170h-486zM84 846l248 20l56 -168l-172 -20z" />
<glyph unicode="&#xc9;" horiz-adv-x="552" d="M42 0v650h474v-168h-262v-94h194v-112h-194v-106h274v-170h-486zM188 698l58 168l246 -20l-134 -168z" />
<glyph unicode="&#xca;" horiz-adv-x="552" d="M42 0v650h474v-168h-262v-94h194v-112h-194v-106h274v-170h-486zM70 686l126 168h184l126 -168l-188 -8l-28 92l-28 -92z" />
<glyph unicode="&#xcb;" horiz-adv-x="552" d="M42 0v650h474v-168h-262v-94h194v-112h-194v-106h274v-170h-486zM86 772q0 41 25.5 65.5t68.5 24.5t68.5 -24.5t25.5 -65.5t-25.5 -65.5t-68.5 -24.5t-68.5 24.5t-25.5 65.5zM302 772q0 41 25.5 65.5t68.5 24.5t68.5 -24.5t25.5 -65.5t-25.5 -65.5t-68.5 -24.5 t-68.5 24.5t-25.5 65.5z" />
<glyph unicode="&#xcc;" horiz-adv-x="296" d="M42 0v650h212v-650h-212zM-56 846l248 20l56 -168l-172 -20z" />
<glyph unicode="&#xcd;" horiz-adv-x="296" d="M42 0v650h212v-650h-212zM48 698l58 168l246 -20l-134 -168z" />
<glyph unicode="&#xce;" horiz-adv-x="296" d="M42 0v650h212v-650h-212zM-70 686l126 168h184l126 -168l-188 -8l-28 92l-28 -92z" />
<glyph unicode="&#xcf;" horiz-adv-x="292" d="M250 690q-43 0 -68.5 24.5t-25.5 65.5t25.5 65.5t68.5 24.5t68.5 -24.5t25.5 -65.5t-25.5 -65.5t-68.5 -24.5zM-52 780q0 41 25.5 65.5t68.5 24.5t68.5 -24.5t25.5 -65.5t-25.5 -65.5t-68.5 -24.5t-68.5 24.5t-25.5 65.5zM44 0v650h212v-650h-212z" />
<glyph unicode="&#xd0;" horiz-adv-x="662" d="M0 278v100h52v272h278q137 0 224.5 -91t87.5 -234t-87.5 -234t-224.5 -91h-278v278h-52zM264 178h50q51 0 81.5 40.5t30.5 107.5t-30.5 107.5t-81.5 40.5h-50v-96h96v-100h-96v-100z" />
<glyph unicode="&#xd1;" horiz-adv-x="680" d="M42 0v650h224l168 -406v406h204v-650h-224l-168 392v-392h-204zM134 710l2 36q3 60 32.5 98t73.5 38q32 0 63 -29t49 -29q16 0 26 12.5t10 33.5l152 -24l-2 -36q-3 -60 -32.5 -98t-73.5 -38q-32 0 -63 29t-49 29q-16 0 -26 -12.5t-10 -33.5z" />
<glyph unicode="&#xd2;" horiz-adv-x="692" d="M346 -12q-144 0 -235 94t-91 243t91 243t235 94t235 -94t91 -243t-91 -243t-235 -94zM142 846l248 20l56 -168l-172 -20zM242 326q0 -66 28 -105t76 -39t76 39t28 105t-28 105t-76 39t-76 -39t-28 -105z" />
<glyph unicode="&#xd3;" horiz-adv-x="692" d="M346 -12q-144 0 -235 94t-91 243t91 243t235 94t235 -94t91 -243t-91 -243t-235 -94zM242 326q0 -66 28 -105t76 -39t76 39t28 105t-28 105t-76 39t-76 -39t-28 -105zM246 698l58 168l246 -20l-134 -168z" />
<glyph unicode="&#xd4;" horiz-adv-x="692" d="M346 -12q-144 0 -235 94t-91 243t91 243t235 94t235 -94t91 -243t-91 -243t-235 -94zM128 686l126 168h184l126 -168l-188 -8l-28 92l-28 -92zM242 326q0 -66 28 -105t76 -39t76 39t28 105t-28 105t-76 39t-76 -39t-28 -105z" />
<glyph unicode="&#xd5;" horiz-adv-x="692" d="M346 -12q-144 0 -235 94t-91 243t91 243t235 94t235 -94t91 -243t-91 -243t-235 -94zM142 710l2 36q3 60 32.5 98t73.5 38q32 0 63 -29t49 -29q16 0 26 12.5t10 33.5l152 -24l-2 -36q-3 -60 -32.5 -98t-73.5 -38q-32 0 -63 29t-49 29q-16 0 -26 -12.5t-10 -33.5zM242 326 q0 -66 28 -105t76 -39t76 39t28 105t-28 105t-76 39t-76 -39t-28 -105z" />
<glyph unicode="&#xd6;" horiz-adv-x="692" d="M346 -12q-144 0 -235 94t-91 243t91 243t235 94t235 -94t91 -243t-91 -243t-235 -94zM144 772q0 41 25.5 65.5t68.5 24.5t68.5 -24.5t25.5 -65.5t-25.5 -65.5t-68.5 -24.5t-68.5 24.5t-25.5 65.5zM242 326q0 -66 28 -105t76 -39t76 39t28 105t-28 105t-76 39t-76 -39 t-28 -105zM360 772q0 41 25.5 65.5t68.5 24.5t68.5 -24.5t25.5 -65.5t-25.5 -65.5t-68.5 -24.5t-68.5 24.5t-25.5 65.5z" />
<glyph unicode="&#xd7;" d="M218 108l-134 132l86 82l-84 81l132 133l82 -82l82 82l132 -133l-84 -81l86 -82l-134 -132l-82 82z" />
<glyph unicode="&#xd8;" horiz-adv-x="692" d="M140 -38l-96 80l49 61q-73 92 -73 222q0 149 91 243t235 94q92 0 164 -40l54 68l96 -78l-56 -71q68 -89 68 -216q0 -149 -91 -243t-235 -94q-86 0 -156 36zM242 326q0 -14 2 -34l138 171q-15 7 -36 7q-48 0 -76 -39t-28 -105zM319 186q11 -4 27 -4q48 0 76 39t28 105 q0 15 -1 22z" />
<glyph unicode="&#xd9;" horiz-adv-x="640" d="M320 -12q-131 0 -208.5 71.5t-77.5 192.5v398h212v-394q0 -38 20 -61t54 -23t54 23t20 61v394h212v-398q0 -121 -77.5 -192.5t-208.5 -71.5zM118 846l248 20l56 -168l-172 -20z" />
<glyph unicode="&#xda;" horiz-adv-x="640" d="M320 -12q-131 0 -208.5 71.5t-77.5 192.5v398h212v-394q0 -38 20 -61t54 -23t54 23t20 61v394h212v-398q0 -121 -77.5 -192.5t-208.5 -71.5zM222 698l58 168l246 -20l-134 -168z" />
<glyph unicode="&#xdb;" horiz-adv-x="640" d="M320 -12q-131 0 -208.5 71.5t-77.5 192.5v398h212v-394q0 -38 20 -61t54 -23t54 23t20 61v394h212v-398q0 -121 -77.5 -192.5t-208.5 -71.5zM104 686l126 168h184l126 -168l-188 -8l-28 92l-28 -92z" />
<glyph unicode="&#xdc;" horiz-adv-x="640" d="M320 -12q-131 0 -208.5 71.5t-77.5 192.5v398h212v-394q0 -38 20 -61t54 -23t54 23t20 61v394h212v-398q0 -121 -77.5 -192.5t-208.5 -71.5zM120 772q0 41 25.5 65.5t68.5 24.5t68.5 -24.5t25.5 -65.5t-25.5 -65.5t-68.5 -24.5t-68.5 24.5t-25.5 65.5zM336 772 q0 41 25.5 65.5t68.5 24.5t68.5 -24.5t25.5 -65.5t-25.5 -65.5t-68.5 -24.5t-68.5 24.5t-25.5 65.5z" />
<glyph unicode="&#xdd;" horiz-adv-x="644" d="M224 0v200l-226 450h248l86 -262l70 262h244l-210 -450v-200h-212zM234 698l58 168l246 -20l-134 -168z" />
<glyph unicode="&#xde;" horiz-adv-x="640" d="M42 0v650h216v-76h134q100 0 164 -67t64 -173q0 -107 -67 -175.5t-173 -68.5h-122v-90h-216zM258 260h70q35 0 55.5 19.5t20.5 52.5q0 34 -20 54t-54 20h-72v-146z" />
<glyph unicode="&#xdf;" horiz-adv-x="612" d="M42 424q0 118 80 193t206 75q103 0 169.5 -50.5t66.5 -129.5q0 -50 -29 -88.5t-79 -53.5q62 -11 99 -58.5t37 -115.5q0 -114 -91.5 -170t-238.5 -30l8 188q56 -12 91 5.5t35 54.5q0 29 -23 46.5t-61 17.5h-12v104h10q28 0 45 13.5t17 36.5t-16 36.5t-44 13.5 q-32 0 -51 -21.5t-19 -58.5v-632h-200v624z" />
<glyph unicode="&#xe0;" horiz-adv-x="552" d="M186 -12q-72 0 -119 39.5t-47 100.5q0 51 34 89t94 51l152 34q16 3 16 20q0 38 -34 38q-39 0 -46 -44l-192 68q27 59 88 93.5t144 34.5q107 0 173.5 -57t66.5 -147v-208l2 -100h-170l-19 50q-51 -62 -143 -62zM82 708l248 20l56 -168l-172 -20zM232 178q0 -16 9.5 -25 t26.5 -9q22 0 35 17.5t13 46.5v19q-2 -1 -13 -3.5t-17 -3.5l-20 -4q-16 -3 -25 -13.5t-9 -24.5z" />
<glyph unicode="&#xe1;" horiz-adv-x="552" d="M186 -12q-72 0 -119 39.5t-47 100.5q0 51 34 89t94 51l152 34q16 3 16 20q0 38 -34 38q-39 0 -46 -44l-192 68q27 59 88 93.5t144 34.5q107 0 173.5 -57t66.5 -147v-208l2 -100h-170l-19 50q-51 -62 -143 -62zM186 560l58 168l246 -20l-134 -168zM232 178q0 -16 9.5 -25 t26.5 -9q22 0 35 17.5t13 46.5v19q-2 -1 -13 -3.5t-17 -3.5l-20 -4q-16 -3 -25 -13.5t-9 -24.5z" />
<glyph unicode="&#xe2;" horiz-adv-x="552" d="M186 -12q-72 0 -119 39.5t-47 100.5q0 51 34 89t94 51l152 34q16 3 16 20q0 38 -34 38q-39 0 -46 -44l-192 68q27 59 88 93.5t144 34.5q107 0 173.5 -57t66.5 -147v-208l2 -100h-170l-19 50q-51 -62 -143 -62zM68 548l126 168h184l126 -168l-188 -8l-28 92l-28 -92z M232 178q0 -16 9.5 -25t26.5 -9q22 0 35 17.5t13 46.5v19q-2 -1 -13 -3.5t-17 -3.5l-20 -4q-16 -3 -25 -13.5t-9 -24.5z" />
<glyph unicode="&#xe3;" horiz-adv-x="552" d="M186 -12q-72 0 -119 39.5t-47 100.5q0 51 34 89t94 51l152 34q16 3 16 20q0 38 -34 38q-39 0 -46 -44l-192 68q27 59 88 93.5t144 34.5q107 0 173.5 -57t66.5 -147v-208l2 -100h-170l-19 50q-51 -62 -143 -62zM82 572l2 36q3 60 32.5 98t73.5 38q32 0 63 -29t49 -29 q16 0 26 12.5t10 33.5l152 -24l-2 -36q-3 -60 -32.5 -98t-73.5 -38q-32 0 -63 29t-49 29q-16 0 -26 -12.5t-10 -33.5zM232 178q0 -16 9.5 -25t26.5 -9q22 0 35 17.5t13 46.5v19q-2 -1 -13 -3.5t-17 -3.5l-20 -4q-16 -3 -25 -13.5t-9 -24.5z" />
<glyph unicode="&#xe4;" horiz-adv-x="552" d="M186 -12q-72 0 -119 39.5t-47 100.5q0 51 34 89t94 51l152 34q16 3 16 20q0 38 -34 38q-39 0 -46 -44l-192 68q27 59 88 93.5t144 34.5q107 0 173.5 -57t66.5 -147v-208l2 -100h-170l-19 50q-51 -62 -143 -62zM84 634q0 41 25.5 65.5t68.5 24.5t68.5 -24.5t25.5 -65.5 t-25.5 -65.5t-68.5 -24.5t-68.5 24.5t-25.5 65.5zM232 178q0 -16 9.5 -25t26.5 -9q22 0 35 17.5t13 46.5v19q-2 -1 -13 -3.5t-17 -3.5l-20 -4q-16 -3 -25 -13.5t-9 -24.5zM300 634q0 41 25.5 65.5t68.5 24.5t68.5 -24.5t25.5 -65.5t-25.5 -65.5t-68.5 -24.5t-68.5 24.5 t-25.5 65.5z" />
<glyph unicode="&#xe5;" horiz-adv-x="552" d="M186 -12q-72 0 -119 39.5t-47 100.5q0 51 34 89t94 51l152 34q16 3 16 20q0 38 -34 38q-39 0 -46 -44l-192 68q27 59 88 93.5t144 34.5q107 0 173.5 -57t66.5 -147v-208l2 -100h-170l-19 50q-51 -62 -143 -62zM130 674q0 62 44 102t112 40t112 -40t44 -102t-44 -102 t-112 -40t-112 40t-44 102zM232 178q0 -16 9.5 -25t26.5 -9q22 0 35 17.5t13 46.5v19q-2 -1 -13 -3.5t-17 -3.5l-20 -4q-16 -3 -25 -13.5t-9 -24.5zM250 674q0 -16 10 -26t26 -10t26 10t10 26q0 17 -9.5 27t-26.5 10t-26.5 -10t-9.5 -27z" />
<glyph unicode="&#xe6;" horiz-adv-x="804" d="M558 -12q-110 0 -176 80q-64 -80 -178 -80q-81 0 -132.5 41.5t-51.5 106.5q0 53 32.5 90t87.5 46l136 22q16 3 16 20v14q0 32 -32 32q-37 0 -44 -44l-188 68q27 60 86 94t142 34q93 0 157 -45q57 45 139 45q111 0 176.5 -83t53.5 -209h-289q13 -68 61 -68q18 0 32 11 t18 29l172 -72q-21 -58 -82 -95t-136 -37zM216 178q0 -16 9 -25t23 -9q20 0 32 16t12 44v16l-36 -4q-40 -5 -40 -38zM493 288h109q-3 30 -16.5 47t-35.5 17q-46 0 -57 -64z" />
<glyph unicode="&#xe7;" horiz-adv-x="534" d="M182 -156q70 -10 70 22q0 22 -28 26l-20 2l12 100q-88 19 -142 88.5t-54 167.5q0 115 73 188.5t187 73.5q90 0 154 -52t76 -136l-172 -48q-1 25 -17 39.5t-41 14.5q-30 0 -48 -21.5t-18 -56.5q0 -37 18 -58.5t48 -21.5q26 0 43.5 17.5t20.5 46.5l174 -64 q-14 -76 -75.5 -126.5t-147.5 -56.5l-3 -21q55 -6 89.5 -40.5t34.5 -87.5q0 -72 -70 -102t-174 -14z" />
<glyph unicode="&#xe8;" horiz-adv-x="544" d="M282 -12q-115 0 -188.5 73.5t-73.5 188.5t72 188.5t184 73.5q120 0 189 -84t57 -208h-314q16 -68 76 -68q50 0 62 40l168 -76q-24 -57 -88.5 -92.5t-143.5 -35.5zM72 708l248 20l56 -168l-172 -20zM207 288h129q-3 29 -20 46.5t-42 17.5t-43 -17t-24 -47z" />
<glyph unicode="&#xe9;" horiz-adv-x="544" d="M282 -12q-115 0 -188.5 73.5t-73.5 188.5t72 188.5t184 73.5q120 0 189 -84t57 -208h-314q16 -68 76 -68q50 0 62 40l168 -76q-24 -57 -88.5 -92.5t-143.5 -35.5zM176 560l58 168l246 -20l-134 -168zM207 288h129q-3 29 -20 46.5t-42 17.5t-43 -17t-24 -47z" />
<glyph unicode="&#xea;" horiz-adv-x="544" d="M282 -12q-115 0 -188.5 73.5t-73.5 188.5t72 188.5t184 73.5q120 0 189 -84t57 -208h-314q16 -68 76 -68q50 0 62 40l168 -76q-24 -57 -88.5 -92.5t-143.5 -35.5zM58 548l126 168h184l126 -168l-188 -8l-28 92l-28 -92zM207 288h129q-3 29 -20 46.5t-42 17.5t-43 -17 t-24 -47z" />
<glyph unicode="&#xeb;" horiz-adv-x="544" d="M282 -12q-115 0 -188.5 73.5t-73.5 188.5t72 188.5t184 73.5q120 0 189 -84t57 -208h-314q16 -68 76 -68q50 0 62 40l168 -76q-24 -57 -88.5 -92.5t-143.5 -35.5zM74 634q0 41 25.5 65.5t68.5 24.5t68.5 -24.5t25.5 -65.5t-25.5 -65.5t-68.5 -24.5t-68.5 24.5t-25.5 65.5 zM207 288h129q-3 29 -20 46.5t-42 17.5t-43 -17t-24 -47zM290 634q0 41 25.5 65.5t68.5 24.5t68.5 -24.5t25.5 -65.5t-25.5 -65.5t-68.5 -24.5t-68.5 24.5t-25.5 65.5z" />
<glyph unicode="&#xec;" horiz-adv-x="280" d="M40 500h200v-500h-200v500zM-64 708l248 20l56 -168l-172 -20z" />
<glyph unicode="&#xed;" horiz-adv-x="280" d="M40 500h200v-500h-200v500zM40 560l58 168l246 -20l-134 -168z" />
<glyph unicode="&#xee;" horiz-adv-x="280" d="M40 500h200v-500h-200v500zM-78 548l126 168h184l126 -168l-188 -8l-28 92l-28 -92z" />
<glyph unicode="&#xef;" horiz-adv-x="280" d="M244 548q-43 0 -67.5 22.5t-24.5 63.5t24.5 64.5t67.5 23.5t67.5 -23.5t24.5 -64.5t-24.5 -63.5t-67.5 -22.5zM-56 634q0 41 24.5 64.5t67.5 23.5t67.5 -23.5t24.5 -64.5t-24.5 -63.5t-67.5 -22.5t-67.5 22.5t-24.5 63.5zM40 0v500h200v-500h-200z" />
<glyph unicode="&#xf0;" horiz-adv-x="532" d="M250 -12q-102 0 -168 64t-66 164q0 98 62 161t158 63q36 0 71 -10q-75 76 -171 110l140 160q21 -12 50 -36l70 72l108 -116l-80 -73q80 -131 80 -275q0 -129 -70 -206.5t-184 -77.5zM208 244q0 -32 15.5 -52t40.5 -20t40.5 20t15.5 52t-15.5 52t-40.5 20t-40.5 -20 t-15.5 -52z" />
<glyph unicode="&#xf1;" horiz-adv-x="576" d="M40 0v500h148l36 -54q18 30 56 48t84 18q77 0 126.5 -52.5t49.5 -135.5v-324h-200v272q0 25 -13.5 40.5t-34.5 15.5q-23 0 -37.5 -17t-14.5 -43v-268h-200zM92 572l2 36q3 60 32.5 98t73.5 38q32 0 63 -29t49 -29q16 0 26 12.5t10 33.5l152 -24l-2 -36q-3 -60 -32.5 -98 t-73.5 -38q-32 0 -63 29t-49 29q-16 0 -26 -12.5t-10 -33.5z" />
<glyph unicode="&#xf2;" horiz-adv-x="548" d="M274 -12q-112 0 -183 73t-71 189t71 189t183 73t183 -73t71 -189t-71 -189t-183 -73zM70 708l248 20l56 -168l-172 -20zM208 251q0 -37 18 -59t48 -22t48 22t18 59t-18 59t-48 22t-48 -22t-18 -59z" />
<glyph unicode="&#xf3;" horiz-adv-x="548" d="M274 -12q-112 0 -183 73t-71 189t71 189t183 73t183 -73t71 -189t-71 -189t-183 -73zM174 560l58 168l246 -20l-134 -168zM208 251q0 -37 18 -59t48 -22t48 22t18 59t-18 59t-48 22t-48 -22t-18 -59z" />
<glyph unicode="&#xf4;" horiz-adv-x="548" d="M274 -12q-112 0 -183 73t-71 189t71 189t183 73t183 -73t71 -189t-71 -189t-183 -73zM56 548l126 168h184l126 -168l-188 -8l-28 92l-28 -92zM208 251q0 -37 18 -59t48 -22t48 22t18 59t-18 59t-48 22t-48 -22t-18 -59z" />
<glyph unicode="&#xf5;" horiz-adv-x="548" d="M274 -12q-112 0 -183 73t-71 189t71 189t183 73t183 -73t71 -189t-71 -189t-183 -73zM70 572l2 36q3 60 32.5 98t73.5 38q32 0 63 -29t49 -29q16 0 26 12.5t10 33.5l152 -24l-2 -36q-3 -60 -32.5 -98t-73.5 -38q-32 0 -63 29t-49 29q-16 0 -26 -12.5t-10 -33.5zM208 251 q0 -37 18 -59t48 -22t48 22t18 59t-18 59t-48 22t-48 -22t-18 -59z" />
<glyph unicode="&#xf6;" horiz-adv-x="548" d="M274 -12q-112 0 -183 73t-71 189t71 189t183 73t183 -73t71 -189t-71 -189t-183 -73zM72 634q0 41 25.5 65.5t68.5 24.5t68.5 -24.5t25.5 -65.5t-25.5 -65.5t-68.5 -24.5t-68.5 24.5t-25.5 65.5zM208 251q0 -37 18 -59t48 -22t48 22t18 59t-18 59t-48 22t-48 -22t-18 -59 zM288 634q0 41 25.5 65.5t68.5 24.5t68.5 -24.5t25.5 -65.5t-25.5 -65.5t-68.5 -24.5t-68.5 24.5t-25.5 65.5z" />
<glyph unicode="&#xf7;" d="M80 254v132h440v-132h-440zM196 128q0 45 28.5 72.5t75.5 27.5t75.5 -27.5t28.5 -72.5t-28.5 -72.5t-75.5 -27.5t-75.5 27.5t-28.5 72.5zM196 512q0 45 28.5 72.5t75.5 27.5t75.5 -27.5t28.5 -72.5t-28.5 -72.5t-75.5 -27.5t-75.5 27.5t-28.5 72.5z" />
<glyph unicode="&#xf8;" horiz-adv-x="556" d="M116 -62l-116 94l61 74q-37 63 -37 144q0 116 71 189t183 73q54 0 103 -19l59 73l116 -94l-62 -76q38 -65 38 -146q0 -116 -71 -189t-183 -73q-56 0 -105 20zM212 251q0 -37 18 -59t48 -22t48 22t18 59t-18 59t-48 22t-48 -22t-18 -59z" />
<glyph unicode="&#xf9;" horiz-adv-x="568" d="M216 -12q-79 0 -129.5 52t-50.5 132v328h200v-276q0 -23 13 -37.5t33 -14.5t33 14.5t13 37.5v276h200v-400l2 -100h-150l-32 47q-16 -26 -52 -42.5t-80 -16.5zM78 708l248 20l56 -168l-172 -20z" />
<glyph unicode="&#xfa;" horiz-adv-x="568" d="M216 -12q-79 0 -129.5 52t-50.5 132v328h200v-276q0 -23 13 -37.5t33 -14.5t33 14.5t13 37.5v276h200v-400l2 -100h-150l-32 47q-16 -26 -52 -42.5t-80 -16.5zM182 560l58 168l246 -20l-134 -168z" />
<glyph unicode="&#xfb;" horiz-adv-x="568" d="M216 -12q-79 0 -129.5 52t-50.5 132v328h200v-276q0 -23 13 -37.5t33 -14.5t33 14.5t13 37.5v276h200v-400l2 -100h-150l-32 47q-16 -26 -52 -42.5t-80 -16.5zM64 548l126 168h184l126 -168l-188 -8l-28 92l-28 -92z" />
<glyph unicode="&#xfc;" horiz-adv-x="568" d="M216 -12q-79 0 -129.5 52t-50.5 132v328h200v-276q0 -23 13 -37.5t33 -14.5t33 14.5t13 37.5v276h200v-400l2 -100h-150l-32 47q-16 -26 -52 -42.5t-80 -16.5zM80 634q0 41 25.5 65.5t68.5 24.5t68.5 -24.5t25.5 -65.5t-25.5 -65.5t-68.5 -24.5t-68.5 24.5t-25.5 65.5z M296 634q0 41 25.5 65.5t68.5 24.5t68.5 -24.5t25.5 -65.5t-25.5 -65.5t-68.5 -24.5t-68.5 24.5t-25.5 65.5z" />
<glyph unicode="&#xfd;" horiz-adv-x="542" d="M68 -44q37 0 64 16t36 44l4 12l-174 472h214l63 -280l55 280h214l-204 -572q-22 -61 -76 -100.5t-116 -39.5zM172 560l58 168l246 -20l-134 -168z" />
<glyph unicode="&#xfe;" horiz-adv-x="590" d="M360 -12q-67 0 -118 40v-228h-200v880h200v-209q52 41 118 41q92 0 151 -73t59 -187q0 -116 -59 -190t-151 -74zM232 251q0 -39 20 -62t54 -23t54 23t20 62t-20 62t-54 23t-54 -23t-20 -62z" />
<glyph unicode="&#xff;" horiz-adv-x="542" d="M68 -44q37 0 64 16t36 44l4 12l-174 472h214l63 -280l55 280h214l-204 -572q-22 -61 -76 -100.5t-116 -39.5zM70 634q0 41 25.5 65.5t68.5 24.5t68.5 -24.5t25.5 -65.5t-25.5 -65.5t-68.5 -24.5t-68.5 24.5t-25.5 65.5zM286 634q0 41 25.5 65.5t68.5 24.5t68.5 -24.5 t25.5 -65.5t-25.5 -65.5t-68.5 -24.5t-68.5 24.5t-25.5 65.5z" />
<glyph unicode="&#x152;" horiz-adv-x="940" d="M322 -12q-133 0 -217.5 94.5t-84.5 242.5t84.5 242.5t217.5 94.5q70 0 120 -28v16h462v-166h-254v-97h190v-110h-190v-109h266v-168h-474v16q-50 -28 -120 -28zM242 326q0 -66 27 -105t73 -39t73 39t27 105t-27 105t-73 39t-73 -39t-27 -105z" />
<glyph unicode="&#x153;" horiz-adv-x="814" d="M260 -12q-106 0 -173 73.5t-67 188.5t67 188.5t173 73.5q88 0 153 -54q59 54 149 54q111 0 176.5 -83t53.5 -209h-289q13 -68 61 -68q18 0 32 11t18 29l172 -72q-21 -58 -82 -95t-136 -37q-92 0 -153 56q-64 -56 -155 -56zM204 251q0 -37 15.5 -59t40.5 -22t40.5 22 t15.5 59t-15.5 59t-40.5 22t-40.5 -22t-15.5 -59zM503 288h109q-3 30 -16.5 47t-35.5 17q-46 0 -57 -64z" />
<glyph unicode="&#x178;" horiz-adv-x="644" d="M224 0v200l-226 450h248l86 -262l70 262h244l-210 -450v-200h-212zM132 772q0 41 25.5 65.5t68.5 24.5t68.5 -24.5t25.5 -65.5t-25.5 -65.5t-68.5 -24.5t-68.5 24.5t-25.5 65.5zM348 772q0 41 25.5 65.5t68.5 24.5t68.5 -24.5t25.5 -65.5t-25.5 -65.5t-68.5 -24.5 t-68.5 24.5t-25.5 65.5z" />
<glyph unicode="&#x2c6;" d="M82 548l126 168h184l126 -168l-188 -8l-28 92l-28 -92z" />
<glyph unicode="&#x2dc;" d="M396 536q-26 0 -45.5 14.5t-35 29t-31.5 14.5t-26 -12.5t-10 -33.5l-152 24l2 36q3 60 32.5 98t73.5 38q32 0 63 -29t49 -29q16 0 26 12.5t10 33.5l152 -24l-2 -36q-3 -60 -32.5 -98t-73.5 -38z" />
<glyph unicode="&#x2000;" horiz-adv-x="477" />
<glyph unicode="&#x2001;" horiz-adv-x="954" />
<glyph unicode="&#x2002;" horiz-adv-x="477" />
<glyph unicode="&#x2003;" horiz-adv-x="954" />
<glyph unicode="&#x2004;" horiz-adv-x="318" />
<glyph unicode="&#x2005;" horiz-adv-x="238" />
<glyph unicode="&#x2006;" horiz-adv-x="159" />
<glyph unicode="&#x2007;" horiz-adv-x="159" />
<glyph unicode="&#x2008;" horiz-adv-x="119" />
<glyph unicode="&#x2009;" horiz-adv-x="190" />
<glyph unicode="&#x200a;" horiz-adv-x="53" />
<glyph unicode="&#x2010;" horiz-adv-x="412" d="M16 184v144h380v-144h-380z" />
<glyph unicode="&#x2011;" horiz-adv-x="412" d="M16 184v144h380v-144h-380z" />
<glyph unicode="&#x2012;" horiz-adv-x="412" d="M16 184v144h380v-144h-380z" />
<glyph unicode="&#x2013;" horiz-adv-x="548" d="M16 184v144h516v-144h-516z" />
<glyph unicode="&#x2014;" horiz-adv-x="860" d="M8 184v144h844v-144h-844z" />
<glyph unicode="&#x2018;" horiz-adv-x="280" d="M236 573q-70 13 -92 -25q42 -3 69 -30t27 -66q0 -42 -28 -69t-72 -27q-51 0 -83.5 38.5t-32.5 98.5q0 89 64 135.5t156 31.5z" />
<glyph unicode="&#x2019;" horiz-adv-x="280" d="M44 441q70 -13 92 25q-42 3 -69 30t-27 66q0 42 28 69t72 27q51 0 83.5 -38.5t32.5 -98.5q0 -89 -64 -135.5t-156 -31.5z" />
<glyph unicode="&#x201a;" horiz-adv-x="276" d="M36 -25q70 -13 92 25q-42 3 -69 30t-27 66q0 42 28 69t72 27q51 0 83.5 -38.5t32.5 -98.5q0 -89 -64 -135.5t-156 -31.5z" />
<glyph unicode="&#x201c;" horiz-adv-x="520" d="M236 571q-70 13 -92 -25q42 -3 69 -30t27 -66q0 -42 -28 -69t-72 -27q-51 0 -83.5 38.5t-32.5 98.5q0 89 64 135.5t156 31.5zM264 491q0 89 64 135.5t156 31.5l-8 -87q-70 13 -92 -25q42 -3 69 -30t27 -66q0 -42 -28 -69t-72 -27q-51 0 -83.5 38.5t-32.5 98.5z" />
<glyph unicode="&#x201d;" horiz-adv-x="520" d="M44 441q70 -13 92 25q-42 3 -69 30t-27 66q0 42 28 69t72 27q51 0 83.5 -38.5t32.5 -98.5q0 -89 -64 -135.5t-156 -31.5zM276 354l8 87q70 -13 92 25q-42 3 -69 30t-27 66q0 42 28 69t72 27q51 0 83.5 -38.5t32.5 -98.5q0 -89 -64 -135.5t-156 -31.5z" />
<glyph unicode="&#x201e;" horiz-adv-x="520" d="M280 -25q70 -13 92 25q-42 3 -69 30t-27 66q0 42 28 69t72 27q51 0 83.5 -38.5t32.5 -98.5q0 -89 -64 -135.5t-156 -31.5zM28 -112l8 87q70 -13 92 25q-42 3 -69 30t-27 66q0 42 28 69t72 27q51 0 83.5 -38.5t32.5 -98.5q0 -89 -64 -135.5t-156 -31.5z" />
<glyph unicode="&#x2022;" horiz-adv-x="496" d="M248 150q-54 0 -89 36t-35 90t35 90t89 36t89 -36t35 -90t-35 -90t-89 -36z" />
<glyph unicode="&#x2026;" horiz-adv-x="752" d="M136 -8q-47 0 -75.5 27.5t-28.5 72.5t28.5 72.5t75.5 27.5t75.5 -27.5t28.5 -72.5t-28.5 -72.5t-75.5 -27.5zM268 92q0 45 28.5 72.5t75.5 27.5t75.5 -27.5t28.5 -72.5t-28.5 -72.5t-75.5 -27.5t-75.5 27.5t-28.5 72.5zM504 92q0 45 28.5 72.5t75.5 27.5t75.5 -27.5 t28.5 -72.5t-28.5 -72.5t-75.5 -27.5t-75.5 27.5t-28.5 72.5z" />
<glyph unicode="&#x202f;" horiz-adv-x="190" />
<glyph unicode="&#x2039;" horiz-adv-x="332" d="M190 4l-186 247l188 249l106 -156l-106 -94l108 -90z" />
<glyph unicode="&#x203a;" horiz-adv-x="332" d="M142 4l-110 156l108 90l-106 94l106 156l188 -249z" />
<glyph unicode="&#x205f;" horiz-adv-x="238" />
<glyph unicode="&#x2070;" horiz-adv-x="348" d="M174 332q-66 0 -108 45.5t-42 116.5t42 116.5t108 45.5t108 -45.5t42 -116.5t-42 -116.5t-108 -45.5zM140 495q0 -65 34 -65t34 65t-34 65t-34 -65z" />
<glyph unicode="&#x2074;" horiz-adv-x="320" d="M12 510q40 40 40 136v4h120q0 -63 -18 -100.5t-58 -57.5h74v66l108 12v-78h28v-104h-28v-50h-108v50h-158v122z" />
<glyph unicode="&#x20ac;" horiz-adv-x="680" d="M0 244v160h52q23 117 108 187.5t206 70.5q110 0 191 -66.5t99 -170.5l-196 -49q-3 43 -28.5 68.5t-65.5 25.5q-66 0 -93 -67l143 -1l-36 -158h-103q29 -62 93 -62q41 0 69 26t33 70l188 -78q-21 -95 -103 -153.5t-191 -58.5q-121 0 -206 70t-108 186h-52z" />
<glyph unicode="&#x2122;" horiz-adv-x="704" d="M314 338v312h144l39 -222l37 222h142v-312h-114v206l-40 -205h-52l-42 205v-206h-114zM4 538v112h284v-112h-82v-200h-120v200h-82z" />
<glyph unicode="&#x25fc;" horiz-adv-x="500" d="M0 500h500v-500h-500v500z" />
<glyph unicode="&#xfb01;" horiz-adv-x="704" d="M80 484q0 74 38 124t94 67.5t116 16t108 -23.5l-36 -152q-42 20 -81 3.5t-39 -59.5v-24h116v-152h-116v-284h-200v284h-76v152h76v48zM462 636q0 43 28 69.5t74 26.5t74 -26.5t28 -69.5t-28 -69.5t-74 -26.5t-74 26.5t-28 69.5zM464 0v500h200v-500h-200z" />
<glyph unicode="&#xfb02;" horiz-adv-x="708" d="M80 484q0 74 38 124t94 67.5t116 16t108 -23.5l-36 -152q-42 20 -81 3.5t-39 -59.5v-24h116v-152h-116v-284h-200v284h-76v152h76v48zM466 0v680h200v-680h-200z" />
<glyph horiz-adv-x="280" d="M40 500h200v-500h-200v500zM38 636q0 43 28 69.5t74 26.5t74 -26.5t28 -69.5t-28 -69.5t-74 -26.5t-74 26.5t-28 69.5z" />
</font>
</defs>
</svg>
