<?xml version="1.0" standalone="no"?>
<!DOCTYPE svg PUBLIC "-//W3C//DTD SVG 20010904//EN"
 "http://www.w3.org/TR/2001/REC-SVG-20010904/DTD/svg10.dtd">
<svg version="1.0" xmlns="http://www.w3.org/2000/svg"
 width="310.000000pt" height="310.000000pt" viewBox="0 0 310.000000 310.000000"
 preserveAspectRatio="xMidYMid meet">
<metadata>
Created by potrace 1.11, written by Peter Selinger 2001-2013
</metadata>
<g transform="translate(0.000000,310.000000) scale(0.100000,-0.100000)"
fill="#000000" stroke="none">
<path d="M415 3072 c-193 -67 -326 -202 -389 -396 l-26 -79 0 -1037 0 -1037
26 -79 c37 -115 70 -170 149 -249 82 -83 177 -136 292 -165 75 -19 116 -20
1083 -20 967 0 1008 1 1083 20 115 29 210 82 292 165 79 79 112 134 149 249
l26 79 0 1037 0 1037 -26 79 c-64 197 -201 334 -398 398 l-79 26 -1051 0
-1051 -1 -80 -27z m641 -431 c37 -64 91 -156 120 -206 175 -302 214 -371 214
-386 0 -38 -31 -48 -155 -51 l-120 -3 -3 -252 c-1 -139 0 -253 3 -253 3 0 41
28 83 63 163 132 334 214 524 249 l68 12 0 124 c0 117 1 124 24 147 21 21 29
23 53 14 45 -16 676 -384 686 -401 6 -8 7 -26 4 -40 -7 -26 -3 -24 -500 -310
-103 -59 -199 -108 -212 -108 -40 0 -55 34 -55 127 0 46 -2 83 -4 83 -17 0
-151 -47 -191 -67 -212 -107 -381 -321 -449 -573 -21 -77 -36 -208 -36 -316 0
-75 -3 -93 -16 -98 -26 -10 -322 -7 -329 3 -3 5 -6 367 -8 803 l-2 793 -108 5
c-113 5 -127 11 -127 55 0 11 11 38 23 60 13 22 68 117 122 210 259 451 259
450 307 437 9 -2 47 -57 84 -121z"/>
</g>
</svg>
